G04 #@! TF.FileFunction,Legend,Bot*
%FSLAX46Y46*%
G04 Gerber Fmt 4.6, Leading zero omitted, Abs format (unit mm)*
G04 Created by KiCad (PCBNEW 4.0.2+dfsg1-stable) date Tue 26 Sep 2017 04:27:40 AM EDT*
%MOMM*%
G01*
G04 APERTURE LIST*
%ADD10C,0.100000*%
%ADD11C,0.150000*%
G04 APERTURE END LIST*
D10*
D11*
X208150000Y-59800000D02*
X207450000Y-59800000D01*
X207450000Y-61000000D02*
X208150000Y-61000000D01*
X150350000Y-67900000D02*
X149650000Y-67900000D01*
X149650000Y-69100000D02*
X150350000Y-69100000D01*
X141400000Y-69100000D02*
X142100000Y-69100000D01*
X142100000Y-67900000D02*
X141400000Y-67900000D01*
X164900000Y-64150000D02*
X164900000Y-64850000D01*
X166100000Y-64850000D02*
X166100000Y-64150000D01*
X175800000Y-56550000D02*
X175800000Y-57250000D01*
X177000000Y-57250000D02*
X177000000Y-56550000D01*
X167850000Y-67200000D02*
X167150000Y-67200000D01*
X167150000Y-68400000D02*
X167850000Y-68400000D01*
X172450000Y-56900000D02*
X173150000Y-56900000D01*
X173150000Y-55700000D02*
X172450000Y-55700000D01*
X171950000Y-65600000D02*
X171250000Y-65600000D01*
X171250000Y-66800000D02*
X171950000Y-66800000D01*
X176050000Y-67100000D02*
X175350000Y-67100000D01*
X175350000Y-68300000D02*
X176050000Y-68300000D01*
X168050000Y-56900000D02*
X168750000Y-56900000D01*
X168750000Y-55700000D02*
X168050000Y-55700000D01*
X137250000Y-69175000D02*
X138250000Y-69175000D01*
X138250000Y-67825000D02*
X137250000Y-67825000D01*
X165450000Y-60400000D02*
X166150000Y-60400000D01*
X166150000Y-59200000D02*
X165450000Y-59200000D01*
X177100000Y-62050000D02*
X177100000Y-61350000D01*
X175900000Y-61350000D02*
X175900000Y-62050000D01*
X171950000Y-67100000D02*
X171250000Y-67100000D01*
X171250000Y-68300000D02*
X171950000Y-68300000D01*
X153100000Y-76400000D02*
X152400000Y-76400000D01*
X152400000Y-77600000D02*
X153100000Y-77600000D01*
X153100000Y-81150000D02*
X152400000Y-81150000D01*
X152400000Y-82350000D02*
X153100000Y-82350000D01*
X204500000Y-61050000D02*
X203500000Y-61050000D01*
X203500000Y-59350000D02*
X204500000Y-59350000D01*
X173050000Y-60800000D02*
X173050000Y-61800000D01*
X171350000Y-61800000D02*
X171350000Y-60800000D01*
X171050000Y-60800000D02*
X171050000Y-61800000D01*
X169350000Y-61800000D02*
X169350000Y-60800000D01*
X93088000Y-60698000D02*
X93088000Y-58920000D01*
X81912000Y-60698000D02*
X81912000Y-58920000D01*
X87500000Y-60698000D02*
X87500000Y-59174000D01*
X95628000Y-58158000D02*
X95628000Y-58920000D01*
X95628000Y-56126000D02*
X95628000Y-57142000D01*
X95628000Y-57142000D02*
X95628000Y-56888000D01*
X95628000Y-53586000D02*
X95628000Y-54856000D01*
X95628000Y-54856000D02*
X95628000Y-55110000D01*
X95628000Y-51046000D02*
X95628000Y-52316000D01*
X95628000Y-48506000D02*
X95628000Y-49776000D01*
X95628000Y-45966000D02*
X95628000Y-47236000D01*
X95628000Y-43426000D02*
X95628000Y-44696000D01*
X95628000Y-40886000D02*
X95628000Y-42156000D01*
X95628000Y-38346000D02*
X95628000Y-39616000D01*
X79372000Y-57650000D02*
X79372000Y-58666000D01*
X79372000Y-55110000D02*
X79372000Y-56380000D01*
X79372000Y-56380000D02*
X79372000Y-56634000D01*
X79372000Y-52570000D02*
X79372000Y-53840000D01*
X79372000Y-49522000D02*
X79372000Y-51046000D01*
X79372000Y-46474000D02*
X79372000Y-47998000D01*
X79372000Y-43172000D02*
X79372000Y-44950000D01*
X79372000Y-40632000D02*
X79372000Y-41902000D01*
X79372000Y-38346000D02*
X79372000Y-39362000D01*
X79372000Y-39362000D02*
X79372000Y-39616000D01*
X80134000Y-38346000D02*
X79372000Y-38346000D01*
X81658000Y-38346000D02*
X80896000Y-38346000D01*
X84198000Y-38346000D02*
X82928000Y-38346000D01*
X86738000Y-38346000D02*
X85214000Y-38346000D01*
X89024000Y-38346000D02*
X87754000Y-38346000D01*
X91310000Y-38346000D02*
X90040000Y-38346000D01*
X93596000Y-38346000D02*
X92326000Y-38346000D01*
X95628000Y-38346000D02*
X94612000Y-38346000D01*
X81404000Y-58920000D02*
X82928000Y-58920000D01*
X82928000Y-58920000D02*
X82674000Y-58920000D01*
X79372000Y-58920000D02*
X80134000Y-58920000D01*
X80134000Y-58920000D02*
X80388000Y-58920000D01*
X85722000Y-58920000D02*
X84452000Y-58920000D01*
X88262000Y-58920000D02*
X86992000Y-58920000D01*
X90802000Y-58920000D02*
X89278000Y-58920000D01*
X93596000Y-58920000D02*
X92326000Y-58920000D01*
X92326000Y-58920000D02*
X92072000Y-58920000D01*
X92072000Y-58920000D02*
X91818000Y-58920000D01*
X95628000Y-58920000D02*
X94866000Y-58920000D01*
X94866000Y-58920000D02*
X94612000Y-58920000D01*
X89278000Y-44442000D02*
G75*
G03X89278000Y-44442000I-1778000J0D01*
G01*
X62588000Y-60698000D02*
X62588000Y-58920000D01*
X51412000Y-60698000D02*
X51412000Y-58920000D01*
X57000000Y-60698000D02*
X57000000Y-59174000D01*
X65128000Y-58158000D02*
X65128000Y-58920000D01*
X65128000Y-56126000D02*
X65128000Y-57142000D01*
X65128000Y-57142000D02*
X65128000Y-56888000D01*
X65128000Y-53586000D02*
X65128000Y-54856000D01*
X65128000Y-54856000D02*
X65128000Y-55110000D01*
X65128000Y-51046000D02*
X65128000Y-52316000D01*
X65128000Y-48506000D02*
X65128000Y-49776000D01*
X65128000Y-45966000D02*
X65128000Y-47236000D01*
X65128000Y-43426000D02*
X65128000Y-44696000D01*
X65128000Y-40886000D02*
X65128000Y-42156000D01*
X65128000Y-38346000D02*
X65128000Y-39616000D01*
X48872000Y-57650000D02*
X48872000Y-58666000D01*
X48872000Y-55110000D02*
X48872000Y-56380000D01*
X48872000Y-56380000D02*
X48872000Y-56634000D01*
X48872000Y-52570000D02*
X48872000Y-53840000D01*
X48872000Y-49522000D02*
X48872000Y-51046000D01*
X48872000Y-46474000D02*
X48872000Y-47998000D01*
X48872000Y-43172000D02*
X48872000Y-44950000D01*
X48872000Y-40632000D02*
X48872000Y-41902000D01*
X48872000Y-38346000D02*
X48872000Y-39362000D01*
X48872000Y-39362000D02*
X48872000Y-39616000D01*
X49634000Y-38346000D02*
X48872000Y-38346000D01*
X51158000Y-38346000D02*
X50396000Y-38346000D01*
X53698000Y-38346000D02*
X52428000Y-38346000D01*
X56238000Y-38346000D02*
X54714000Y-38346000D01*
X58524000Y-38346000D02*
X57254000Y-38346000D01*
X60810000Y-38346000D02*
X59540000Y-38346000D01*
X63096000Y-38346000D02*
X61826000Y-38346000D01*
X65128000Y-38346000D02*
X64112000Y-38346000D01*
X50904000Y-58920000D02*
X52428000Y-58920000D01*
X52428000Y-58920000D02*
X52174000Y-58920000D01*
X48872000Y-58920000D02*
X49634000Y-58920000D01*
X49634000Y-58920000D02*
X49888000Y-58920000D01*
X55222000Y-58920000D02*
X53952000Y-58920000D01*
X57762000Y-58920000D02*
X56492000Y-58920000D01*
X60302000Y-58920000D02*
X58778000Y-58920000D01*
X63096000Y-58920000D02*
X61826000Y-58920000D01*
X61826000Y-58920000D02*
X61572000Y-58920000D01*
X61572000Y-58920000D02*
X61318000Y-58920000D01*
X65128000Y-58920000D02*
X64366000Y-58920000D01*
X64366000Y-58920000D02*
X64112000Y-58920000D01*
X58778000Y-44442000D02*
G75*
G03X58778000Y-44442000I-1778000J0D01*
G01*
X51412000Y-77302000D02*
X51412000Y-79080000D01*
X62588000Y-77302000D02*
X62588000Y-79080000D01*
X57000000Y-77302000D02*
X57000000Y-78826000D01*
X48872000Y-79842000D02*
X48872000Y-79080000D01*
X48872000Y-81874000D02*
X48872000Y-80858000D01*
X48872000Y-80858000D02*
X48872000Y-81112000D01*
X48872000Y-84414000D02*
X48872000Y-83144000D01*
X48872000Y-83144000D02*
X48872000Y-82890000D01*
X48872000Y-86954000D02*
X48872000Y-85684000D01*
X48872000Y-89494000D02*
X48872000Y-88224000D01*
X48872000Y-92034000D02*
X48872000Y-90764000D01*
X48872000Y-94574000D02*
X48872000Y-93304000D01*
X48872000Y-97114000D02*
X48872000Y-95844000D01*
X48872000Y-99654000D02*
X48872000Y-98384000D01*
X65128000Y-80350000D02*
X65128000Y-79334000D01*
X65128000Y-82890000D02*
X65128000Y-81620000D01*
X65128000Y-81620000D02*
X65128000Y-81366000D01*
X65128000Y-85430000D02*
X65128000Y-84160000D01*
X65128000Y-88478000D02*
X65128000Y-86954000D01*
X65128000Y-91526000D02*
X65128000Y-90002000D01*
X65128000Y-94828000D02*
X65128000Y-93050000D01*
X65128000Y-97368000D02*
X65128000Y-96098000D01*
X65128000Y-99654000D02*
X65128000Y-98638000D01*
X65128000Y-98638000D02*
X65128000Y-98384000D01*
X64366000Y-99654000D02*
X65128000Y-99654000D01*
X62842000Y-99654000D02*
X63604000Y-99654000D01*
X60302000Y-99654000D02*
X61572000Y-99654000D01*
X57762000Y-99654000D02*
X59286000Y-99654000D01*
X55476000Y-99654000D02*
X56746000Y-99654000D01*
X53190000Y-99654000D02*
X54460000Y-99654000D01*
X50904000Y-99654000D02*
X52174000Y-99654000D01*
X48872000Y-99654000D02*
X49888000Y-99654000D01*
X63096000Y-79080000D02*
X61572000Y-79080000D01*
X61572000Y-79080000D02*
X61826000Y-79080000D01*
X65128000Y-79080000D02*
X64366000Y-79080000D01*
X64366000Y-79080000D02*
X64112000Y-79080000D01*
X58778000Y-79080000D02*
X60048000Y-79080000D01*
X56238000Y-79080000D02*
X57508000Y-79080000D01*
X53698000Y-79080000D02*
X55222000Y-79080000D01*
X50904000Y-79080000D02*
X52174000Y-79080000D01*
X52174000Y-79080000D02*
X52428000Y-79080000D01*
X52428000Y-79080000D02*
X52682000Y-79080000D01*
X48872000Y-79080000D02*
X49634000Y-79080000D01*
X49634000Y-79080000D02*
X49888000Y-79080000D01*
X58778000Y-93558000D02*
G75*
G03X58778000Y-93558000I-1778000J0D01*
G01*
X81912000Y-77302000D02*
X81912000Y-79080000D01*
X93088000Y-77302000D02*
X93088000Y-79080000D01*
X87500000Y-77302000D02*
X87500000Y-78826000D01*
X79372000Y-79842000D02*
X79372000Y-79080000D01*
X79372000Y-81874000D02*
X79372000Y-80858000D01*
X79372000Y-80858000D02*
X79372000Y-81112000D01*
X79372000Y-84414000D02*
X79372000Y-83144000D01*
X79372000Y-83144000D02*
X79372000Y-82890000D01*
X79372000Y-86954000D02*
X79372000Y-85684000D01*
X79372000Y-89494000D02*
X79372000Y-88224000D01*
X79372000Y-92034000D02*
X79372000Y-90764000D01*
X79372000Y-94574000D02*
X79372000Y-93304000D01*
X79372000Y-97114000D02*
X79372000Y-95844000D01*
X79372000Y-99654000D02*
X79372000Y-98384000D01*
X95628000Y-80350000D02*
X95628000Y-79334000D01*
X95628000Y-82890000D02*
X95628000Y-81620000D01*
X95628000Y-81620000D02*
X95628000Y-81366000D01*
X95628000Y-85430000D02*
X95628000Y-84160000D01*
X95628000Y-88478000D02*
X95628000Y-86954000D01*
X95628000Y-91526000D02*
X95628000Y-90002000D01*
X95628000Y-94828000D02*
X95628000Y-93050000D01*
X95628000Y-97368000D02*
X95628000Y-96098000D01*
X95628000Y-99654000D02*
X95628000Y-98638000D01*
X95628000Y-98638000D02*
X95628000Y-98384000D01*
X94866000Y-99654000D02*
X95628000Y-99654000D01*
X93342000Y-99654000D02*
X94104000Y-99654000D01*
X90802000Y-99654000D02*
X92072000Y-99654000D01*
X88262000Y-99654000D02*
X89786000Y-99654000D01*
X85976000Y-99654000D02*
X87246000Y-99654000D01*
X83690000Y-99654000D02*
X84960000Y-99654000D01*
X81404000Y-99654000D02*
X82674000Y-99654000D01*
X79372000Y-99654000D02*
X80388000Y-99654000D01*
X93596000Y-79080000D02*
X92072000Y-79080000D01*
X92072000Y-79080000D02*
X92326000Y-79080000D01*
X95628000Y-79080000D02*
X94866000Y-79080000D01*
X94866000Y-79080000D02*
X94612000Y-79080000D01*
X89278000Y-79080000D02*
X90548000Y-79080000D01*
X86738000Y-79080000D02*
X88008000Y-79080000D01*
X84198000Y-79080000D02*
X85722000Y-79080000D01*
X81404000Y-79080000D02*
X82674000Y-79080000D01*
X82674000Y-79080000D02*
X82928000Y-79080000D01*
X82928000Y-79080000D02*
X83182000Y-79080000D01*
X79372000Y-79080000D02*
X80134000Y-79080000D01*
X80134000Y-79080000D02*
X80388000Y-79080000D01*
X89278000Y-93558000D02*
G75*
G03X89278000Y-93558000I-1778000J0D01*
G01*
X112412000Y-77302000D02*
X112412000Y-79080000D01*
X123588000Y-77302000D02*
X123588000Y-79080000D01*
X118000000Y-77302000D02*
X118000000Y-78826000D01*
X109872000Y-79842000D02*
X109872000Y-79080000D01*
X109872000Y-81874000D02*
X109872000Y-80858000D01*
X109872000Y-80858000D02*
X109872000Y-81112000D01*
X109872000Y-84414000D02*
X109872000Y-83144000D01*
X109872000Y-83144000D02*
X109872000Y-82890000D01*
X109872000Y-86954000D02*
X109872000Y-85684000D01*
X109872000Y-89494000D02*
X109872000Y-88224000D01*
X109872000Y-92034000D02*
X109872000Y-90764000D01*
X109872000Y-94574000D02*
X109872000Y-93304000D01*
X109872000Y-97114000D02*
X109872000Y-95844000D01*
X109872000Y-99654000D02*
X109872000Y-98384000D01*
X126128000Y-80350000D02*
X126128000Y-79334000D01*
X126128000Y-82890000D02*
X126128000Y-81620000D01*
X126128000Y-81620000D02*
X126128000Y-81366000D01*
X126128000Y-85430000D02*
X126128000Y-84160000D01*
X126128000Y-88478000D02*
X126128000Y-86954000D01*
X126128000Y-91526000D02*
X126128000Y-90002000D01*
X126128000Y-94828000D02*
X126128000Y-93050000D01*
X126128000Y-97368000D02*
X126128000Y-96098000D01*
X126128000Y-99654000D02*
X126128000Y-98638000D01*
X126128000Y-98638000D02*
X126128000Y-98384000D01*
X125366000Y-99654000D02*
X126128000Y-99654000D01*
X123842000Y-99654000D02*
X124604000Y-99654000D01*
X121302000Y-99654000D02*
X122572000Y-99654000D01*
X118762000Y-99654000D02*
X120286000Y-99654000D01*
X116476000Y-99654000D02*
X117746000Y-99654000D01*
X114190000Y-99654000D02*
X115460000Y-99654000D01*
X111904000Y-99654000D02*
X113174000Y-99654000D01*
X109872000Y-99654000D02*
X110888000Y-99654000D01*
X124096000Y-79080000D02*
X122572000Y-79080000D01*
X122572000Y-79080000D02*
X122826000Y-79080000D01*
X126128000Y-79080000D02*
X125366000Y-79080000D01*
X125366000Y-79080000D02*
X125112000Y-79080000D01*
X119778000Y-79080000D02*
X121048000Y-79080000D01*
X117238000Y-79080000D02*
X118508000Y-79080000D01*
X114698000Y-79080000D02*
X116222000Y-79080000D01*
X111904000Y-79080000D02*
X113174000Y-79080000D01*
X113174000Y-79080000D02*
X113428000Y-79080000D01*
X113428000Y-79080000D02*
X113682000Y-79080000D01*
X109872000Y-79080000D02*
X110634000Y-79080000D01*
X110634000Y-79080000D02*
X110888000Y-79080000D01*
X119778000Y-93558000D02*
G75*
G03X119778000Y-93558000I-1778000J0D01*
G01*
X123588000Y-60698000D02*
X123588000Y-58920000D01*
X112412000Y-60698000D02*
X112412000Y-58920000D01*
X118000000Y-60698000D02*
X118000000Y-59174000D01*
X126128000Y-58158000D02*
X126128000Y-58920000D01*
X126128000Y-56126000D02*
X126128000Y-57142000D01*
X126128000Y-57142000D02*
X126128000Y-56888000D01*
X126128000Y-53586000D02*
X126128000Y-54856000D01*
X126128000Y-54856000D02*
X126128000Y-55110000D01*
X126128000Y-51046000D02*
X126128000Y-52316000D01*
X126128000Y-48506000D02*
X126128000Y-49776000D01*
X126128000Y-45966000D02*
X126128000Y-47236000D01*
X126128000Y-43426000D02*
X126128000Y-44696000D01*
X126128000Y-40886000D02*
X126128000Y-42156000D01*
X126128000Y-38346000D02*
X126128000Y-39616000D01*
X109872000Y-57650000D02*
X109872000Y-58666000D01*
X109872000Y-55110000D02*
X109872000Y-56380000D01*
X109872000Y-56380000D02*
X109872000Y-56634000D01*
X109872000Y-52570000D02*
X109872000Y-53840000D01*
X109872000Y-49522000D02*
X109872000Y-51046000D01*
X109872000Y-46474000D02*
X109872000Y-47998000D01*
X109872000Y-43172000D02*
X109872000Y-44950000D01*
X109872000Y-40632000D02*
X109872000Y-41902000D01*
X109872000Y-38346000D02*
X109872000Y-39362000D01*
X109872000Y-39362000D02*
X109872000Y-39616000D01*
X110634000Y-38346000D02*
X109872000Y-38346000D01*
X112158000Y-38346000D02*
X111396000Y-38346000D01*
X114698000Y-38346000D02*
X113428000Y-38346000D01*
X117238000Y-38346000D02*
X115714000Y-38346000D01*
X119524000Y-38346000D02*
X118254000Y-38346000D01*
X121810000Y-38346000D02*
X120540000Y-38346000D01*
X124096000Y-38346000D02*
X122826000Y-38346000D01*
X126128000Y-38346000D02*
X125112000Y-38346000D01*
X111904000Y-58920000D02*
X113428000Y-58920000D01*
X113428000Y-58920000D02*
X113174000Y-58920000D01*
X109872000Y-58920000D02*
X110634000Y-58920000D01*
X110634000Y-58920000D02*
X110888000Y-58920000D01*
X116222000Y-58920000D02*
X114952000Y-58920000D01*
X118762000Y-58920000D02*
X117492000Y-58920000D01*
X121302000Y-58920000D02*
X119778000Y-58920000D01*
X124096000Y-58920000D02*
X122826000Y-58920000D01*
X122826000Y-58920000D02*
X122572000Y-58920000D01*
X122572000Y-58920000D02*
X122318000Y-58920000D01*
X126128000Y-58920000D02*
X125366000Y-58920000D01*
X125366000Y-58920000D02*
X125112000Y-58920000D01*
X119778000Y-44442000D02*
G75*
G03X119778000Y-44442000I-1778000J0D01*
G01*
X208442857Y-58857143D02*
X208490476Y-58904762D01*
X208633333Y-58952381D01*
X208728571Y-58952381D01*
X208871429Y-58904762D01*
X208966667Y-58809524D01*
X209014286Y-58714286D01*
X209061905Y-58523810D01*
X209061905Y-58380952D01*
X209014286Y-58190476D01*
X208966667Y-58095238D01*
X208871429Y-58000000D01*
X208728571Y-57952381D01*
X208633333Y-57952381D01*
X208490476Y-58000000D01*
X208442857Y-58047619D01*
X207490476Y-58952381D02*
X208061905Y-58952381D01*
X207776191Y-58952381D02*
X207776191Y-57952381D01*
X207871429Y-58095238D01*
X207966667Y-58190476D01*
X208061905Y-58238095D01*
X206871429Y-57952381D02*
X206776190Y-57952381D01*
X206680952Y-58000000D01*
X206633333Y-58047619D01*
X206585714Y-58142857D01*
X206538095Y-58333333D01*
X206538095Y-58571429D01*
X206585714Y-58761905D01*
X206633333Y-58857143D01*
X206680952Y-58904762D01*
X206776190Y-58952381D01*
X206871429Y-58952381D01*
X206966667Y-58904762D01*
X207014286Y-58857143D01*
X207061905Y-58761905D01*
X207109524Y-58571429D01*
X207109524Y-58333333D01*
X207061905Y-58142857D01*
X207014286Y-58047619D01*
X206966667Y-58000000D01*
X206871429Y-57952381D01*
X150642857Y-66957143D02*
X150690476Y-67004762D01*
X150833333Y-67052381D01*
X150928571Y-67052381D01*
X151071429Y-67004762D01*
X151166667Y-66909524D01*
X151214286Y-66814286D01*
X151261905Y-66623810D01*
X151261905Y-66480952D01*
X151214286Y-66290476D01*
X151166667Y-66195238D01*
X151071429Y-66100000D01*
X150928571Y-66052381D01*
X150833333Y-66052381D01*
X150690476Y-66100000D01*
X150642857Y-66147619D01*
X150261905Y-66147619D02*
X150214286Y-66100000D01*
X150119048Y-66052381D01*
X149880952Y-66052381D01*
X149785714Y-66100000D01*
X149738095Y-66147619D01*
X149690476Y-66242857D01*
X149690476Y-66338095D01*
X149738095Y-66480952D01*
X150309524Y-67052381D01*
X149690476Y-67052381D01*
X149357143Y-66052381D02*
X148738095Y-66052381D01*
X149071429Y-66433333D01*
X148928571Y-66433333D01*
X148833333Y-66480952D01*
X148785714Y-66528571D01*
X148738095Y-66623810D01*
X148738095Y-66861905D01*
X148785714Y-66957143D01*
X148833333Y-67004762D01*
X148928571Y-67052381D01*
X149214286Y-67052381D01*
X149309524Y-67004762D01*
X149357143Y-66957143D01*
X145442857Y-68757143D02*
X145490476Y-68804762D01*
X145633333Y-68852381D01*
X145728571Y-68852381D01*
X145871429Y-68804762D01*
X145966667Y-68709524D01*
X146014286Y-68614286D01*
X146061905Y-68423810D01*
X146061905Y-68280952D01*
X146014286Y-68090476D01*
X145966667Y-67995238D01*
X145871429Y-67900000D01*
X145728571Y-67852381D01*
X145633333Y-67852381D01*
X145490476Y-67900000D01*
X145442857Y-67947619D01*
X145061905Y-67947619D02*
X145014286Y-67900000D01*
X144919048Y-67852381D01*
X144680952Y-67852381D01*
X144585714Y-67900000D01*
X144538095Y-67947619D01*
X144490476Y-68042857D01*
X144490476Y-68138095D01*
X144538095Y-68280952D01*
X145109524Y-68852381D01*
X144490476Y-68852381D01*
X143633333Y-68185714D02*
X143633333Y-68852381D01*
X143871429Y-67804762D02*
X144109524Y-68519048D01*
X143490476Y-68519048D01*
X167357143Y-63857143D02*
X167404762Y-63809524D01*
X167452381Y-63666667D01*
X167452381Y-63571429D01*
X167404762Y-63428571D01*
X167309524Y-63333333D01*
X167214286Y-63285714D01*
X167023810Y-63238095D01*
X166880952Y-63238095D01*
X166690476Y-63285714D01*
X166595238Y-63333333D01*
X166500000Y-63428571D01*
X166452381Y-63571429D01*
X166452381Y-63666667D01*
X166500000Y-63809524D01*
X166547619Y-63857143D01*
X166452381Y-64190476D02*
X166452381Y-64809524D01*
X166833333Y-64476190D01*
X166833333Y-64619048D01*
X166880952Y-64714286D01*
X166928571Y-64761905D01*
X167023810Y-64809524D01*
X167261905Y-64809524D01*
X167357143Y-64761905D01*
X167404762Y-64714286D01*
X167452381Y-64619048D01*
X167452381Y-64333333D01*
X167404762Y-64238095D01*
X167357143Y-64190476D01*
X166880952Y-65380952D02*
X166833333Y-65285714D01*
X166785714Y-65238095D01*
X166690476Y-65190476D01*
X166642857Y-65190476D01*
X166547619Y-65238095D01*
X166500000Y-65285714D01*
X166452381Y-65380952D01*
X166452381Y-65571429D01*
X166500000Y-65666667D01*
X166547619Y-65714286D01*
X166642857Y-65761905D01*
X166690476Y-65761905D01*
X166785714Y-65714286D01*
X166833333Y-65666667D01*
X166880952Y-65571429D01*
X166880952Y-65380952D01*
X166928571Y-65285714D01*
X166976190Y-65238095D01*
X167071429Y-65190476D01*
X167261905Y-65190476D01*
X167357143Y-65238095D01*
X167404762Y-65285714D01*
X167452381Y-65380952D01*
X167452381Y-65571429D01*
X167404762Y-65666667D01*
X167357143Y-65714286D01*
X167261905Y-65761905D01*
X167071429Y-65761905D01*
X166976190Y-65714286D01*
X166928571Y-65666667D01*
X166880952Y-65571429D01*
X178357143Y-55657143D02*
X178404762Y-55609524D01*
X178452381Y-55466667D01*
X178452381Y-55371429D01*
X178404762Y-55228571D01*
X178309524Y-55133333D01*
X178214286Y-55085714D01*
X178023810Y-55038095D01*
X177880952Y-55038095D01*
X177690476Y-55085714D01*
X177595238Y-55133333D01*
X177500000Y-55228571D01*
X177452381Y-55371429D01*
X177452381Y-55466667D01*
X177500000Y-55609524D01*
X177547619Y-55657143D01*
X177452381Y-55990476D02*
X177452381Y-56609524D01*
X177833333Y-56276190D01*
X177833333Y-56419048D01*
X177880952Y-56514286D01*
X177928571Y-56561905D01*
X178023810Y-56609524D01*
X178261905Y-56609524D01*
X178357143Y-56561905D01*
X178404762Y-56514286D01*
X178452381Y-56419048D01*
X178452381Y-56133333D01*
X178404762Y-56038095D01*
X178357143Y-55990476D01*
X178452381Y-57085714D02*
X178452381Y-57276190D01*
X178404762Y-57371429D01*
X178357143Y-57419048D01*
X178214286Y-57514286D01*
X178023810Y-57561905D01*
X177642857Y-57561905D01*
X177547619Y-57514286D01*
X177500000Y-57466667D01*
X177452381Y-57371429D01*
X177452381Y-57180952D01*
X177500000Y-57085714D01*
X177547619Y-57038095D01*
X177642857Y-56990476D01*
X177880952Y-56990476D01*
X177976190Y-57038095D01*
X178023810Y-57085714D01*
X178071429Y-57180952D01*
X178071429Y-57371429D01*
X178023810Y-57466667D01*
X177976190Y-57514286D01*
X177880952Y-57561905D01*
X165242857Y-67957143D02*
X165290476Y-68004762D01*
X165433333Y-68052381D01*
X165528571Y-68052381D01*
X165671429Y-68004762D01*
X165766667Y-67909524D01*
X165814286Y-67814286D01*
X165861905Y-67623810D01*
X165861905Y-67480952D01*
X165814286Y-67290476D01*
X165766667Y-67195238D01*
X165671429Y-67100000D01*
X165528571Y-67052381D01*
X165433333Y-67052381D01*
X165290476Y-67100000D01*
X165242857Y-67147619D01*
X164385714Y-67385714D02*
X164385714Y-68052381D01*
X164623810Y-67004762D02*
X164861905Y-67719048D01*
X164242857Y-67719048D01*
X163338095Y-68052381D02*
X163909524Y-68052381D01*
X163623810Y-68052381D02*
X163623810Y-67052381D01*
X163719048Y-67195238D01*
X163814286Y-67290476D01*
X163909524Y-67338095D01*
X173442857Y-58157143D02*
X173490476Y-58204762D01*
X173633333Y-58252381D01*
X173728571Y-58252381D01*
X173871429Y-58204762D01*
X173966667Y-58109524D01*
X174014286Y-58014286D01*
X174061905Y-57823810D01*
X174061905Y-57680952D01*
X174014286Y-57490476D01*
X173966667Y-57395238D01*
X173871429Y-57300000D01*
X173728571Y-57252381D01*
X173633333Y-57252381D01*
X173490476Y-57300000D01*
X173442857Y-57347619D01*
X172585714Y-57585714D02*
X172585714Y-58252381D01*
X172823810Y-57204762D02*
X173061905Y-57919048D01*
X172442857Y-57919048D01*
X172109524Y-57347619D02*
X172061905Y-57300000D01*
X171966667Y-57252381D01*
X171728571Y-57252381D01*
X171633333Y-57300000D01*
X171585714Y-57347619D01*
X171538095Y-57442857D01*
X171538095Y-57538095D01*
X171585714Y-57680952D01*
X172157143Y-58252381D01*
X171538095Y-58252381D01*
X172142857Y-65157143D02*
X172190476Y-65204762D01*
X172333333Y-65252381D01*
X172428571Y-65252381D01*
X172571429Y-65204762D01*
X172666667Y-65109524D01*
X172714286Y-65014286D01*
X172761905Y-64823810D01*
X172761905Y-64680952D01*
X172714286Y-64490476D01*
X172666667Y-64395238D01*
X172571429Y-64300000D01*
X172428571Y-64252381D01*
X172333333Y-64252381D01*
X172190476Y-64300000D01*
X172142857Y-64347619D01*
X171285714Y-64585714D02*
X171285714Y-65252381D01*
X171523810Y-64204762D02*
X171761905Y-64919048D01*
X171142857Y-64919048D01*
X170857143Y-64252381D02*
X170238095Y-64252381D01*
X170571429Y-64633333D01*
X170428571Y-64633333D01*
X170333333Y-64680952D01*
X170285714Y-64728571D01*
X170238095Y-64823810D01*
X170238095Y-65061905D01*
X170285714Y-65157143D01*
X170333333Y-65204762D01*
X170428571Y-65252381D01*
X170714286Y-65252381D01*
X170809524Y-65204762D01*
X170857143Y-65157143D01*
X176342857Y-66657143D02*
X176390476Y-66704762D01*
X176533333Y-66752381D01*
X176628571Y-66752381D01*
X176771429Y-66704762D01*
X176866667Y-66609524D01*
X176914286Y-66514286D01*
X176961905Y-66323810D01*
X176961905Y-66180952D01*
X176914286Y-65990476D01*
X176866667Y-65895238D01*
X176771429Y-65800000D01*
X176628571Y-65752381D01*
X176533333Y-65752381D01*
X176390476Y-65800000D01*
X176342857Y-65847619D01*
X175485714Y-66085714D02*
X175485714Y-66752381D01*
X175723810Y-65704762D02*
X175961905Y-66419048D01*
X175342857Y-66419048D01*
X174533333Y-66085714D02*
X174533333Y-66752381D01*
X174771429Y-65704762D02*
X175009524Y-66419048D01*
X174390476Y-66419048D01*
X169042857Y-58157143D02*
X169090476Y-58204762D01*
X169233333Y-58252381D01*
X169328571Y-58252381D01*
X169471429Y-58204762D01*
X169566667Y-58109524D01*
X169614286Y-58014286D01*
X169661905Y-57823810D01*
X169661905Y-57680952D01*
X169614286Y-57490476D01*
X169566667Y-57395238D01*
X169471429Y-57300000D01*
X169328571Y-57252381D01*
X169233333Y-57252381D01*
X169090476Y-57300000D01*
X169042857Y-57347619D01*
X168185714Y-57585714D02*
X168185714Y-58252381D01*
X168423810Y-57204762D02*
X168661905Y-57919048D01*
X168042857Y-57919048D01*
X167185714Y-57252381D02*
X167661905Y-57252381D01*
X167709524Y-57728571D01*
X167661905Y-57680952D01*
X167566667Y-57633333D01*
X167328571Y-57633333D01*
X167233333Y-57680952D01*
X167185714Y-57728571D01*
X167138095Y-57823810D01*
X167138095Y-58061905D01*
X167185714Y-58157143D01*
X167233333Y-58204762D01*
X167328571Y-58252381D01*
X167566667Y-58252381D01*
X167661905Y-58204762D01*
X167709524Y-58157143D01*
X138392857Y-67052381D02*
X138726191Y-66576190D01*
X138964286Y-67052381D02*
X138964286Y-66052381D01*
X138583333Y-66052381D01*
X138488095Y-66100000D01*
X138440476Y-66147619D01*
X138392857Y-66242857D01*
X138392857Y-66385714D01*
X138440476Y-66480952D01*
X138488095Y-66528571D01*
X138583333Y-66576190D01*
X138964286Y-66576190D01*
X138011905Y-66147619D02*
X137964286Y-66100000D01*
X137869048Y-66052381D01*
X137630952Y-66052381D01*
X137535714Y-66100000D01*
X137488095Y-66147619D01*
X137440476Y-66242857D01*
X137440476Y-66338095D01*
X137488095Y-66480952D01*
X138059524Y-67052381D01*
X137440476Y-67052381D01*
X137059524Y-66147619D02*
X137011905Y-66100000D01*
X136916667Y-66052381D01*
X136678571Y-66052381D01*
X136583333Y-66100000D01*
X136535714Y-66147619D01*
X136488095Y-66242857D01*
X136488095Y-66338095D01*
X136535714Y-66480952D01*
X137107143Y-67052381D01*
X136488095Y-67052381D01*
X166442857Y-62057143D02*
X166490476Y-62104762D01*
X166633333Y-62152381D01*
X166728571Y-62152381D01*
X166871429Y-62104762D01*
X166966667Y-62009524D01*
X167014286Y-61914286D01*
X167061905Y-61723810D01*
X167061905Y-61580952D01*
X167014286Y-61390476D01*
X166966667Y-61295238D01*
X166871429Y-61200000D01*
X166728571Y-61152381D01*
X166633333Y-61152381D01*
X166490476Y-61200000D01*
X166442857Y-61247619D01*
X166109524Y-61152381D02*
X165490476Y-61152381D01*
X165823810Y-61533333D01*
X165680952Y-61533333D01*
X165585714Y-61580952D01*
X165538095Y-61628571D01*
X165490476Y-61723810D01*
X165490476Y-61961905D01*
X165538095Y-62057143D01*
X165585714Y-62104762D01*
X165680952Y-62152381D01*
X165966667Y-62152381D01*
X166061905Y-62104762D01*
X166109524Y-62057143D01*
X164585714Y-61152381D02*
X165061905Y-61152381D01*
X165109524Y-61628571D01*
X165061905Y-61580952D01*
X164966667Y-61533333D01*
X164728571Y-61533333D01*
X164633333Y-61580952D01*
X164585714Y-61628571D01*
X164538095Y-61723810D01*
X164538095Y-61961905D01*
X164585714Y-62057143D01*
X164633333Y-62104762D01*
X164728571Y-62152381D01*
X164966667Y-62152381D01*
X165061905Y-62104762D01*
X165109524Y-62057143D01*
X178757143Y-61057143D02*
X178804762Y-61009524D01*
X178852381Y-60866667D01*
X178852381Y-60771429D01*
X178804762Y-60628571D01*
X178709524Y-60533333D01*
X178614286Y-60485714D01*
X178423810Y-60438095D01*
X178280952Y-60438095D01*
X178090476Y-60485714D01*
X177995238Y-60533333D01*
X177900000Y-60628571D01*
X177852381Y-60771429D01*
X177852381Y-60866667D01*
X177900000Y-61009524D01*
X177947619Y-61057143D01*
X177852381Y-61390476D02*
X177852381Y-62009524D01*
X178233333Y-61676190D01*
X178233333Y-61819048D01*
X178280952Y-61914286D01*
X178328571Y-61961905D01*
X178423810Y-62009524D01*
X178661905Y-62009524D01*
X178757143Y-61961905D01*
X178804762Y-61914286D01*
X178852381Y-61819048D01*
X178852381Y-61533333D01*
X178804762Y-61438095D01*
X178757143Y-61390476D01*
X177852381Y-62866667D02*
X177852381Y-62676190D01*
X177900000Y-62580952D01*
X177947619Y-62533333D01*
X178090476Y-62438095D01*
X178280952Y-62390476D01*
X178661905Y-62390476D01*
X178757143Y-62438095D01*
X178804762Y-62485714D01*
X178852381Y-62580952D01*
X178852381Y-62771429D01*
X178804762Y-62866667D01*
X178757143Y-62914286D01*
X178661905Y-62961905D01*
X178423810Y-62961905D01*
X178328571Y-62914286D01*
X178280952Y-62866667D01*
X178233333Y-62771429D01*
X178233333Y-62580952D01*
X178280952Y-62485714D01*
X178328571Y-62438095D01*
X178423810Y-62390476D01*
X173342857Y-69557143D02*
X173390476Y-69604762D01*
X173533333Y-69652381D01*
X173628571Y-69652381D01*
X173771429Y-69604762D01*
X173866667Y-69509524D01*
X173914286Y-69414286D01*
X173961905Y-69223810D01*
X173961905Y-69080952D01*
X173914286Y-68890476D01*
X173866667Y-68795238D01*
X173771429Y-68700000D01*
X173628571Y-68652381D01*
X173533333Y-68652381D01*
X173390476Y-68700000D01*
X173342857Y-68747619D01*
X173009524Y-68652381D02*
X172390476Y-68652381D01*
X172723810Y-69033333D01*
X172580952Y-69033333D01*
X172485714Y-69080952D01*
X172438095Y-69128571D01*
X172390476Y-69223810D01*
X172390476Y-69461905D01*
X172438095Y-69557143D01*
X172485714Y-69604762D01*
X172580952Y-69652381D01*
X172866667Y-69652381D01*
X172961905Y-69604762D01*
X173009524Y-69557143D01*
X172057143Y-68652381D02*
X171390476Y-68652381D01*
X171819048Y-69652381D01*
X150242857Y-77357143D02*
X150290476Y-77404762D01*
X150433333Y-77452381D01*
X150528571Y-77452381D01*
X150671429Y-77404762D01*
X150766667Y-77309524D01*
X150814286Y-77214286D01*
X150861905Y-77023810D01*
X150861905Y-76880952D01*
X150814286Y-76690476D01*
X150766667Y-76595238D01*
X150671429Y-76500000D01*
X150528571Y-76452381D01*
X150433333Y-76452381D01*
X150290476Y-76500000D01*
X150242857Y-76547619D01*
X149909524Y-76452381D02*
X149242857Y-76452381D01*
X149671429Y-77452381D01*
X148957143Y-76452381D02*
X148338095Y-76452381D01*
X148671429Y-76833333D01*
X148528571Y-76833333D01*
X148433333Y-76880952D01*
X148385714Y-76928571D01*
X148338095Y-77023810D01*
X148338095Y-77261905D01*
X148385714Y-77357143D01*
X148433333Y-77404762D01*
X148528571Y-77452381D01*
X148814286Y-77452381D01*
X148909524Y-77404762D01*
X148957143Y-77357143D01*
X150242857Y-82157143D02*
X150290476Y-82204762D01*
X150433333Y-82252381D01*
X150528571Y-82252381D01*
X150671429Y-82204762D01*
X150766667Y-82109524D01*
X150814286Y-82014286D01*
X150861905Y-81823810D01*
X150861905Y-81680952D01*
X150814286Y-81490476D01*
X150766667Y-81395238D01*
X150671429Y-81300000D01*
X150528571Y-81252381D01*
X150433333Y-81252381D01*
X150290476Y-81300000D01*
X150242857Y-81347619D01*
X149909524Y-81252381D02*
X149242857Y-81252381D01*
X149671429Y-82252381D01*
X148719048Y-81680952D02*
X148814286Y-81633333D01*
X148861905Y-81585714D01*
X148909524Y-81490476D01*
X148909524Y-81442857D01*
X148861905Y-81347619D01*
X148814286Y-81300000D01*
X148719048Y-81252381D01*
X148528571Y-81252381D01*
X148433333Y-81300000D01*
X148385714Y-81347619D01*
X148338095Y-81442857D01*
X148338095Y-81490476D01*
X148385714Y-81585714D01*
X148433333Y-81633333D01*
X148528571Y-81680952D01*
X148719048Y-81680952D01*
X148814286Y-81728571D01*
X148861905Y-81776190D01*
X148909524Y-81871429D01*
X148909524Y-82061905D01*
X148861905Y-82157143D01*
X148814286Y-82204762D01*
X148719048Y-82252381D01*
X148528571Y-82252381D01*
X148433333Y-82204762D01*
X148385714Y-82157143D01*
X148338095Y-82061905D01*
X148338095Y-81871429D01*
X148385714Y-81776190D01*
X148433333Y-81728571D01*
X148528571Y-81680952D01*
X204642857Y-58557143D02*
X204690476Y-58604762D01*
X204833333Y-58652381D01*
X204928571Y-58652381D01*
X205071429Y-58604762D01*
X205166667Y-58509524D01*
X205214286Y-58414286D01*
X205261905Y-58223810D01*
X205261905Y-58080952D01*
X205214286Y-57890476D01*
X205166667Y-57795238D01*
X205071429Y-57700000D01*
X204928571Y-57652381D01*
X204833333Y-57652381D01*
X204690476Y-57700000D01*
X204642857Y-57747619D01*
X203690476Y-58652381D02*
X204261905Y-58652381D01*
X203976191Y-58652381D02*
X203976191Y-57652381D01*
X204071429Y-57795238D01*
X204166667Y-57890476D01*
X204261905Y-57938095D01*
X203309524Y-57747619D02*
X203261905Y-57700000D01*
X203166667Y-57652381D01*
X202928571Y-57652381D01*
X202833333Y-57700000D01*
X202785714Y-57747619D01*
X202738095Y-57842857D01*
X202738095Y-57938095D01*
X202785714Y-58080952D01*
X203357143Y-58652381D01*
X202738095Y-58652381D01*
X174357143Y-60457143D02*
X174404762Y-60409524D01*
X174452381Y-60266667D01*
X174452381Y-60171429D01*
X174404762Y-60028571D01*
X174309524Y-59933333D01*
X174214286Y-59885714D01*
X174023810Y-59838095D01*
X173880952Y-59838095D01*
X173690476Y-59885714D01*
X173595238Y-59933333D01*
X173500000Y-60028571D01*
X173452381Y-60171429D01*
X173452381Y-60266667D01*
X173500000Y-60409524D01*
X173547619Y-60457143D01*
X173452381Y-60790476D02*
X173452381Y-61409524D01*
X173833333Y-61076190D01*
X173833333Y-61219048D01*
X173880952Y-61314286D01*
X173928571Y-61361905D01*
X174023810Y-61409524D01*
X174261905Y-61409524D01*
X174357143Y-61361905D01*
X174404762Y-61314286D01*
X174452381Y-61219048D01*
X174452381Y-60933333D01*
X174404762Y-60838095D01*
X174357143Y-60790476D01*
X173547619Y-61790476D02*
X173500000Y-61838095D01*
X173452381Y-61933333D01*
X173452381Y-62171429D01*
X173500000Y-62266667D01*
X173547619Y-62314286D01*
X173642857Y-62361905D01*
X173738095Y-62361905D01*
X173880952Y-62314286D01*
X174452381Y-61742857D01*
X174452381Y-62361905D01*
X168857143Y-60557143D02*
X168904762Y-60509524D01*
X168952381Y-60366667D01*
X168952381Y-60271429D01*
X168904762Y-60128571D01*
X168809524Y-60033333D01*
X168714286Y-59985714D01*
X168523810Y-59938095D01*
X168380952Y-59938095D01*
X168190476Y-59985714D01*
X168095238Y-60033333D01*
X168000000Y-60128571D01*
X167952381Y-60271429D01*
X167952381Y-60366667D01*
X168000000Y-60509524D01*
X168047619Y-60557143D01*
X167952381Y-60890476D02*
X167952381Y-61509524D01*
X168333333Y-61176190D01*
X168333333Y-61319048D01*
X168380952Y-61414286D01*
X168428571Y-61461905D01*
X168523810Y-61509524D01*
X168761905Y-61509524D01*
X168857143Y-61461905D01*
X168904762Y-61414286D01*
X168952381Y-61319048D01*
X168952381Y-61033333D01*
X168904762Y-60938095D01*
X168857143Y-60890476D01*
X167952381Y-61842857D02*
X167952381Y-62461905D01*
X168333333Y-62128571D01*
X168333333Y-62271429D01*
X168380952Y-62366667D01*
X168428571Y-62414286D01*
X168523810Y-62461905D01*
X168761905Y-62461905D01*
X168857143Y-62414286D01*
X168904762Y-62366667D01*
X168952381Y-62271429D01*
X168952381Y-61985714D01*
X168904762Y-61890476D01*
X168857143Y-61842857D01*
X88611238Y-37115619D02*
X88706476Y-37068000D01*
X88801714Y-36972762D01*
X88944571Y-36829905D01*
X89039810Y-36782286D01*
X89135048Y-36782286D01*
X89087429Y-37020381D02*
X89182667Y-36972762D01*
X89277905Y-36877524D01*
X89325524Y-36687048D01*
X89325524Y-36353714D01*
X89277905Y-36163238D01*
X89182667Y-36068000D01*
X89087429Y-36020381D01*
X88896952Y-36020381D01*
X88801714Y-36068000D01*
X88706476Y-36163238D01*
X88658857Y-36353714D01*
X88658857Y-36687048D01*
X88706476Y-36877524D01*
X88801714Y-36972762D01*
X88896952Y-37020381D01*
X89087429Y-37020381D01*
X88087429Y-36448952D02*
X88182667Y-36401333D01*
X88230286Y-36353714D01*
X88277905Y-36258476D01*
X88277905Y-36210857D01*
X88230286Y-36115619D01*
X88182667Y-36068000D01*
X88087429Y-36020381D01*
X87896952Y-36020381D01*
X87801714Y-36068000D01*
X87754095Y-36115619D01*
X87706476Y-36210857D01*
X87706476Y-36258476D01*
X87754095Y-36353714D01*
X87801714Y-36401333D01*
X87896952Y-36448952D01*
X88087429Y-36448952D01*
X88182667Y-36496571D01*
X88230286Y-36544190D01*
X88277905Y-36639429D01*
X88277905Y-36829905D01*
X88230286Y-36925143D01*
X88182667Y-36972762D01*
X88087429Y-37020381D01*
X87896952Y-37020381D01*
X87801714Y-36972762D01*
X87754095Y-36925143D01*
X87706476Y-36829905D01*
X87706476Y-36639429D01*
X87754095Y-36544190D01*
X87801714Y-36496571D01*
X87896952Y-36448952D01*
X58111238Y-37115619D02*
X58206476Y-37068000D01*
X58301714Y-36972762D01*
X58444571Y-36829905D01*
X58539810Y-36782286D01*
X58635048Y-36782286D01*
X58587429Y-37020381D02*
X58682667Y-36972762D01*
X58777905Y-36877524D01*
X58825524Y-36687048D01*
X58825524Y-36353714D01*
X58777905Y-36163238D01*
X58682667Y-36068000D01*
X58587429Y-36020381D01*
X58396952Y-36020381D01*
X58301714Y-36068000D01*
X58206476Y-36163238D01*
X58158857Y-36353714D01*
X58158857Y-36687048D01*
X58206476Y-36877524D01*
X58301714Y-36972762D01*
X58396952Y-37020381D01*
X58587429Y-37020381D01*
X57825524Y-36020381D02*
X57206476Y-36020381D01*
X57539810Y-36401333D01*
X57396952Y-36401333D01*
X57301714Y-36448952D01*
X57254095Y-36496571D01*
X57206476Y-36591810D01*
X57206476Y-36829905D01*
X57254095Y-36925143D01*
X57301714Y-36972762D01*
X57396952Y-37020381D01*
X57682667Y-37020381D01*
X57777905Y-36972762D01*
X57825524Y-36925143D01*
X56079238Y-101979619D02*
X56174476Y-101932000D01*
X56269714Y-101836762D01*
X56412571Y-101693905D01*
X56507810Y-101646286D01*
X56603048Y-101646286D01*
X56555429Y-101884381D02*
X56650667Y-101836762D01*
X56745905Y-101741524D01*
X56793524Y-101551048D01*
X56793524Y-101217714D01*
X56745905Y-101027238D01*
X56650667Y-100932000D01*
X56555429Y-100884381D01*
X56364952Y-100884381D01*
X56269714Y-100932000D01*
X56174476Y-101027238D01*
X56126857Y-101217714D01*
X56126857Y-101551048D01*
X56174476Y-101741524D01*
X56269714Y-101836762D01*
X56364952Y-101884381D01*
X56555429Y-101884381D01*
X55222095Y-100884381D02*
X55698286Y-100884381D01*
X55745905Y-101360571D01*
X55698286Y-101312952D01*
X55603048Y-101265333D01*
X55364952Y-101265333D01*
X55269714Y-101312952D01*
X55222095Y-101360571D01*
X55174476Y-101455810D01*
X55174476Y-101693905D01*
X55222095Y-101789143D01*
X55269714Y-101836762D01*
X55364952Y-101884381D01*
X55603048Y-101884381D01*
X55698286Y-101836762D01*
X55745905Y-101789143D01*
X86579238Y-101979619D02*
X86674476Y-101932000D01*
X86769714Y-101836762D01*
X86912571Y-101693905D01*
X87007810Y-101646286D01*
X87103048Y-101646286D01*
X87055429Y-101884381D02*
X87150667Y-101836762D01*
X87245905Y-101741524D01*
X87293524Y-101551048D01*
X87293524Y-101217714D01*
X87245905Y-101027238D01*
X87150667Y-100932000D01*
X87055429Y-100884381D01*
X86864952Y-100884381D01*
X86769714Y-100932000D01*
X86674476Y-101027238D01*
X86626857Y-101217714D01*
X86626857Y-101551048D01*
X86674476Y-101741524D01*
X86769714Y-101836762D01*
X86864952Y-101884381D01*
X87055429Y-101884381D01*
X86150667Y-101884381D02*
X85960191Y-101884381D01*
X85864952Y-101836762D01*
X85817333Y-101789143D01*
X85722095Y-101646286D01*
X85674476Y-101455810D01*
X85674476Y-101074857D01*
X85722095Y-100979619D01*
X85769714Y-100932000D01*
X85864952Y-100884381D01*
X86055429Y-100884381D01*
X86150667Y-100932000D01*
X86198286Y-100979619D01*
X86245905Y-101074857D01*
X86245905Y-101312952D01*
X86198286Y-101408190D01*
X86150667Y-101455810D01*
X86055429Y-101503429D01*
X85864952Y-101503429D01*
X85769714Y-101455810D01*
X85722095Y-101408190D01*
X85674476Y-101312952D01*
X117079238Y-101979619D02*
X117174476Y-101932000D01*
X117269714Y-101836762D01*
X117412571Y-101693905D01*
X117507810Y-101646286D01*
X117603048Y-101646286D01*
X117555429Y-101884381D02*
X117650667Y-101836762D01*
X117745905Y-101741524D01*
X117793524Y-101551048D01*
X117793524Y-101217714D01*
X117745905Y-101027238D01*
X117650667Y-100932000D01*
X117555429Y-100884381D01*
X117364952Y-100884381D01*
X117269714Y-100932000D01*
X117174476Y-101027238D01*
X117126857Y-101217714D01*
X117126857Y-101551048D01*
X117174476Y-101741524D01*
X117269714Y-101836762D01*
X117364952Y-101884381D01*
X117555429Y-101884381D01*
X116793524Y-100884381D02*
X116126857Y-100884381D01*
X116555429Y-101884381D01*
X119111238Y-37115619D02*
X119206476Y-37068000D01*
X119301714Y-36972762D01*
X119444571Y-36829905D01*
X119539810Y-36782286D01*
X119635048Y-36782286D01*
X119587429Y-37020381D02*
X119682667Y-36972762D01*
X119777905Y-36877524D01*
X119825524Y-36687048D01*
X119825524Y-36353714D01*
X119777905Y-36163238D01*
X119682667Y-36068000D01*
X119587429Y-36020381D01*
X119396952Y-36020381D01*
X119301714Y-36068000D01*
X119206476Y-36163238D01*
X119158857Y-36353714D01*
X119158857Y-36687048D01*
X119206476Y-36877524D01*
X119301714Y-36972762D01*
X119396952Y-37020381D01*
X119587429Y-37020381D01*
X118301714Y-36020381D02*
X118492191Y-36020381D01*
X118587429Y-36068000D01*
X118635048Y-36115619D01*
X118730286Y-36258476D01*
X118777905Y-36448952D01*
X118777905Y-36829905D01*
X118730286Y-36925143D01*
X118682667Y-36972762D01*
X118587429Y-37020381D01*
X118396952Y-37020381D01*
X118301714Y-36972762D01*
X118254095Y-36925143D01*
X118206476Y-36829905D01*
X118206476Y-36591810D01*
X118254095Y-36496571D01*
X118301714Y-36448952D01*
X118396952Y-36401333D01*
X118587429Y-36401333D01*
X118682667Y-36448952D01*
X118730286Y-36496571D01*
X118777905Y-36591810D01*
M02*
