G04 #@! TF.FileFunction,Soldermask,Bot*
%FSLAX46Y46*%
G04 Gerber Fmt 4.6, Leading zero omitted, Abs format (unit mm)*
G04 Created by KiCad (PCBNEW 4.0.2+dfsg1-stable) date Tue 26 Sep 2017 03:44:04 AM EDT*
%MOMM*%
G01*
G04 APERTURE LIST*
%ADD10C,0.100000*%
%ADD11C,4.500000*%
%ADD12C,1.800000*%
%ADD13C,1.750000*%
%ADD14O,3.500120X4.501640*%
%ADD15C,2.000000*%
%ADD16O,3.000000X4.000000*%
%ADD17R,0.800000X0.750000*%
%ADD18R,0.750000X0.800000*%
%ADD19R,2.032000X2.032000*%
%ADD20O,2.032000X2.032000*%
%ADD21R,0.500000X0.900000*%
%ADD22C,1.397000*%
%ADD23R,1.050000X1.050000*%
%ADD24C,1.050000*%
%ADD25R,1.727200X2.032000*%
%ADD26O,1.727200X2.032000*%
%ADD27C,1.524000*%
%ADD28R,10.000000X10.000000*%
%ADD29R,1.000000X1.250000*%
%ADD30R,1.250000X1.000000*%
%ADD31R,2.235200X2.235200*%
%ADD32C,0.254000*%
G04 APERTURE END LIST*
D10*
D11*
X40000000Y-97000000D03*
X40000000Y-41000000D03*
X134000000Y-97000000D03*
X134000000Y-41000000D03*
D12*
X72500000Y-46500000D03*
X72500000Y-38500000D03*
D13*
X206000000Y-96500000D03*
X201000000Y-94000000D03*
X201000000Y-99000000D03*
X201000000Y-104000000D03*
X206000000Y-101500000D03*
D14*
X57000000Y-74000000D03*
X51412000Y-74000000D03*
X62588000Y-74000000D03*
D15*
X156464000Y-79375000D03*
X153964000Y-79375000D03*
D16*
X133604000Y-77470000D03*
X136144000Y-77470000D03*
X138684000Y-77470000D03*
X138684000Y-88900000D03*
X136144000Y-88900000D03*
X133604000Y-88900000D03*
D15*
X151384000Y-79375000D03*
D14*
X87500000Y-64000000D03*
X93088000Y-64000000D03*
X81912000Y-64000000D03*
D17*
X208550000Y-60400000D03*
X207050000Y-60400000D03*
X150750000Y-68500000D03*
X149250000Y-68500000D03*
X141000000Y-68500000D03*
X142500000Y-68500000D03*
D18*
X165500000Y-63750000D03*
X165500000Y-65250000D03*
X176400000Y-56150000D03*
X176400000Y-57650000D03*
D17*
X168250000Y-67800000D03*
X166750000Y-67800000D03*
X172050000Y-56300000D03*
X173550000Y-56300000D03*
X172350000Y-66200000D03*
X170850000Y-66200000D03*
X176450000Y-67700000D03*
X174950000Y-67700000D03*
X167650000Y-56300000D03*
X169150000Y-56300000D03*
D19*
X176000000Y-87750000D03*
D20*
X178540000Y-87750000D03*
D21*
X138500000Y-68500000D03*
X137000000Y-68500000D03*
D13*
X201000000Y-78000000D03*
X206000000Y-75500000D03*
X201000000Y-83500000D03*
X201000000Y-88500000D03*
X206000000Y-86000000D03*
D22*
X163190000Y-88040000D03*
X163190000Y-82960000D03*
X170810000Y-88040000D03*
X170810000Y-82960000D03*
D17*
X165050000Y-59800000D03*
X166550000Y-59800000D03*
D18*
X176500000Y-62450000D03*
X176500000Y-60950000D03*
D17*
X172350000Y-67700000D03*
X170850000Y-67700000D03*
D13*
X201000000Y-112000000D03*
X206000000Y-109500000D03*
D23*
X191000000Y-65750000D03*
D24*
X191000000Y-64480000D03*
X191000000Y-63210000D03*
X191000000Y-61940000D03*
X191000000Y-60670000D03*
X189730000Y-64480000D03*
X189730000Y-63210000D03*
X189730000Y-61940000D03*
X189730000Y-60670000D03*
X189730000Y-65750000D03*
D12*
X151250000Y-71000000D03*
X148710000Y-71000000D03*
X141090000Y-71000000D03*
X143630000Y-71000000D03*
X138550000Y-71000000D03*
D25*
X205000000Y-52000000D03*
D26*
X207540000Y-52000000D03*
X210080000Y-52000000D03*
D11*
X46000000Y-105000000D03*
X128500000Y-105000000D03*
X180000000Y-105000000D03*
X46000000Y-33000000D03*
X128500000Y-33000000D03*
X180000000Y-33000000D03*
D27*
X67500000Y-31000000D03*
X78500000Y-31000000D03*
X75000000Y-106000000D03*
X86000000Y-106000000D03*
D28*
X40500000Y-54500000D03*
X40500000Y-83500000D03*
X40500000Y-69000000D03*
X96000000Y-109500000D03*
X142500000Y-109500000D03*
D14*
X118000000Y-64000000D03*
X123588000Y-64000000D03*
X112412000Y-64000000D03*
X118000000Y-74000000D03*
X112412000Y-74000000D03*
X123588000Y-74000000D03*
X87500000Y-74000000D03*
X81912000Y-74000000D03*
X93088000Y-74000000D03*
X57000000Y-64000000D03*
X62588000Y-64000000D03*
X51412000Y-64000000D03*
D17*
X153500000Y-77000000D03*
X152000000Y-77000000D03*
X153500000Y-81750000D03*
X152000000Y-81750000D03*
D13*
X197250000Y-40000000D03*
X202250000Y-37500000D03*
X197250000Y-32750000D03*
X202250000Y-30250000D03*
D29*
X203000000Y-60200000D03*
X205000000Y-60200000D03*
D30*
X172200000Y-62300000D03*
X172200000Y-60300000D03*
X170200000Y-62300000D03*
X170200000Y-60300000D03*
D25*
X210250000Y-46000000D03*
D26*
X207710000Y-46000000D03*
X205170000Y-46000000D03*
X202630000Y-46000000D03*
X200090000Y-46000000D03*
X197550000Y-46000000D03*
X195010000Y-46000000D03*
X192470000Y-46000000D03*
X189930000Y-46000000D03*
D27*
X151000000Y-35800000D03*
X183000000Y-49400000D03*
X156500000Y-52200000D03*
X166600000Y-41800000D03*
X164000000Y-49400000D03*
X172400000Y-37600000D03*
X188200000Y-39800000D03*
X187400000Y-30200000D03*
X171100000Y-96200000D03*
X194400000Y-93800000D03*
X198800000Y-63000000D03*
X188800000Y-42800000D03*
X149000000Y-98600000D03*
X174800000Y-101400000D03*
X183250000Y-100250000D03*
X130200000Y-52600000D03*
X182000000Y-114000000D03*
X139400000Y-48000000D03*
X187800000Y-83000000D03*
X190000000Y-83000000D03*
X197400000Y-81000000D03*
X195400000Y-88800000D03*
X185250000Y-58250000D03*
X74000000Y-80000000D03*
X106250000Y-62250000D03*
X108500000Y-71750000D03*
X78000000Y-70750000D03*
X76000000Y-62500000D03*
D12*
X72500000Y-97790000D03*
X72500000Y-89790000D03*
D15*
X203400000Y-63000000D03*
X205940000Y-63000000D03*
X208480000Y-63000000D03*
D31*
X153500000Y-113500000D03*
X158500000Y-30500000D03*
X173750000Y-30500000D03*
X83000000Y-113000000D03*
X118000000Y-109000000D03*
X91000000Y-31000000D03*
X118000000Y-31000000D03*
D32*
G36*
X139935070Y-87364676D02*
X144373000Y-91802606D01*
X144373000Y-104500000D01*
X144383006Y-104549410D01*
X144411447Y-104591035D01*
X144453841Y-104618315D01*
X144500000Y-104627000D01*
X147373000Y-104627000D01*
X147373000Y-114373000D01*
X137627000Y-114373000D01*
X137627000Y-104627000D01*
X140500000Y-104627000D01*
X140549410Y-104616994D01*
X140591035Y-104588553D01*
X140618315Y-104546159D01*
X140627000Y-104500000D01*
X140627000Y-93250000D01*
X140616994Y-93200590D01*
X140589803Y-93160197D01*
X138339803Y-90910197D01*
X138297789Y-90882334D01*
X138250000Y-90873000D01*
X133779980Y-90873000D01*
X132325232Y-90145626D01*
X131877000Y-89697394D01*
X131877000Y-88288452D01*
X132341581Y-87591581D01*
X133038452Y-87127000D01*
X138984366Y-87127000D01*
X139935070Y-87364676D01*
X139935070Y-87364676D01*
G37*
X139935070Y-87364676D02*
X144373000Y-91802606D01*
X144373000Y-104500000D01*
X144383006Y-104549410D01*
X144411447Y-104591035D01*
X144453841Y-104618315D01*
X144500000Y-104627000D01*
X147373000Y-104627000D01*
X147373000Y-114373000D01*
X137627000Y-114373000D01*
X137627000Y-104627000D01*
X140500000Y-104627000D01*
X140549410Y-104616994D01*
X140591035Y-104588553D01*
X140618315Y-104546159D01*
X140627000Y-104500000D01*
X140627000Y-93250000D01*
X140616994Y-93200590D01*
X140589803Y-93160197D01*
X138339803Y-90910197D01*
X138297789Y-90882334D01*
X138250000Y-90873000D01*
X133779980Y-90873000D01*
X132325232Y-90145626D01*
X131877000Y-89697394D01*
X131877000Y-88288452D01*
X132341581Y-87591581D01*
X133038452Y-87127000D01*
X138984366Y-87127000D01*
X139935070Y-87364676D01*
G36*
X136410197Y-75589803D02*
X136452211Y-75617666D01*
X136500000Y-75627000D01*
X139076215Y-75627000D01*
X139169650Y-79270980D01*
X132905703Y-79174611D01*
X132324825Y-76076595D01*
X132305885Y-76029875D01*
X132289803Y-76010197D01*
X126189803Y-69910197D01*
X126147789Y-69882334D01*
X126100000Y-69873000D01*
X119000000Y-69873000D01*
X118950590Y-69883006D01*
X118908965Y-69911447D01*
X118881685Y-69953841D01*
X118873000Y-70000000D01*
X118873000Y-71973000D01*
X117127000Y-71973000D01*
X117127000Y-68852606D01*
X117852606Y-68127000D01*
X126200000Y-68127000D01*
X126249410Y-68116994D01*
X126291035Y-68088553D01*
X126318315Y-68046159D01*
X126326952Y-67996491D01*
X126315584Y-67947377D01*
X126289803Y-67910197D01*
X124457541Y-66077935D01*
X125329251Y-64508857D01*
X136410197Y-75589803D01*
X136410197Y-75589803D01*
G37*
X136410197Y-75589803D02*
X136452211Y-75617666D01*
X136500000Y-75627000D01*
X139076215Y-75627000D01*
X139169650Y-79270980D01*
X132905703Y-79174611D01*
X132324825Y-76076595D01*
X132305885Y-76029875D01*
X132289803Y-76010197D01*
X126189803Y-69910197D01*
X126147789Y-69882334D01*
X126100000Y-69873000D01*
X119000000Y-69873000D01*
X118950590Y-69883006D01*
X118908965Y-69911447D01*
X118881685Y-69953841D01*
X118873000Y-70000000D01*
X118873000Y-71973000D01*
X117127000Y-71973000D01*
X117127000Y-68852606D01*
X117852606Y-68127000D01*
X126200000Y-68127000D01*
X126249410Y-68116994D01*
X126291035Y-68088553D01*
X126318315Y-68046159D01*
X126326952Y-67996491D01*
X126315584Y-67947377D01*
X126289803Y-67910197D01*
X124457541Y-66077935D01*
X125329251Y-64508857D01*
X136410197Y-75589803D01*
G36*
X100873000Y-69754556D02*
X100873000Y-104373000D01*
X97127000Y-104373000D01*
X97127000Y-71550000D01*
X97116994Y-71500590D01*
X97089803Y-71460197D01*
X95289803Y-69660197D01*
X95247789Y-69632334D01*
X95200000Y-69623000D01*
X88300000Y-69623000D01*
X88250590Y-69633006D01*
X88208965Y-69661447D01*
X88181685Y-69703841D01*
X88173000Y-69750000D01*
X88173000Y-72123000D01*
X86427000Y-72123000D01*
X86427000Y-69170610D01*
X86561002Y-68768604D01*
X87318604Y-68011002D01*
X87720610Y-67877000D01*
X93200000Y-67877000D01*
X93249410Y-67866994D01*
X93291035Y-67838553D01*
X93318315Y-67796159D01*
X93326952Y-67746491D01*
X93315584Y-67697377D01*
X93288366Y-67658783D01*
X91703911Y-66123842D01*
X91227000Y-65170020D01*
X91227000Y-64323864D01*
X95050666Y-64228273D01*
X100873000Y-69754556D01*
X100873000Y-69754556D01*
G37*
X100873000Y-69754556D02*
X100873000Y-104373000D01*
X97127000Y-104373000D01*
X97127000Y-71550000D01*
X97116994Y-71500590D01*
X97089803Y-71460197D01*
X95289803Y-69660197D01*
X95247789Y-69632334D01*
X95200000Y-69623000D01*
X88300000Y-69623000D01*
X88250590Y-69633006D01*
X88208965Y-69661447D01*
X88181685Y-69703841D01*
X88173000Y-69750000D01*
X88173000Y-72123000D01*
X86427000Y-72123000D01*
X86427000Y-69170610D01*
X86561002Y-68768604D01*
X87318604Y-68011002D01*
X87720610Y-67877000D01*
X93200000Y-67877000D01*
X93249410Y-67866994D01*
X93291035Y-67838553D01*
X93318315Y-67796159D01*
X93326952Y-67746491D01*
X93315584Y-67697377D01*
X93288366Y-67658783D01*
X91703911Y-66123842D01*
X91227000Y-65170020D01*
X91227000Y-64323864D01*
X95050666Y-64228273D01*
X100873000Y-69754556D01*
G36*
X64573000Y-66000000D02*
X64583006Y-66049410D01*
X64611447Y-66091035D01*
X64653841Y-66118315D01*
X64700000Y-66127000D01*
X66284366Y-66127000D01*
X66655674Y-66219827D01*
X67024768Y-66404374D01*
X72510197Y-71889803D01*
X72552211Y-71917666D01*
X72600000Y-71927000D01*
X81373000Y-71927000D01*
X81373000Y-75756137D01*
X80715752Y-75673981D01*
X80700000Y-75673000D01*
X71520610Y-75673000D01*
X70956294Y-75484895D01*
X70680914Y-75301308D01*
X65289803Y-69910197D01*
X65247789Y-69882334D01*
X65200000Y-69873000D01*
X52700000Y-69873000D01*
X52650590Y-69883006D01*
X52608965Y-69911447D01*
X52581685Y-69953841D01*
X52573000Y-70000000D01*
X52573000Y-72173000D01*
X50827000Y-72173000D01*
X50827000Y-68835178D01*
X51092567Y-68392567D01*
X51535178Y-68127000D01*
X60700000Y-68127000D01*
X60749410Y-68116994D01*
X60791035Y-68088553D01*
X60818315Y-68046159D01*
X60827000Y-68000000D01*
X60827000Y-63727000D01*
X64573000Y-63727000D01*
X64573000Y-66000000D01*
X64573000Y-66000000D01*
G37*
X64573000Y-66000000D02*
X64583006Y-66049410D01*
X64611447Y-66091035D01*
X64653841Y-66118315D01*
X64700000Y-66127000D01*
X66284366Y-66127000D01*
X66655674Y-66219827D01*
X67024768Y-66404374D01*
X72510197Y-71889803D01*
X72552211Y-71917666D01*
X72600000Y-71927000D01*
X81373000Y-71927000D01*
X81373000Y-75756137D01*
X80715752Y-75673981D01*
X80700000Y-75673000D01*
X71520610Y-75673000D01*
X70956294Y-75484895D01*
X70680914Y-75301308D01*
X65289803Y-69910197D01*
X65247789Y-69882334D01*
X65200000Y-69873000D01*
X52700000Y-69873000D01*
X52650590Y-69883006D01*
X52608965Y-69911447D01*
X52581685Y-69953841D01*
X52573000Y-70000000D01*
X52573000Y-72173000D01*
X50827000Y-72173000D01*
X50827000Y-68835178D01*
X51092567Y-68392567D01*
X51535178Y-68127000D01*
X60700000Y-68127000D01*
X60749410Y-68116994D01*
X60791035Y-68088553D01*
X60818315Y-68046159D01*
X60827000Y-68000000D01*
X60827000Y-63727000D01*
X64573000Y-63727000D01*
X64573000Y-66000000D01*
M02*
