G04 #@! TF.FileFunction,Soldermask,Top*
%FSLAX46Y46*%
G04 Gerber Fmt 4.6, Leading zero omitted, Abs format (unit mm)*
G04 Created by KiCad (PCBNEW 4.0.2+dfsg1-stable) date Tue 26 Sep 2017 03:44:04 AM EDT*
%MOMM*%
G01*
G04 APERTURE LIST*
%ADD10C,0.100000*%
%ADD11C,0.150000*%
%ADD12C,4.500000*%
%ADD13C,1.800000*%
%ADD14C,1.750000*%
%ADD15R,0.800000X0.750000*%
%ADD16R,1.000000X1.600000*%
%ADD17R,0.230000X1.500000*%
%ADD18R,1.500000X0.230000*%
%ADD19O,3.500120X4.501640*%
%ADD20R,0.600000X1.550000*%
%ADD21R,1.175000X1.175000*%
%ADD22R,0.900000X0.500000*%
%ADD23R,0.500000X0.900000*%
%ADD24C,2.000000*%
%ADD25O,3.000000X4.000000*%
%ADD26R,0.750000X0.800000*%
%ADD27R,2.032000X2.032000*%
%ADD28O,2.032000X2.032000*%
%ADD29R,1.550000X0.600000*%
%ADD30R,2.000000X2.400000*%
%ADD31C,1.397000*%
%ADD32R,1.600000X0.410000*%
%ADD33R,3.700000X1.200000*%
%ADD34R,1.050000X1.050000*%
%ADD35C,1.050000*%
%ADD36R,0.660400X0.406400*%
%ADD37R,0.650000X1.060000*%
%ADD38R,1.060000X0.650000*%
%ADD39R,0.300000X0.650000*%
%ADD40R,1.240000X0.775000*%
%ADD41R,2.032000X1.524000*%
%ADD42R,2.540000X2.670000*%
%ADD43R,1.270000X0.762000*%
%ADD44R,2.670000X2.540000*%
%ADD45R,0.762000X1.270000*%
%ADD46R,0.797560X0.797560*%
%ADD47R,1.600000X2.000000*%
%ADD48R,1.600000X1.300000*%
%ADD49R,1.600000X2.108200*%
%ADD50R,1.727200X2.032000*%
%ADD51O,1.727200X2.032000*%
%ADD52C,1.524000*%
%ADD53R,10.000000X10.000000*%
%ADD54R,0.900000X1.700000*%
%ADD55R,1.250000X1.000000*%
%ADD56R,1.000000X1.250000*%
%ADD57R,1.450000X0.450000*%
%ADD58R,0.701040X1.000760*%
%ADD59R,0.850000X1.300000*%
%ADD60R,5.000000X5.000000*%
%ADD61R,2.235200X2.235200*%
%ADD62C,0.254000*%
G04 APERTURE END LIST*
D10*
D11*
X103100000Y-70100000D02*
G75*
G03X103100000Y-70100000I-200000J0D01*
G01*
X103100000Y-68900000D02*
G75*
G03X103100000Y-68900000I-200000J0D01*
G01*
X104300000Y-68900000D02*
G75*
G03X104300000Y-68900000I-200000J0D01*
G01*
X104300000Y-70100000D02*
G75*
G03X104300000Y-70100000I-200000J0D01*
G01*
D12*
X40000000Y-97000000D03*
X40000000Y-41000000D03*
X134000000Y-97000000D03*
X134000000Y-41000000D03*
D13*
X72500000Y-46500000D03*
X72500000Y-38500000D03*
D14*
X206000000Y-96500000D03*
X201000000Y-94000000D03*
X201000000Y-99000000D03*
X201000000Y-104000000D03*
X206000000Y-101500000D03*
D15*
X179750000Y-94000000D03*
X181250000Y-94000000D03*
D16*
X65500000Y-51000000D03*
X62500000Y-51000000D03*
D17*
X177200000Y-54050000D03*
X176800000Y-54050000D03*
X176400000Y-54050000D03*
X176000000Y-54050000D03*
X175600000Y-54050000D03*
X175200000Y-54050000D03*
X174800000Y-54050000D03*
X174400000Y-54050000D03*
X174000000Y-54050000D03*
X173600000Y-54050000D03*
X173200000Y-54050000D03*
X172800000Y-54050000D03*
X172400000Y-54050000D03*
X172000000Y-54050000D03*
X171600000Y-54050000D03*
X171200000Y-54050000D03*
X170800000Y-54050000D03*
X170400000Y-54050000D03*
X170000000Y-54050000D03*
X169600000Y-54050000D03*
X169200000Y-54050000D03*
X168800000Y-54050000D03*
X168400000Y-54050000D03*
X168000000Y-54050000D03*
X167600000Y-54050000D03*
X167200000Y-54050000D03*
X166800000Y-54050000D03*
X166400000Y-54050000D03*
X166000000Y-54050000D03*
X165600000Y-54050000D03*
X165200000Y-54050000D03*
X164800000Y-54050000D03*
D18*
X163050000Y-55800000D03*
X163050000Y-56200000D03*
X163050000Y-56600000D03*
X163050000Y-57000000D03*
X163050000Y-57400000D03*
X163050000Y-57800000D03*
X163050000Y-58200000D03*
X163050000Y-58600000D03*
X163050000Y-59000000D03*
X163050000Y-59400000D03*
X163050000Y-59800000D03*
X163050000Y-60200000D03*
X163050000Y-60600000D03*
X163050000Y-61000000D03*
X163050000Y-61400000D03*
X163050000Y-61800000D03*
X163050000Y-62200000D03*
X163050000Y-62600000D03*
X163050000Y-63000000D03*
X163050000Y-63400000D03*
X163050000Y-63800000D03*
X163050000Y-64200000D03*
X163050000Y-64600000D03*
X163050000Y-65000000D03*
X163050000Y-65400000D03*
X163050000Y-65800000D03*
X163050000Y-66200000D03*
X163050000Y-66600000D03*
X163050000Y-67000000D03*
X163050000Y-67400000D03*
X163050000Y-67800000D03*
X163050000Y-68200000D03*
D17*
X164800000Y-69950000D03*
X165200000Y-69950000D03*
X165600000Y-69950000D03*
X166000000Y-69950000D03*
X166400000Y-69950000D03*
X166800000Y-69950000D03*
X167200000Y-69950000D03*
X167600000Y-69950000D03*
X168000000Y-69950000D03*
X168400000Y-69950000D03*
X168800000Y-69950000D03*
X169200000Y-69950000D03*
X169600000Y-69950000D03*
X170000000Y-69950000D03*
X170400000Y-69950000D03*
X170800000Y-69950000D03*
X171200000Y-69950000D03*
X171600000Y-69950000D03*
X172000000Y-69950000D03*
X172400000Y-69950000D03*
X172800000Y-69950000D03*
X173200000Y-69950000D03*
X173600000Y-69950000D03*
X174000000Y-69950000D03*
X174400000Y-69950000D03*
X174800000Y-69950000D03*
X175200000Y-69950000D03*
X175600000Y-69950000D03*
X176000000Y-69950000D03*
X176400000Y-69950000D03*
X176800000Y-69950000D03*
X177200000Y-69950000D03*
D18*
X178950000Y-68200000D03*
X178950000Y-67800000D03*
X178950000Y-67400000D03*
X178950000Y-67000000D03*
X178950000Y-66600000D03*
X178950000Y-66200000D03*
X178950000Y-65800000D03*
X178950000Y-65400000D03*
X178950000Y-65000000D03*
X178950000Y-64600000D03*
X178950000Y-64200000D03*
X178950000Y-63800000D03*
X178950000Y-63400000D03*
X178950000Y-63000000D03*
X178950000Y-62600000D03*
X178950000Y-62200000D03*
X178950000Y-61800000D03*
X178950000Y-61400000D03*
X178950000Y-61000000D03*
X178950000Y-60600000D03*
X178950000Y-60200000D03*
X178950000Y-59800000D03*
X178950000Y-59400000D03*
X178950000Y-59000000D03*
X178950000Y-58600000D03*
X178950000Y-58200000D03*
X178950000Y-57800000D03*
X178950000Y-57400000D03*
X178950000Y-57000000D03*
X178950000Y-56600000D03*
X178950000Y-56200000D03*
X178950000Y-55800000D03*
D19*
X57000000Y-74000000D03*
X51412000Y-74000000D03*
X62588000Y-74000000D03*
D20*
X58905000Y-87050000D03*
X57635000Y-87050000D03*
X56365000Y-87050000D03*
X55095000Y-87050000D03*
X55095000Y-92450000D03*
X56365000Y-92450000D03*
X57635000Y-92450000D03*
X58905000Y-92450000D03*
D21*
X56412500Y-90337500D03*
X57587500Y-90337500D03*
X56412500Y-89162500D03*
X57587500Y-89162500D03*
D22*
X137500000Y-33750000D03*
X137500000Y-32250000D03*
D23*
X166000000Y-76250000D03*
X164500000Y-76250000D03*
D24*
X156464000Y-79375000D03*
X153964000Y-79375000D03*
D25*
X133604000Y-77470000D03*
X136144000Y-77470000D03*
X138684000Y-77470000D03*
X138684000Y-88900000D03*
X136144000Y-88900000D03*
X133604000Y-88900000D03*
D24*
X151384000Y-79375000D03*
D19*
X87500000Y-64000000D03*
X93088000Y-64000000D03*
X81912000Y-64000000D03*
D26*
X140300000Y-37350000D03*
X140300000Y-35850000D03*
D15*
X157500000Y-47000000D03*
X156000000Y-47000000D03*
X170250000Y-34500000D03*
X168750000Y-34500000D03*
D26*
X168250000Y-38500000D03*
X168250000Y-37000000D03*
X169200000Y-50250000D03*
X169200000Y-48750000D03*
D15*
X184500000Y-51250000D03*
X183000000Y-51250000D03*
D26*
X190250000Y-102500000D03*
X190250000Y-101000000D03*
D15*
X163550000Y-101350000D03*
X162050000Y-101350000D03*
X162850000Y-96200000D03*
X164350000Y-96200000D03*
D26*
X197200000Y-100150000D03*
X197200000Y-101650000D03*
D15*
X154500000Y-103750000D03*
X156000000Y-103750000D03*
D26*
X163000000Y-110750000D03*
X163000000Y-109250000D03*
D15*
X157250000Y-109500000D03*
X158750000Y-109500000D03*
X155750000Y-95250000D03*
X154250000Y-95250000D03*
D26*
X177000000Y-42250000D03*
X177000000Y-43750000D03*
X173000000Y-105500000D03*
X173000000Y-104000000D03*
D15*
X173750000Y-46000000D03*
X175250000Y-46000000D03*
D26*
X134000000Y-52500000D03*
X134000000Y-51000000D03*
X139750000Y-50750000D03*
X139750000Y-52250000D03*
X185500000Y-87750000D03*
X185500000Y-86250000D03*
D15*
X184750000Y-94000000D03*
X183250000Y-94000000D03*
X181750000Y-59600000D03*
X183250000Y-59600000D03*
X175900000Y-74500000D03*
X174400000Y-74500000D03*
X171150000Y-74500000D03*
X172650000Y-74500000D03*
X175000000Y-50500000D03*
X176500000Y-50500000D03*
X175000000Y-49000000D03*
X176500000Y-49000000D03*
X141750000Y-57250000D03*
X140250000Y-57250000D03*
D26*
X61500000Y-43750000D03*
X61500000Y-42250000D03*
X56750000Y-94500000D03*
X56750000Y-96000000D03*
D16*
X65500000Y-48500000D03*
X62500000Y-48500000D03*
D26*
X109500000Y-69500000D03*
X109500000Y-68000000D03*
D27*
X176000000Y-87750000D03*
D28*
X178540000Y-87750000D03*
D20*
X204905000Y-66800000D03*
X203635000Y-66800000D03*
X202365000Y-66800000D03*
X201095000Y-66800000D03*
X201095000Y-72200000D03*
X202365000Y-72200000D03*
X203635000Y-72200000D03*
X204905000Y-72200000D03*
D29*
X186300000Y-110095000D03*
X186300000Y-111365000D03*
X186300000Y-112635000D03*
X186300000Y-113905000D03*
X191700000Y-113905000D03*
X191700000Y-112635000D03*
X191700000Y-111365000D03*
X191700000Y-110095000D03*
D23*
X144750000Y-30100000D03*
X146250000Y-30100000D03*
D22*
X140300000Y-40650000D03*
X140300000Y-39150000D03*
X156000000Y-43500000D03*
X156000000Y-45000000D03*
D23*
X161000000Y-47000000D03*
X159500000Y-47000000D03*
X168750000Y-32500000D03*
X170250000Y-32500000D03*
D22*
X170250000Y-38500000D03*
X170250000Y-37000000D03*
X167300000Y-50450000D03*
X167300000Y-48950000D03*
D23*
X186250000Y-53250000D03*
X184750000Y-53250000D03*
X181250000Y-53250000D03*
X182750000Y-53250000D03*
D22*
X199000000Y-66750000D03*
X199000000Y-68250000D03*
X59000000Y-43250000D03*
X59000000Y-41750000D03*
D23*
X160950000Y-96100000D03*
X159450000Y-96100000D03*
X208750000Y-68000000D03*
X207250000Y-68000000D03*
X168500000Y-111300000D03*
X167000000Y-111300000D03*
D22*
X165200000Y-111350000D03*
X165200000Y-109850000D03*
X160750000Y-110000000D03*
X160750000Y-111500000D03*
D23*
X158750000Y-111500000D03*
X157250000Y-111500000D03*
D22*
X174000000Y-112500000D03*
X174000000Y-111000000D03*
X177000000Y-112500000D03*
X177000000Y-111000000D03*
D23*
X125850000Y-51600000D03*
X127350000Y-51600000D03*
X187550000Y-108200000D03*
X186050000Y-108200000D03*
D22*
X186250000Y-100500000D03*
X186250000Y-102000000D03*
X194200000Y-64550000D03*
X194200000Y-66050000D03*
D23*
X192700000Y-78100000D03*
X191200000Y-78100000D03*
X192700000Y-75100000D03*
X191200000Y-75100000D03*
X192700000Y-72100000D03*
X191200000Y-72100000D03*
X192750000Y-69100000D03*
X191250000Y-69100000D03*
X195450000Y-84400000D03*
X196950000Y-84400000D03*
D22*
X197400000Y-86250000D03*
X197400000Y-87750000D03*
D23*
X166000000Y-72750000D03*
X164500000Y-72750000D03*
X175900000Y-72500000D03*
X174400000Y-72500000D03*
D22*
X160000000Y-67750000D03*
X160000000Y-66250000D03*
D23*
X62500000Y-39500000D03*
X61000000Y-39500000D03*
D22*
X70800000Y-76950000D03*
X70800000Y-75450000D03*
D30*
X171650000Y-77500000D03*
X175650000Y-77500000D03*
D14*
X201000000Y-78000000D03*
X206000000Y-75500000D03*
X201000000Y-83500000D03*
X201000000Y-88500000D03*
X206000000Y-86000000D03*
D15*
X151250000Y-64000000D03*
X152750000Y-64000000D03*
D22*
X55000000Y-94500000D03*
X55000000Y-96000000D03*
X53500000Y-50250000D03*
X53500000Y-51750000D03*
D23*
X53250000Y-98500000D03*
X51750000Y-98500000D03*
D22*
X62000000Y-81250000D03*
X62000000Y-79750000D03*
X51500000Y-50250000D03*
X51500000Y-51750000D03*
X101400000Y-75950000D03*
X101400000Y-74450000D03*
X107800000Y-65150000D03*
X107800000Y-63650000D03*
X77750000Y-65000000D03*
X77750000Y-63500000D03*
D31*
X163190000Y-88040000D03*
X163190000Y-82960000D03*
X170810000Y-88040000D03*
X170810000Y-82960000D03*
D32*
X149154300Y-63222500D03*
X149154300Y-62587500D03*
X149154300Y-61952500D03*
X149154300Y-61317500D03*
X149154300Y-60682500D03*
X149154300Y-60047500D03*
X149154300Y-59412500D03*
X149154300Y-58777500D03*
X143845700Y-58777500D03*
X143845700Y-59412500D03*
X143845700Y-60047500D03*
X143845700Y-60682500D03*
X143845700Y-61317500D03*
X143845700Y-61952500D03*
X143845700Y-62587500D03*
X143845700Y-63222500D03*
D26*
X79250000Y-69500000D03*
X79250000Y-68000000D03*
D33*
X167250000Y-98500000D03*
X167250000Y-101300000D03*
X157750000Y-98750000D03*
X157750000Y-101550000D03*
X153000000Y-101500000D03*
X153000000Y-98700000D03*
D15*
X168500000Y-109650000D03*
X167000000Y-109650000D03*
X181250000Y-61250000D03*
X182750000Y-61250000D03*
X151250000Y-57500000D03*
X152750000Y-57500000D03*
D16*
X115250000Y-51000000D03*
X112250000Y-51000000D03*
X115250000Y-48500000D03*
X112250000Y-48500000D03*
D15*
X141750000Y-64000000D03*
X140250000Y-64000000D03*
X75550000Y-73500000D03*
X74050000Y-73500000D03*
D14*
X201000000Y-112000000D03*
X206000000Y-109500000D03*
D34*
X191000000Y-65750000D03*
D35*
X191000000Y-64480000D03*
X191000000Y-63210000D03*
X191000000Y-61940000D03*
X191000000Y-60670000D03*
X189730000Y-64480000D03*
X189730000Y-63210000D03*
X189730000Y-61940000D03*
X189730000Y-60670000D03*
X189730000Y-65750000D03*
D36*
X157016000Y-35910400D03*
X157016000Y-34589600D03*
X157016000Y-35250000D03*
X154984000Y-34589600D03*
X154984000Y-35910400D03*
D37*
X168200000Y-44400000D03*
X167250000Y-44400000D03*
X166300000Y-44400000D03*
X166300000Y-46600000D03*
X168200000Y-46600000D03*
X167250000Y-46600000D03*
D38*
X192650000Y-100050000D03*
X192650000Y-101000000D03*
X192650000Y-101950000D03*
X194850000Y-101950000D03*
X194850000Y-100050000D03*
D39*
X161750000Y-107050000D03*
X162250000Y-107050000D03*
X162750000Y-107050000D03*
X163250000Y-107050000D03*
X163750000Y-107050000D03*
X163750000Y-103950000D03*
X163250000Y-103950000D03*
X162750000Y-103950000D03*
X162250000Y-103950000D03*
X161750000Y-103950000D03*
D40*
X163370000Y-105112500D03*
X162130000Y-105112500D03*
X163370000Y-105887500D03*
X162130000Y-105887500D03*
D37*
X173550000Y-44100000D03*
X174500000Y-44100000D03*
X175450000Y-44100000D03*
X175450000Y-41900000D03*
X173550000Y-41900000D03*
X174500000Y-41900000D03*
D13*
X151250000Y-71000000D03*
X148710000Y-71000000D03*
X141090000Y-71000000D03*
X143630000Y-71000000D03*
X138550000Y-71000000D03*
D38*
X135900000Y-50550000D03*
X135900000Y-51500000D03*
X135900000Y-52450000D03*
X138100000Y-52450000D03*
X138100000Y-50550000D03*
D29*
X187800000Y-85095000D03*
X187800000Y-86365000D03*
X187800000Y-87635000D03*
X187800000Y-88905000D03*
X193200000Y-88905000D03*
X193200000Y-87635000D03*
X193200000Y-86365000D03*
X193200000Y-85095000D03*
D41*
X142690000Y-40690000D03*
X142690000Y-43230000D03*
X142690000Y-45770000D03*
X142690000Y-48310000D03*
X150310000Y-48310000D03*
X150310000Y-45770000D03*
X150310000Y-43230000D03*
X150310000Y-40690000D03*
D42*
X167200000Y-106200000D03*
D43*
X167200000Y-103850000D03*
D44*
X156800000Y-106200000D03*
D45*
X154450000Y-106200000D03*
D46*
X207250700Y-70000000D03*
X208749300Y-70000000D03*
X172000000Y-111000700D03*
X172000000Y-112499300D03*
X179000000Y-111000700D03*
X179000000Y-112499300D03*
X127349300Y-49800000D03*
X125850700Y-49800000D03*
D44*
X196200000Y-112200000D03*
D45*
X193850000Y-112200000D03*
D46*
X187700700Y-78100000D03*
X189199300Y-78100000D03*
X187700700Y-75100000D03*
X189199300Y-75100000D03*
X187700700Y-72100000D03*
X189199300Y-72100000D03*
X187700700Y-69100000D03*
X189199300Y-69100000D03*
D22*
X186500000Y-49000000D03*
X186500000Y-47500000D03*
D47*
X158600000Y-43000000D03*
D48*
X164400000Y-44150000D03*
X164400000Y-41850000D03*
D47*
X160100000Y-34500000D03*
D48*
X165900000Y-35650000D03*
X165900000Y-33350000D03*
D49*
X104415000Y-64250000D03*
X100123000Y-64250000D03*
X74265000Y-64200000D03*
X69973000Y-64200000D03*
D50*
X205000000Y-52000000D03*
D51*
X207540000Y-52000000D03*
X210080000Y-52000000D03*
D22*
X175750000Y-82000000D03*
X175750000Y-83500000D03*
X179000000Y-83500000D03*
X179000000Y-82000000D03*
D12*
X46000000Y-105000000D03*
X128500000Y-105000000D03*
X180000000Y-105000000D03*
X46000000Y-33000000D03*
X128500000Y-33000000D03*
X180000000Y-33000000D03*
D22*
X193000000Y-31750000D03*
X193000000Y-30250000D03*
X187250000Y-93750000D03*
X187250000Y-95250000D03*
X189250000Y-94500000D03*
X189250000Y-96000000D03*
D52*
X67500000Y-31000000D03*
X78500000Y-31000000D03*
D22*
X193000000Y-39750000D03*
X193000000Y-38250000D03*
D52*
X75000000Y-106000000D03*
X86000000Y-106000000D03*
D15*
X155250000Y-37750000D03*
X156750000Y-37750000D03*
D26*
X170000000Y-46250000D03*
X170000000Y-44750000D03*
X190500000Y-38250000D03*
X190500000Y-39750000D03*
X190500000Y-30250000D03*
X190500000Y-31750000D03*
D53*
X40500000Y-54500000D03*
X40500000Y-83500000D03*
X40500000Y-69000000D03*
X96000000Y-109500000D03*
X142500000Y-109500000D03*
D19*
X118000000Y-64000000D03*
X123588000Y-64000000D03*
X112412000Y-64000000D03*
X118000000Y-74000000D03*
X112412000Y-74000000D03*
X123588000Y-74000000D03*
X87500000Y-74000000D03*
X81912000Y-74000000D03*
X93088000Y-74000000D03*
X57000000Y-64000000D03*
X62588000Y-64000000D03*
X51412000Y-64000000D03*
D20*
X56095000Y-51200000D03*
X57365000Y-51200000D03*
X58635000Y-51200000D03*
X59905000Y-51200000D03*
X59905000Y-45800000D03*
X58635000Y-45800000D03*
X57365000Y-45800000D03*
X56095000Y-45800000D03*
D21*
X58587500Y-47912500D03*
X57412500Y-47912500D03*
X58587500Y-49087500D03*
X57412500Y-49087500D03*
D15*
X67750000Y-51500000D03*
X69250000Y-51500000D03*
X67750000Y-49750000D03*
X69250000Y-49750000D03*
X117750000Y-51500000D03*
X119250000Y-51500000D03*
X117750000Y-49750000D03*
X119250000Y-49750000D03*
D54*
X157050000Y-49500000D03*
X159950000Y-49500000D03*
D14*
X197250000Y-40000000D03*
X202250000Y-37500000D03*
X197250000Y-32750000D03*
X202250000Y-30250000D03*
D26*
X196800000Y-109750000D03*
X196800000Y-108250000D03*
X194900000Y-109750000D03*
X194900000Y-108250000D03*
D55*
X152500000Y-93250000D03*
X152500000Y-95250000D03*
X171000000Y-105750000D03*
X171000000Y-103750000D03*
D56*
X106000000Y-75500000D03*
X104000000Y-75500000D03*
D15*
X166000000Y-74500000D03*
X164500000Y-74500000D03*
D32*
X149154300Y-56722500D03*
X149154300Y-56087500D03*
X149154300Y-55452500D03*
X149154300Y-54817500D03*
X149154300Y-54182500D03*
X149154300Y-53547500D03*
X149154300Y-52912500D03*
X149154300Y-52277500D03*
X143845700Y-52277500D03*
X143845700Y-52912500D03*
X143845700Y-53547500D03*
X143845700Y-54182500D03*
X143845700Y-54817500D03*
X143845700Y-55452500D03*
X143845700Y-56087500D03*
X143845700Y-56722500D03*
D22*
X64000000Y-79750000D03*
X64000000Y-81250000D03*
D56*
X75700000Y-75500000D03*
X73700000Y-75500000D03*
D15*
X105750000Y-73500000D03*
X104250000Y-73500000D03*
D26*
X111000000Y-69500000D03*
X111000000Y-68000000D03*
X80750000Y-69500000D03*
X80750000Y-68000000D03*
D55*
X186500000Y-45250000D03*
X186500000Y-43250000D03*
D29*
X75950000Y-71405000D03*
X75950000Y-70135000D03*
X75950000Y-68865000D03*
X75950000Y-67595000D03*
X70550000Y-67595000D03*
X70550000Y-68865000D03*
X70550000Y-70135000D03*
X70550000Y-71405000D03*
D21*
X72662500Y-68912500D03*
X72662500Y-70087500D03*
X73837500Y-68912500D03*
X73837500Y-70087500D03*
D29*
X106200000Y-71405000D03*
X106200000Y-70135000D03*
X106200000Y-68865000D03*
X106200000Y-67595000D03*
X100800000Y-67595000D03*
X100800000Y-68865000D03*
X100800000Y-70135000D03*
X100800000Y-71405000D03*
D21*
X102912500Y-68912500D03*
X102912500Y-70087500D03*
X104087500Y-68912500D03*
X104087500Y-70087500D03*
D22*
X140400000Y-32150000D03*
X140400000Y-30650000D03*
D50*
X210250000Y-46000000D03*
D51*
X207710000Y-46000000D03*
X205170000Y-46000000D03*
X202630000Y-46000000D03*
X200090000Y-46000000D03*
X197550000Y-46000000D03*
X195010000Y-46000000D03*
X192470000Y-46000000D03*
X189930000Y-46000000D03*
D29*
X148200000Y-35905000D03*
X148200000Y-34635000D03*
X148200000Y-33365000D03*
X148200000Y-32095000D03*
X142800000Y-32095000D03*
X142800000Y-33365000D03*
X142800000Y-34635000D03*
X142800000Y-35905000D03*
D57*
X180050000Y-95775000D03*
X180050000Y-96425000D03*
X180050000Y-97075000D03*
X180050000Y-97725000D03*
X184450000Y-97725000D03*
X184450000Y-97075000D03*
X184450000Y-96425000D03*
X184450000Y-95775000D03*
D15*
X189650000Y-106300000D03*
X191150000Y-106300000D03*
D58*
X187749960Y-103801120D03*
X186800000Y-103801120D03*
X185850040Y-103801120D03*
X187749960Y-106198880D03*
X185850040Y-106198880D03*
D52*
X151000000Y-35800000D03*
X183000000Y-49400000D03*
X156500000Y-52200000D03*
X166600000Y-41800000D03*
X164000000Y-49400000D03*
X172400000Y-37600000D03*
X188200000Y-39800000D03*
X187400000Y-30200000D03*
X171100000Y-96200000D03*
X194400000Y-93800000D03*
X198800000Y-63000000D03*
X188800000Y-42800000D03*
X149000000Y-98600000D03*
X174800000Y-101400000D03*
X183250000Y-100250000D03*
X130200000Y-52600000D03*
X182000000Y-114000000D03*
X139400000Y-48000000D03*
X187800000Y-83000000D03*
X190000000Y-83000000D03*
X197400000Y-81000000D03*
X195400000Y-88800000D03*
X185250000Y-58250000D03*
X74000000Y-80000000D03*
X106250000Y-62250000D03*
X108500000Y-71750000D03*
X78000000Y-70750000D03*
X76000000Y-62500000D03*
D59*
X56365000Y-39325000D03*
X55095000Y-39325000D03*
X57635000Y-39325000D03*
X58905000Y-39325000D03*
D60*
X57000000Y-35230000D03*
D59*
X57635000Y-98675000D03*
X58905000Y-98675000D03*
X56365000Y-98675000D03*
X55095000Y-98675000D03*
D60*
X57000000Y-102770000D03*
D13*
X72500000Y-97790000D03*
X72500000Y-89790000D03*
D24*
X203400000Y-63000000D03*
X205940000Y-63000000D03*
X208480000Y-63000000D03*
D61*
X153500000Y-113500000D03*
X158500000Y-30500000D03*
X173750000Y-30500000D03*
X83000000Y-113000000D03*
X118000000Y-109000000D03*
X91000000Y-31000000D03*
X118000000Y-31000000D03*
D62*
G36*
X58873000Y-73626067D02*
X58873000Y-80776970D01*
X58590745Y-81529649D01*
X58029649Y-82090745D01*
X57276970Y-82373000D01*
X45377000Y-82373000D01*
X45377000Y-78627000D01*
X55000000Y-78627000D01*
X55049410Y-78616994D01*
X55091035Y-78588553D01*
X55118315Y-78546159D01*
X55127000Y-78500000D01*
X55127000Y-73723030D01*
X55388011Y-73027000D01*
X58616257Y-73027000D01*
X58873000Y-73626067D01*
X58873000Y-73626067D01*
G37*
X58873000Y-73626067D02*
X58873000Y-80776970D01*
X58590745Y-81529649D01*
X58029649Y-82090745D01*
X57276970Y-82373000D01*
X45377000Y-82373000D01*
X45377000Y-78627000D01*
X55000000Y-78627000D01*
X55049410Y-78616994D01*
X55091035Y-78588553D01*
X55118315Y-78546159D01*
X55127000Y-78500000D01*
X55127000Y-73723030D01*
X55388011Y-73027000D01*
X58616257Y-73027000D01*
X58873000Y-73626067D01*
G36*
X57873000Y-68847394D02*
X56847394Y-69873000D01*
X50000000Y-69873000D01*
X49950590Y-69883006D01*
X49898400Y-69923800D01*
X49603818Y-70316576D01*
X49324768Y-70595626D01*
X48955674Y-70780173D01*
X48584366Y-70873000D01*
X45377000Y-70873000D01*
X45377000Y-67127000D01*
X48584366Y-67127000D01*
X48955674Y-67219827D01*
X49136132Y-67310056D01*
X49419086Y-67498692D01*
X49701308Y-67780914D01*
X49894330Y-68070447D01*
X49930063Y-68106008D01*
X50000000Y-68127000D01*
X56000000Y-68127000D01*
X56049410Y-68116994D01*
X56091035Y-68088553D01*
X56118315Y-68046159D01*
X56127000Y-68000000D01*
X56127000Y-66027000D01*
X57873000Y-66027000D01*
X57873000Y-68847394D01*
X57873000Y-68847394D01*
G37*
X57873000Y-68847394D02*
X56847394Y-69873000D01*
X50000000Y-69873000D01*
X49950590Y-69883006D01*
X49898400Y-69923800D01*
X49603818Y-70316576D01*
X49324768Y-70595626D01*
X48955674Y-70780173D01*
X48584366Y-70873000D01*
X45377000Y-70873000D01*
X45377000Y-67127000D01*
X48584366Y-67127000D01*
X48955674Y-67219827D01*
X49136132Y-67310056D01*
X49419086Y-67498692D01*
X49701308Y-67780914D01*
X49894330Y-68070447D01*
X49930063Y-68106008D01*
X50000000Y-68127000D01*
X56000000Y-68127000D01*
X56049410Y-68116994D01*
X56091035Y-68088553D01*
X56118315Y-68046159D01*
X56127000Y-68000000D01*
X56127000Y-66027000D01*
X57873000Y-66027000D01*
X57873000Y-68847394D01*
G36*
X119019443Y-56001712D02*
X119490570Y-56567064D01*
X119773000Y-57226067D01*
X119773000Y-63875541D01*
X119608331Y-64287214D01*
X116363957Y-64859751D01*
X116116074Y-64446613D01*
X115927000Y-63879390D01*
X115927000Y-59500000D01*
X115916994Y-59450590D01*
X115888553Y-59408965D01*
X115846159Y-59381685D01*
X115800000Y-59373000D01*
X89400000Y-59373000D01*
X89350590Y-59383006D01*
X89308965Y-59411447D01*
X89281685Y-59453841D01*
X89273000Y-59500000D01*
X89273000Y-63784366D01*
X89176792Y-64169198D01*
X89176024Y-64172450D01*
X88998798Y-64969969D01*
X85779634Y-64875287D01*
X85521199Y-64358418D01*
X85427000Y-63887423D01*
X85427000Y-59500000D01*
X85416994Y-59450590D01*
X85388553Y-59408965D01*
X85346159Y-59381685D01*
X85300000Y-59373000D01*
X45377000Y-59373000D01*
X45377000Y-55627000D01*
X118270020Y-55627000D01*
X119019443Y-56001712D01*
X119019443Y-56001712D01*
G37*
X119019443Y-56001712D02*
X119490570Y-56567064D01*
X119773000Y-57226067D01*
X119773000Y-63875541D01*
X119608331Y-64287214D01*
X116363957Y-64859751D01*
X116116074Y-64446613D01*
X115927000Y-63879390D01*
X115927000Y-59500000D01*
X115916994Y-59450590D01*
X115888553Y-59408965D01*
X115846159Y-59381685D01*
X115800000Y-59373000D01*
X89400000Y-59373000D01*
X89350590Y-59383006D01*
X89308965Y-59411447D01*
X89281685Y-59453841D01*
X89273000Y-59500000D01*
X89273000Y-63784366D01*
X89176792Y-64169198D01*
X89176024Y-64172450D01*
X88998798Y-64969969D01*
X85779634Y-64875287D01*
X85521199Y-64358418D01*
X85427000Y-63887423D01*
X85427000Y-59500000D01*
X85416994Y-59450590D01*
X85388553Y-59408965D01*
X85346159Y-59381685D01*
X85300000Y-59373000D01*
X45377000Y-59373000D01*
X45377000Y-55627000D01*
X118270020Y-55627000D01*
X119019443Y-56001712D01*
G36*
X82930021Y-72407000D02*
X83495964Y-72878619D01*
X83873000Y-73726952D01*
X83873000Y-79500000D01*
X83883006Y-79549410D01*
X83911447Y-79591035D01*
X83953841Y-79618315D01*
X84000000Y-79627000D01*
X110500000Y-79627000D01*
X110549410Y-79616994D01*
X110591035Y-79588553D01*
X110618315Y-79546159D01*
X110627000Y-79500000D01*
X110627000Y-73420610D01*
X110715105Y-73156294D01*
X110867968Y-72927000D01*
X113947394Y-72927000D01*
X114101308Y-73080914D01*
X114282127Y-73352143D01*
X114373000Y-73715634D01*
X114373000Y-81875541D01*
X114188320Y-82337239D01*
X113903818Y-82716576D01*
X113524768Y-83095626D01*
X113158418Y-83278801D01*
X112687423Y-83373000D01*
X81812577Y-83373000D01*
X81341582Y-83278801D01*
X80975232Y-83095626D01*
X80404374Y-82524768D01*
X80317630Y-82351280D01*
X80127000Y-81779390D01*
X80127000Y-73429980D01*
X80308470Y-73067040D01*
X80591927Y-72689097D01*
X81061647Y-72313321D01*
X81620610Y-72127000D01*
X82370020Y-72127000D01*
X82930021Y-72407000D01*
X82930021Y-72407000D01*
G37*
X82930021Y-72407000D02*
X83495964Y-72878619D01*
X83873000Y-73726952D01*
X83873000Y-79500000D01*
X83883006Y-79549410D01*
X83911447Y-79591035D01*
X83953841Y-79618315D01*
X84000000Y-79627000D01*
X110500000Y-79627000D01*
X110549410Y-79616994D01*
X110591035Y-79588553D01*
X110618315Y-79546159D01*
X110627000Y-79500000D01*
X110627000Y-73420610D01*
X110715105Y-73156294D01*
X110867968Y-72927000D01*
X113947394Y-72927000D01*
X114101308Y-73080914D01*
X114282127Y-73352143D01*
X114373000Y-73715634D01*
X114373000Y-81875541D01*
X114188320Y-82337239D01*
X113903818Y-82716576D01*
X113524768Y-83095626D01*
X113158418Y-83278801D01*
X112687423Y-83373000D01*
X81812577Y-83373000D01*
X81341582Y-83278801D01*
X80975232Y-83095626D01*
X80404374Y-82524768D01*
X80317630Y-82351280D01*
X80127000Y-81779390D01*
X80127000Y-73429980D01*
X80308470Y-73067040D01*
X80591927Y-72689097D01*
X81061647Y-72313321D01*
X81620610Y-72127000D01*
X82370020Y-72127000D01*
X82930021Y-72407000D01*
M02*
