M48
INCH,TZ
T1C0.012
T2C0.016
T3C0.026
T4C0.030
T5C0.031
T6C0.032
T7C0.039
T8C0.040
T9C0.047
T10C0.059
T11C0.079
T12C0.264
%
G90
G05
T1
X19980Y-38780
X20276Y-20866
X20374Y-38287
X21063Y-19350
X21358Y-19370
X21457Y-18307
X21496Y-16063
X21732Y-16063
X21969Y-16063
X22205Y-16063
X22205Y-38268
X22210Y-35103
X22210Y-35566
X22441Y-16063
X22441Y-38268
X22598Y-20866
X22603Y-18863
X22603Y-19326
X22672Y-35103
X22672Y-35566
X22677Y-16063
X22677Y-38268
X22913Y-38268
X23066Y-18863
X23066Y-19326
X23150Y-38268
X23386Y-38268
X23819Y-34252
X23898Y-21299
X23917Y-18307
X24016Y-37795
X24252Y-33406
X24606Y-16437
X24606Y-16732
X24961Y-15512
X24961Y-15787
X25039Y-18898
X25039Y-19094
X25039Y-19291
X25039Y-19488
X25039Y-19685
X25039Y-19882
X25039Y-20079
X25039Y-20276
X25197Y-32382
X25787Y-17323
X26772Y-32677
X27165Y-31890
X27638Y-19449
X27638Y-19646
X27638Y-19843
X27638Y-20039
X27638Y-20236
X27638Y-20433
X27953Y-36220
X28602Y-27126
X28602Y-27598
X28740Y-37008
X29075Y-27126
X29075Y-27598
X29331Y-33071
X29331Y-33858
X29882Y-31260
X29882Y-31496
X29882Y-31732
X29882Y-31969
X30118Y-31260
X30118Y-31496
X30118Y-31732
X30118Y-31969
X30354Y-31260
X30354Y-31496
X30354Y-31732
X30354Y-31969
X30906Y-33071
X30906Y-33858
X39665Y-26181
X40354Y-26476
X40512Y-27126
X40512Y-27598
X40984Y-27126
X40984Y-27598
X42402Y-29291
X42402Y-29528
X42402Y-29764
X42402Y-30000
X42638Y-29291
X42638Y-29528
X42638Y-29764
X42638Y-30000
X44646Y-18898
X44646Y-19094
X44646Y-19291
X44646Y-19488
X44646Y-19685
X44646Y-19882
X44646Y-20079
X44646Y-20276
X47402Y-19449
X47402Y-19646
X47402Y-19843
X47402Y-20039
X47402Y-20236
X47402Y-20433
X48622Y-31929
X48780Y-31772
X48937Y-31614
X49094Y-31457
X49252Y-31299
X49409Y-31142
X49606Y-16535
X50512Y-20394
X52264Y-20079
X53110Y-21378
X53150Y-21811
X53248Y-13287
X53543Y-18504
X53543Y-19094
X53543Y-26811
X53543Y-27087
X53740Y-18504
X53740Y-19094
X53740Y-21063
X54724Y-12047
X54724Y-22539
X54724Y-25197
X55020Y-20866
X55413Y-17028
X55630Y-12874
X55709Y-24902
X55807Y-22835
X55984Y-21339
X55984Y-21732
X55984Y-22087
X56024Y-23150
X56024Y-24646
X56201Y-19587
X56220Y-12205
X56594Y-20079
X57244Y-21811
X57795Y-12953
X58346Y-12205
X58661Y-20079
X59134Y-22736
X59331Y-24646
X59350Y-21063
X59350Y-22047
X59350Y-23130
X59547Y-25591
X59606Y-38110
X59606Y-38346
X59764Y-23898
X59843Y-38110
X59843Y-38346
X59941Y-19094
X60079Y-38110
X60079Y-38346
X60138Y-23130
X60236Y-23583
X60315Y-38110
X60315Y-38346
X60512Y-36417
X60551Y-38110
X60551Y-38346
X60630Y-25197
X60630Y-36713
X60787Y-38110
X60787Y-38346
X60925Y-18504
X61024Y-13228
X61122Y-15354
X61299Y-37047
X61417Y-43110
X61417Y-43307
X61417Y-43504
X61417Y-43701
X61417Y-43898
X61713Y-15354
X61811Y-37500
X61909Y-17717
X62618Y-41417
X62618Y-41594
X62618Y-41772
X62618Y-41988
X62618Y-42205
X62992Y-26969
X63366Y-39528
X63366Y-39764
X63366Y-40000
X63366Y-40236
X63484Y-19488
X63701Y-37835
X63831Y-41383
X63831Y-41688
X63976Y-44016
X64272Y-29331
X64319Y-41383
X64319Y-41688
X64331Y-44016
X64764Y-24449
X64764Y-25000
X64764Y-25472
X64764Y-25866
X64803Y-23031
X64803Y-24016
X65118Y-37874
X65157Y-26969
X65315Y-28150
X65354Y-44173
X65591Y-21850
X65748Y-14567
X65827Y-21850
X65846Y-17028
X65945Y-28110
X65984Y-23543
X66220Y-27008
X66299Y-28228
X66575Y-27008
X66614Y-28228
X66634Y-41732
X66634Y-41929
X66634Y-42126
X66634Y-42323
X66732Y-13189
X66772Y-18661
X66831Y-41732
X66831Y-41929
X66831Y-42126
X66831Y-42126
X66831Y-42323
X66831Y-42323
X66870Y-38661
X66870Y-38898
X66870Y-39134
X66890Y-26063
X66890Y-26378
X66929Y-17126
X66929Y-28228
X67008Y-18661
X67008Y-23346
X67008Y-24921
X67028Y-19193
X67047Y-22165
X67106Y-38661
X67106Y-38898
X67106Y-39134
X67165Y-40472
X67283Y-27047
X67343Y-38661
X67343Y-38898
X67343Y-39134
X67362Y-40472
X67441Y-28228
X67520Y-21850
X67559Y-40472
X67579Y-38661
X67579Y-38898
X67579Y-39134
X67717Y-28543
X67756Y-40472
X67795Y-23346
X67795Y-24921
X67815Y-38661
X67815Y-38898
X67815Y-39134
X67913Y-31417
X67953Y-17756
X67953Y-40472
X68051Y-38661
X68051Y-38898
X68051Y-39134
X68150Y-40472
X68189Y-26063
X68189Y-26654
X68189Y-31693
X68287Y-38661
X68287Y-38898
X68287Y-39134
X68307Y-29016
X68307Y-29685
X68307Y-43346
X68346Y-21850
X68504Y-32244
X68661Y-43346
X68701Y-16043
X68898Y-18799
X68976Y-21969
X68996Y-28150
X69094Y-16043
X69094Y-22717
X69134Y-43543
X69173Y-27008
X69488Y-18110
X69488Y-18799
X69783Y-32283
X69803Y-26299
X69843Y-24094
X69843Y-24449
X69921Y-22874
X70079Y-33563
X70157Y-27441
X70177Y-17224
X70945Y-37402
X70984Y-22835
X70984Y-43583
X70984Y-43819
X71063Y-32283
X71181Y-24567
X71220Y-23031
X71260Y-26142
X71358Y-38878
X71378Y-24567
X71555Y-20177
X71575Y-24567
X71575Y-26142
X71752Y-31004
X71811Y-28189
X71890Y-26142
X72047Y-27953
X72146Y-38878
X72205Y-26142
X72283Y-27638
X72520Y-27323
X72539Y-33957
X72559Y-23307
X72559Y-23583
X72559Y-34488
X72756Y-43346
X72756Y-43543
X72756Y-43740
X72756Y-43937
X72756Y-44134
X72756Y-44331
X72835Y-25354
X72835Y-27087
X72835Y-39567
X72835Y-40866
X72854Y-17598
X72854Y-17835
X72854Y-18071
X73071Y-19567
X73071Y-25906
X73150Y-25512
X73248Y-16594
X73307Y-19567
X73543Y-19567
X73602Y-16594
X73780Y-19567
X74646Y-39016
X74646Y-39252
X74882Y-39016
X74882Y-39252
X75000Y-12992
X75000Y-16142
X75000Y-37205
X75118Y-39016
X75118Y-39252
X75354Y-39016
X75354Y-39252
X75492Y-20965
X75591Y-42913
X75630Y-41732
X75630Y-41969
X75787Y-42913
X75827Y-38031
X75965Y-27205
X75984Y-12894
X75984Y-16043
X75984Y-42913
X75984Y-43110
X75984Y-43307
X76260Y-28386
X76260Y-29567
X76260Y-30748
X76614Y-42165
X76811Y-42165
X76969Y-25394
X77008Y-42165
X77087Y-32126
X77205Y-42165
X77402Y-42165
X77598Y-42165
X77638Y-40433
X77874Y-40433
X78839Y-21949
X79528Y-21654
X81457Y-28031
T2
X27677Y-30669
X27953Y-30669
X28228Y-30669
X28346Y-30394
X30315Y-25906
X30433Y-27008
X30433Y-27244
X30472Y-25906
X30630Y-25906
X30630Y-27008
X30630Y-27244
X30787Y-25906
X30827Y-27008
X30827Y-27244
X30945Y-25906
X40000Y-30394
X40276Y-29921
X40276Y-30157
X40276Y-30394
X42323Y-25984
X42323Y-27047
X42323Y-27205
X42480Y-25984
X42520Y-27047
X42520Y-27205
X42638Y-25984
X42717Y-27047
X42717Y-27205
X42795Y-25984
X42913Y-25827
X52362Y-24803
X52559Y-23819
X52953Y-22835
X53150Y-24803
X63701Y-40551
X64409Y-40551
T3
X74697Y-23886
X74697Y-24386
X74697Y-24886
X74697Y-25386
X74697Y-25886
X75197Y-23886
X75197Y-24386
X75197Y-24886
X75197Y-25386
X75197Y-25886
T4
X29134Y-31496
X29921Y-24606
X30709Y-27854
X41831Y-24508
X42717Y-28248
X51260Y-20709
X54882Y-18898
X58661Y-38819
X59449Y-14094
X61614Y-20551
X64567Y-19449
X65591Y-16457
X67362Y-37874
X67874Y-14803
X68819Y-39921
X71654Y-44882
X72047Y-19449
X72146Y-39469
X72933Y-22933
X73780Y-11890
X73937Y-32677
X74094Y-15669
X74331Y-16850
X74803Y-32677
X76535Y-36929
X76929Y-34961
X77717Y-31890
X78268Y-24803
T5
X26575Y-12205
X29528Y-41732
X30906Y-12205
X33858Y-41732
T6
X64248Y-32661
X64248Y-34661
X67248Y-32661
X67248Y-34661
T7
X28543Y-15157
X28543Y-18307
X28543Y-35350
X28543Y-38500
X54547Y-27953
X55547Y-27953
X56547Y-27953
X58547Y-27953
X59547Y-27953
X77657Y-12894
X77657Y-15748
X79134Y-30709
X79134Y-32874
X79134Y-34843
X79134Y-37008
X79134Y-38976
X79134Y-40945
X79134Y-44094
X79626Y-11909
X79626Y-14764
X80079Y-24803
X81079Y-24803
X81102Y-29724
X81102Y-33858
X81102Y-37992
X81102Y-39961
X81102Y-43110
X82079Y-24803
T8
X32677Y-44488
X35827Y-12205
X46457Y-12205
X46457Y-42913
X60433Y-44685
X62402Y-12008
X68406Y-12008
X69291Y-34547
X70291Y-34547
X74776Y-18110
X75776Y-18110
X76776Y-18110
X77776Y-18110
X78776Y-18110
X79776Y-18110
X80709Y-20472
X80776Y-18110
X81709Y-20472
X81776Y-18110
X82709Y-20472
X82776Y-18110
T9
X59600Y-31250
X60616Y-31250
X61600Y-31250
T10
X20241Y-25197
X20241Y-29134
X22441Y-25197
X22441Y-29134
X24641Y-25197
X24641Y-29134
X32249Y-25197
X32249Y-29134
X34449Y-25197
X34449Y-29134
X36649Y-25197
X36649Y-29134
X44257Y-25197
X44257Y-29134
X46457Y-25197
X46457Y-29134
X48657Y-25197
X48657Y-29134
T11
X52600Y-30500
X52600Y-35000
X53600Y-30500
X53600Y-35000
X54600Y-30500
X54600Y-35000
T12
X15945Y-21457
X15945Y-27165
X15945Y-32874
X37795Y-43110
X56102Y-43110
T0
M30
