G04 #@! TF.FileFunction,Copper,L3,Inr,Plane*
%FSLAX46Y46*%
G04 Gerber Fmt 4.6, Leading zero omitted, Abs format (unit mm)*
G04 Created by KiCad (PCBNEW 4.0.5+dfsg1-4) date Tue Nov 14 05:44:59 2017*
%MOMM*%
%LPD*%
G01*
G04 APERTURE LIST*
%ADD10C,0.100000*%
%ADD11R,2.235200X2.235200*%
%ADD12C,0.600000*%
%ADD13R,1.050000X1.050000*%
%ADD14C,1.050000*%
%ADD15C,1.750000*%
%ADD16O,3.500120X4.501640*%
%ADD17C,2.000000*%
%ADD18O,3.000000X4.000000*%
%ADD19R,2.032000X2.032000*%
%ADD20O,2.032000X2.032000*%
%ADD21C,1.397000*%
%ADD22C,1.800000*%
%ADD23R,2.032000X1.727200*%
%ADD24O,2.032000X1.727200*%
%ADD25C,1.524000*%
%ADD26R,10.000000X10.000000*%
%ADD27R,1.727200X2.032000*%
%ADD28O,1.727200X2.032000*%
%ADD29C,2.200000*%
%ADD30R,1.000000X1.000000*%
%ADD31R,1.400000X1.000000*%
%ADD32C,0.254000*%
%ADD33C,0.508000*%
%ADD34C,2.000000*%
%ADD35C,1.000000*%
%ADD36C,0.025500*%
%ADD37C,0.381000*%
G04 APERTURE END LIST*
D10*
D11*
X71000000Y-99000000D03*
X37000000Y-22000000D03*
D12*
X193250000Y-84250000D03*
X192750000Y-84250000D03*
X192250000Y-84250000D03*
X191750000Y-84250000D03*
X191250000Y-84250000D03*
X190750000Y-84250000D03*
D13*
X192500000Y-63250000D03*
D14*
X192500000Y-61980000D03*
X192500000Y-60710000D03*
X192500000Y-59440000D03*
X192500000Y-58170000D03*
X191230000Y-61980000D03*
X191230000Y-60710000D03*
X191230000Y-59440000D03*
X191230000Y-58170000D03*
X191230000Y-63250000D03*
D15*
X201500000Y-104000000D03*
X199000000Y-109000000D03*
X194000000Y-109000000D03*
X196500000Y-104000000D03*
D16*
X57000000Y-64000000D03*
X62588000Y-64000000D03*
X51412000Y-64000000D03*
D12*
X125500000Y-79100000D03*
X123500000Y-81100000D03*
X108300000Y-76200000D03*
X108300000Y-75600000D03*
X108300000Y-75000000D03*
X108300000Y-74400000D03*
X77100000Y-81200000D03*
X76500000Y-81200000D03*
X75900000Y-81200000D03*
X77100000Y-80600000D03*
X76500000Y-80600000D03*
X75900000Y-80600000D03*
X77100000Y-80000000D03*
X76500000Y-80000000D03*
X75900000Y-80000000D03*
X77100000Y-79400000D03*
X76500000Y-79400000D03*
X136500000Y-48500000D03*
X136000000Y-48500000D03*
X136500000Y-47000000D03*
X108400000Y-51900000D03*
X108400000Y-51400000D03*
X108400000Y-50900000D03*
X108400000Y-50400000D03*
X108400000Y-49900000D03*
X101400000Y-51500000D03*
X101400000Y-51000000D03*
X101400000Y-50500000D03*
X101400000Y-50000000D03*
X101400000Y-49500000D03*
X101400000Y-49000000D03*
X101400000Y-48500000D03*
X64100000Y-51500000D03*
X64100000Y-51000000D03*
X64100000Y-50500000D03*
X64100000Y-50000000D03*
X64100000Y-49500000D03*
X64100000Y-49000000D03*
X64100000Y-48500000D03*
X70700000Y-51900000D03*
X70700000Y-51400000D03*
X70700000Y-50900000D03*
X70700000Y-50400000D03*
X70700000Y-49900000D03*
X125100000Y-79500000D03*
X124700000Y-79900000D03*
X124300000Y-80300000D03*
X107700000Y-76200000D03*
X107700000Y-75600000D03*
X107700000Y-75000000D03*
X178650000Y-44450000D03*
X178050000Y-44450000D03*
X182450000Y-42100000D03*
X182450000Y-42700000D03*
X182450000Y-43300000D03*
X169750000Y-106000000D03*
X169250000Y-106000000D03*
X173450000Y-99400000D03*
X172850000Y-99400000D03*
X172250000Y-99400000D03*
X171650000Y-99400000D03*
X171050000Y-99400000D03*
X170450000Y-99400000D03*
X169850000Y-99400000D03*
X173450000Y-98800000D03*
X172850000Y-98800000D03*
X172250000Y-98800000D03*
X171650000Y-98800000D03*
X171050000Y-98800000D03*
X170450000Y-98800000D03*
X169850000Y-98800000D03*
X173450000Y-98200000D03*
X172850000Y-98200000D03*
X172250000Y-98200000D03*
X171650000Y-98200000D03*
X171050000Y-98200000D03*
X170450000Y-98200000D03*
X169850000Y-98200000D03*
X160950000Y-102200000D03*
X160950000Y-101600000D03*
X160950000Y-101000000D03*
X154400000Y-97400000D03*
X153800000Y-97400000D03*
X153200000Y-97400000D03*
X152600000Y-97400000D03*
X152000000Y-97400000D03*
X151400000Y-97400000D03*
X154400000Y-96800000D03*
X153800000Y-96800000D03*
X153200000Y-96800000D03*
X152600000Y-96800000D03*
X152000000Y-96800000D03*
X88350000Y-31800000D03*
X87750000Y-31800000D03*
X87150000Y-31800000D03*
X86550000Y-31800000D03*
X85950000Y-31800000D03*
X180600000Y-91800000D03*
X181200000Y-91800000D03*
X181800000Y-91800000D03*
X182400000Y-91800000D03*
X180600000Y-92400000D03*
X181200000Y-92400000D03*
X181800000Y-92400000D03*
X186650000Y-100050000D03*
X187150000Y-100050000D03*
X187650000Y-100050000D03*
X188150000Y-100050000D03*
X188650000Y-100050000D03*
X185850000Y-109850000D03*
X185350000Y-109850000D03*
X184850000Y-109850000D03*
X184350000Y-109850000D03*
X183850000Y-109850000D03*
X173100000Y-102800000D03*
X172600000Y-102800000D03*
X172100000Y-102800000D03*
X171600000Y-102800000D03*
X171100000Y-102800000D03*
X156000000Y-111500000D03*
X156000000Y-111000000D03*
X156000000Y-110500000D03*
X156000000Y-110000000D03*
X169750000Y-106500000D03*
X169250000Y-106500000D03*
X169750000Y-107000000D03*
X169750000Y-107500000D03*
X169750000Y-107500000D03*
X169250000Y-107500000D03*
X169750000Y-107000000D03*
X169250000Y-107000000D03*
X159050000Y-105200000D03*
X159050000Y-107200000D03*
X159050000Y-106650000D03*
X159050000Y-106100000D03*
D17*
X156464000Y-79375000D03*
X153964000Y-79375000D03*
D18*
X133604000Y-77470000D03*
X136144000Y-77470000D03*
X138684000Y-77470000D03*
X138684000Y-88900000D03*
X136144000Y-88900000D03*
X133604000Y-88900000D03*
D17*
X151384000Y-79375000D03*
D19*
X171000000Y-82000000D03*
D20*
X173540000Y-82000000D03*
D21*
X167290000Y-79810000D03*
X162210000Y-79810000D03*
X167290000Y-72190000D03*
X162210000Y-72190000D03*
D22*
X151250000Y-71000000D03*
X148710000Y-71000000D03*
X141090000Y-71000000D03*
X143630000Y-71000000D03*
X138550000Y-71000000D03*
D23*
X199000000Y-51000000D03*
D24*
X199000000Y-48460000D03*
X199000000Y-45920000D03*
D25*
X92000000Y-34000000D03*
X99778175Y-41778175D03*
D26*
X40500000Y-54500000D03*
X40500000Y-83500000D03*
X40500000Y-69000000D03*
X96000000Y-109500000D03*
X142500000Y-109500000D03*
D12*
X73850000Y-70100000D03*
X73850000Y-68900000D03*
X72650000Y-70100000D03*
X72650000Y-68900000D03*
X104100000Y-70100000D03*
X104100000Y-68900000D03*
X102900000Y-70100000D03*
X102900000Y-68900000D03*
D27*
X200000000Y-22000000D03*
D28*
X197460000Y-22000000D03*
X194920000Y-22000000D03*
X192380000Y-22000000D03*
X189840000Y-22000000D03*
X187300000Y-22000000D03*
X184760000Y-22000000D03*
X182220000Y-22000000D03*
X179680000Y-22000000D03*
D12*
X159050000Y-105650000D03*
X151400000Y-96800000D03*
X156000000Y-109500000D03*
X170600000Y-102800000D03*
X183350000Y-109850000D03*
X189150000Y-100050000D03*
X182400000Y-92400000D03*
D25*
X151000000Y-35800000D03*
X186600000Y-48000000D03*
X156500000Y-47200000D03*
X159000000Y-34750000D03*
X163000000Y-45500000D03*
X171800000Y-33500000D03*
X175500000Y-21000000D03*
X165750000Y-21000000D03*
X172000000Y-96000000D03*
X177000000Y-94800000D03*
X164000000Y-82400000D03*
X176700000Y-28000000D03*
X149000000Y-98600000D03*
X174100000Y-101400000D03*
X192250000Y-95750000D03*
X130200000Y-52600000D03*
X183250000Y-104250000D03*
X139400000Y-48000000D03*
X180250000Y-67500000D03*
X182750000Y-73500000D03*
X196400000Y-63600000D03*
X196500000Y-69500000D03*
X181000000Y-53250000D03*
X74000000Y-80000000D03*
X106250000Y-62250000D03*
X108500000Y-71750000D03*
X78000000Y-70750000D03*
X76000000Y-62500000D03*
D12*
X85350000Y-31800000D03*
X160950000Y-100400000D03*
X182450000Y-43900000D03*
X107700000Y-74400000D03*
X123900000Y-80700000D03*
X70700000Y-49400000D03*
X64100000Y-48000000D03*
X101400000Y-48000000D03*
X108400000Y-49400000D03*
X136000000Y-47000000D03*
D11*
X194000000Y-32500000D03*
X154000000Y-22000000D03*
D12*
X75900000Y-79400000D03*
D16*
X87500000Y-64000000D03*
X93088000Y-64000000D03*
X81912000Y-64000000D03*
X57000000Y-74000000D03*
X51412000Y-74000000D03*
X62588000Y-74000000D03*
X87500000Y-74000000D03*
X81912000Y-74000000D03*
X93088000Y-74000000D03*
X118000000Y-74000000D03*
X112412000Y-74000000D03*
X123588000Y-74000000D03*
X118000000Y-64000000D03*
X123588000Y-64000000D03*
X112412000Y-64000000D03*
D29*
X50000000Y-31750000D03*
X50000000Y-24250000D03*
X105000000Y-31750000D03*
X105000000Y-24250000D03*
X70000000Y-31750000D03*
X70000000Y-24250000D03*
X125000000Y-31750000D03*
X125000000Y-24250000D03*
D30*
X88550000Y-23100000D03*
X86450000Y-23100000D03*
D31*
X87500000Y-23100000D03*
D30*
X85550000Y-23100000D03*
X84650000Y-25000000D03*
X84650000Y-25900000D03*
X84650000Y-26800000D03*
X84650000Y-23200000D03*
X90350000Y-27700000D03*
X90350000Y-26800000D03*
X90350000Y-25900000D03*
X90350000Y-25000000D03*
X90350000Y-24100000D03*
X90350000Y-23200000D03*
X89450000Y-23100000D03*
X84650000Y-27700000D03*
X84650000Y-24100000D03*
D23*
X199000000Y-68000000D03*
D24*
X199000000Y-65460000D03*
X199000000Y-62920000D03*
D23*
X199000000Y-83000000D03*
D24*
X199000000Y-80460000D03*
X199000000Y-77920000D03*
X199000000Y-75380000D03*
X199000000Y-72840000D03*
D19*
X160000000Y-22000000D03*
D20*
X162540000Y-22000000D03*
D17*
X169250000Y-86750000D03*
X166710000Y-86750000D03*
X164170000Y-86750000D03*
D19*
X197000000Y-91000000D03*
D20*
X197000000Y-88460000D03*
D19*
X192500000Y-67750000D03*
D20*
X192500000Y-70290000D03*
D23*
X199000000Y-41000000D03*
D24*
X199000000Y-38460000D03*
X199000000Y-35920000D03*
X199000000Y-33380000D03*
D11*
X153500000Y-113500000D03*
X179000000Y-106000000D03*
X139000000Y-22000000D03*
X118000000Y-106000000D03*
D19*
X170000000Y-22000000D03*
D20*
X172540000Y-22000000D03*
D12*
X190250000Y-84250000D03*
X154000000Y-57500000D03*
X166750000Y-68750000D03*
X182400000Y-64600000D03*
X175400000Y-94600000D03*
X179200000Y-82200000D03*
X186200000Y-81600000D03*
X185000000Y-81600000D03*
X193600000Y-81200000D03*
X189750000Y-77250000D03*
X181500000Y-77500000D03*
X186750000Y-64500000D03*
X182500000Y-28250000D03*
X183250000Y-45750000D03*
X177750000Y-46750000D03*
X175500000Y-56750000D03*
X176500000Y-57000000D03*
X174750000Y-55000000D03*
X181000000Y-69000000D03*
X185750000Y-94250000D03*
X190750000Y-100500000D03*
X191500000Y-97750000D03*
X170750000Y-42000000D03*
X170000000Y-36000000D03*
X173000000Y-43750000D03*
X172250000Y-43750000D03*
X157000000Y-28500000D03*
X155750000Y-33250000D03*
X162500000Y-38750000D03*
X164250000Y-35000000D03*
X167000000Y-34750000D03*
X169000000Y-26250000D03*
X159000000Y-26250000D03*
X154750000Y-42500000D03*
X164000000Y-44000000D03*
X154000000Y-64000000D03*
X152250000Y-48500000D03*
X180250000Y-109500000D03*
X162130000Y-105112500D03*
X163370000Y-105112500D03*
X163370000Y-105887500D03*
X162130000Y-105887500D03*
X164500000Y-57100000D03*
X174900000Y-42550000D03*
X174900000Y-43450000D03*
X167600000Y-54800000D03*
X175500000Y-52700000D03*
X170200000Y-54300000D03*
X172200000Y-54300000D03*
X169900000Y-62000000D03*
X169900000Y-61200000D03*
X173600000Y-50500000D03*
X164500000Y-59700000D03*
X164500000Y-60700000D03*
X170300000Y-51300000D03*
X170900000Y-63700000D03*
X165500000Y-63500000D03*
X165400000Y-96200000D03*
X163400000Y-111800000D03*
X166000000Y-112200000D03*
X153700000Y-92500000D03*
X155700000Y-94100000D03*
X162500000Y-111800000D03*
X174400000Y-110100000D03*
X173500000Y-110100000D03*
X154000000Y-93250000D03*
X157000000Y-95250000D03*
X150750000Y-56000000D03*
X150750000Y-58750000D03*
X150750000Y-53500000D03*
X149000000Y-51000000D03*
X150700000Y-62600000D03*
X160000000Y-63500000D03*
X173500000Y-70400000D03*
X173500000Y-68700000D03*
X161250000Y-45000000D03*
X190750000Y-52500000D03*
X175600000Y-110600000D03*
X193600000Y-82800000D03*
X175400000Y-88600000D03*
X179200000Y-84800000D03*
X76000000Y-38250000D03*
X74587500Y-45087500D03*
X73412500Y-45087500D03*
X73412500Y-43912500D03*
X74587500Y-43912500D03*
X71587500Y-90162500D03*
X71587500Y-91337500D03*
X70412500Y-91337500D03*
X70412500Y-90162500D03*
X64750000Y-87500000D03*
X65500000Y-87500000D03*
X61750000Y-82500000D03*
X132750000Y-51000000D03*
X51500000Y-49500000D03*
X89500000Y-37250000D03*
X136000000Y-68800000D03*
X136000000Y-68100000D03*
X128300000Y-51800000D03*
X139000000Y-30600000D03*
X148200000Y-31000000D03*
X142800000Y-31000000D03*
X139750000Y-53000000D03*
X142750000Y-49750000D03*
X143750000Y-51000000D03*
X139000000Y-64000000D03*
X139000000Y-57250000D03*
X142200000Y-56100000D03*
X142300000Y-62600000D03*
X142300000Y-58800000D03*
X171500000Y-50500000D03*
X186000000Y-76750000D03*
X177750000Y-76750000D03*
X189500000Y-64750000D03*
X184000000Y-64500000D03*
X182500000Y-33500000D03*
X162250000Y-66250000D03*
X177500000Y-57000000D03*
X150200000Y-57750000D03*
X151250000Y-65000000D03*
X170200000Y-58300000D03*
X172200000Y-58300000D03*
X164600000Y-53500000D03*
X164600000Y-56000000D03*
X164500000Y-58500000D03*
X175200000Y-50800000D03*
X177600000Y-53100000D03*
X167200000Y-50500000D03*
X166600000Y-50500000D03*
X177300000Y-61800000D03*
X175700000Y-63600000D03*
X169100000Y-63600000D03*
X168200000Y-63600000D03*
X168000000Y-35000000D03*
X170000000Y-47250000D03*
X141500000Y-63250000D03*
X141750000Y-58000000D03*
X78000000Y-40500000D03*
X140750000Y-43250000D03*
X136500000Y-53500000D03*
X180000000Y-48000000D03*
X77000000Y-65800000D03*
X77400000Y-65800000D03*
X78600000Y-65800000D03*
X78200000Y-65800000D03*
X77800000Y-65800000D03*
X155000000Y-40500000D03*
X162500000Y-41000000D03*
X167500000Y-66250000D03*
X76000000Y-50250000D03*
X142200000Y-54200000D03*
X134900000Y-54300000D03*
X75750000Y-91750000D03*
X145400000Y-55400000D03*
X69000000Y-81000000D03*
X133000000Y-63000000D03*
X74500000Y-84000000D03*
X78500000Y-84000000D03*
X78500000Y-86000000D03*
X74500000Y-86000000D03*
X68000000Y-83000000D03*
X135000000Y-63000000D03*
X134500000Y-58000000D03*
X100750000Y-66500000D03*
X102500000Y-67250000D03*
X133500000Y-60500000D03*
X142200000Y-55200000D03*
X135000000Y-55400000D03*
X73500000Y-50500000D03*
X108700000Y-66000000D03*
X109000000Y-65600000D03*
X108300000Y-66000000D03*
X107900000Y-66000000D03*
X107500000Y-66000000D03*
X152250000Y-60750000D03*
X153500000Y-59500000D03*
X175200000Y-66200000D03*
X185750000Y-91000000D03*
X170700000Y-66700000D03*
X170750000Y-77500000D03*
X171500000Y-66700000D03*
X174750000Y-80750000D03*
X172400000Y-66700000D03*
X186000000Y-80000000D03*
X177750000Y-78500000D03*
X172250000Y-77250000D03*
X182900000Y-63600000D03*
X182300000Y-63000000D03*
X176100000Y-46700000D03*
X193800000Y-77600000D03*
X185400000Y-80800000D03*
X185750000Y-79000000D03*
X167250000Y-43250000D03*
X167250000Y-39750000D03*
X56000000Y-53000000D03*
X76250000Y-43250000D03*
X83500000Y-34750000D03*
X73000000Y-39750000D03*
X171000000Y-36000000D03*
X165750000Y-35000000D03*
X175250000Y-46500000D03*
X175250000Y-44750000D03*
X154250000Y-33250000D03*
X173750000Y-26250000D03*
X163750000Y-26250000D03*
X108500000Y-69100000D03*
X108500000Y-68700000D03*
X108000000Y-69100000D03*
X107500000Y-69100000D03*
X108000000Y-68700000D03*
X107500000Y-68700000D03*
X78300000Y-69200000D03*
X77800000Y-69200000D03*
X78300000Y-68600000D03*
X77800000Y-68600000D03*
X77300000Y-69200000D03*
X77300000Y-68600000D03*
X101600000Y-77200000D03*
X102300000Y-77200000D03*
X102300000Y-76600000D03*
X102300000Y-76000000D03*
X71000000Y-77900000D03*
X70300000Y-77900000D03*
X71700000Y-77900000D03*
X72000000Y-77200000D03*
X161800000Y-96100000D03*
X163600000Y-103000000D03*
X161800000Y-103000000D03*
X177500000Y-55000000D03*
X173200000Y-61200000D03*
X173200000Y-62700000D03*
X146800000Y-32900000D03*
X141300000Y-32700000D03*
X51500000Y-53000000D03*
X182000000Y-55500000D03*
X181500000Y-54750000D03*
D32*
X162130000Y-105112500D02*
X162130000Y-105110000D01*
X163370000Y-105112500D02*
X163370000Y-105110000D01*
X163370000Y-105887500D02*
X163370000Y-105890000D01*
X162130000Y-105887500D02*
X162130000Y-105890000D01*
D33*
X192750000Y-54500000D02*
X195000000Y-56750000D01*
X190750000Y-52500000D02*
X192750000Y-54500000D01*
X195000000Y-86460000D02*
X197000000Y-88460000D01*
X195000000Y-56750000D02*
X195000000Y-86460000D01*
D32*
X196500000Y-87960000D02*
X197000000Y-88460000D01*
D34*
X167750000Y-95500000D02*
X164250000Y-92000000D01*
X168750000Y-101750000D02*
X167750000Y-100750000D01*
X167750000Y-100750000D02*
X167750000Y-95500000D01*
X153964000Y-79375000D02*
X153964000Y-81714000D01*
X168750000Y-101750000D02*
X168750000Y-105750000D01*
X153964000Y-86964000D02*
X153964000Y-81714000D01*
X159000000Y-92000000D02*
X153964000Y-86964000D01*
X164250000Y-92000000D02*
X159000000Y-92000000D01*
X177250000Y-109000000D02*
X180500000Y-112250000D01*
X177250000Y-109000000D02*
X175250000Y-107000000D01*
X169750000Y-107000000D02*
X175250000Y-107000000D01*
X190500000Y-112250000D02*
X193750000Y-109000000D01*
X180500000Y-112250000D02*
X190500000Y-112250000D01*
X153964000Y-79375000D02*
X153964000Y-73714000D01*
X153964000Y-73714000D02*
X151250000Y-71000000D01*
D35*
X156000000Y-110500000D02*
X156000000Y-111500000D01*
X156000000Y-110500000D02*
X156000000Y-109500000D01*
X153000000Y-98500000D02*
X153000000Y-108250000D01*
D34*
X151384000Y-96884000D02*
X153000000Y-98500000D01*
X151384000Y-79375000D02*
X151384000Y-96884000D01*
D35*
X155250000Y-110500000D02*
X156000000Y-110500000D01*
X153000000Y-108250000D02*
X155250000Y-110500000D01*
D32*
X182450000Y-42100000D02*
X184000000Y-40550000D01*
X184000000Y-35000000D02*
X182500000Y-33500000D01*
X184000000Y-40550000D02*
X184000000Y-35000000D01*
D35*
X80750000Y-51250000D02*
X78000000Y-48500000D01*
X136000000Y-47000000D02*
X129000000Y-47000000D01*
X80750000Y-51250000D02*
X93250000Y-51250000D01*
X93250000Y-51250000D02*
X99250000Y-45250000D01*
X99250000Y-45250000D02*
X107750000Y-45250000D01*
X107750000Y-45250000D02*
X113750000Y-51250000D01*
X113750000Y-51250000D02*
X121750000Y-51250000D01*
X121750000Y-51250000D02*
X126000000Y-47000000D01*
X126000000Y-47000000D02*
X129000000Y-47000000D01*
X78000000Y-48500000D02*
X78000000Y-40500000D01*
D34*
X76500000Y-87250000D02*
X77500000Y-88250000D01*
X76500000Y-80000000D02*
X76500000Y-87250000D01*
X119100000Y-87000000D02*
X81250000Y-87000000D01*
X119800000Y-86300000D02*
X125250000Y-80850000D01*
X119800000Y-86300000D02*
X119100000Y-87000000D01*
X80000000Y-88250000D02*
X81250000Y-87000000D01*
X77500000Y-88250000D02*
X80000000Y-88250000D01*
D33*
X125250000Y-80850000D02*
X124850000Y-80850000D01*
X124850000Y-80850000D02*
X124300000Y-80300000D01*
D34*
X138550000Y-71000000D02*
X135100000Y-71000000D01*
X135100000Y-71000000D02*
X125250000Y-80850000D01*
D35*
X137000000Y-47250000D02*
X140750000Y-43500000D01*
X140750000Y-43500000D02*
X140750000Y-43250000D01*
X137000000Y-55000000D02*
X137000000Y-49800000D01*
D34*
X138550000Y-66300000D02*
X137000000Y-64750000D01*
X137000000Y-64750000D02*
X137000000Y-55000000D01*
X138550000Y-66300000D02*
X138550000Y-71000000D01*
D35*
X137000000Y-49800000D02*
X137000000Y-47250000D01*
D33*
X85750000Y-54300000D02*
X80050000Y-54300000D01*
X80050000Y-54300000D02*
X76000000Y-50250000D01*
X85800000Y-54300000D02*
X85750000Y-54300000D01*
X85750000Y-54300000D02*
X134900000Y-54300000D01*
X120750000Y-99500000D02*
X124250000Y-96000000D01*
X75750000Y-91750000D02*
X83500000Y-99500000D01*
X120750000Y-99500000D02*
X83500000Y-99500000D01*
X124250000Y-93000000D02*
X135550000Y-81700000D01*
X124250000Y-96000000D02*
X124250000Y-93000000D01*
X145400000Y-55400000D02*
X145400000Y-76500000D01*
X140200000Y-81700000D02*
X135550000Y-81700000D01*
X145400000Y-76500000D02*
X140200000Y-81700000D01*
X119500000Y-82000000D02*
X117500000Y-84000000D01*
X69000000Y-81000000D02*
X70000000Y-82000000D01*
X133000000Y-63000000D02*
X133000000Y-68500000D01*
X133000000Y-68500000D02*
X132000000Y-69500000D01*
X132000000Y-69500000D02*
X119500000Y-82000000D01*
X72000000Y-84000000D02*
X70000000Y-82000000D01*
X74500000Y-84000000D02*
X72000000Y-84000000D01*
X117500000Y-84000000D02*
X78500000Y-84000000D01*
X118000000Y-85000000D02*
X79500000Y-85000000D01*
X74500000Y-86000000D02*
X71000000Y-86000000D01*
X71000000Y-86000000D02*
X70000000Y-85000000D01*
X68000000Y-83000000D02*
X70000000Y-85000000D01*
X119000000Y-84000000D02*
X118000000Y-85000000D01*
X135000000Y-68000000D02*
X135000000Y-64000000D01*
X135000000Y-63000000D02*
X135000000Y-64000000D01*
X135000000Y-68000000D02*
X119000000Y-84000000D01*
X79500000Y-85000000D02*
X78500000Y-86000000D01*
X102000000Y-58000000D02*
X102000000Y-65250000D01*
X134500000Y-58000000D02*
X102000000Y-58000000D01*
X102000000Y-65250000D02*
X100750000Y-66500000D01*
X103000000Y-66750000D02*
X102500000Y-67250000D01*
X103000000Y-60250000D02*
X103000000Y-62500000D01*
X103000000Y-62500000D02*
X103000000Y-66750000D01*
D32*
X103000000Y-60250000D02*
X103000000Y-60250000D01*
D33*
X103000000Y-60250000D02*
X132500000Y-60250000D01*
X132500000Y-60250000D02*
X133500000Y-60500000D01*
X85500000Y-56000000D02*
X79000000Y-56000000D01*
X133400000Y-56000000D02*
X85500000Y-56000000D01*
X135000000Y-55400000D02*
X134400000Y-56000000D01*
X134400000Y-56000000D02*
X133400000Y-56000000D01*
X79000000Y-56000000D02*
X73500000Y-50500000D01*
X66250000Y-53000000D02*
X56000000Y-53000000D01*
X66750000Y-52500000D02*
X66250000Y-53000000D01*
X66750000Y-48250000D02*
X66750000Y-52500000D01*
X72750000Y-42250000D02*
X66750000Y-48250000D01*
X75250000Y-42250000D02*
X72750000Y-42250000D01*
X76250000Y-43250000D02*
X75250000Y-42250000D01*
X78000000Y-34750000D02*
X83500000Y-34750000D01*
X73000000Y-39750000D02*
X78000000Y-34750000D01*
D35*
X123588000Y-74000000D02*
X123588000Y-74412000D01*
X123588000Y-74412000D02*
X120000000Y-78000000D01*
X120000000Y-78000000D02*
X103000000Y-78000000D01*
X103000000Y-78000000D02*
X102000000Y-77000000D01*
X93088000Y-74000000D02*
X89388000Y-77700000D01*
X89388000Y-77700000D02*
X72200000Y-77700000D01*
D32*
X161800000Y-103000000D02*
X161800000Y-96100000D01*
X163600000Y-103000000D02*
X161800000Y-103000000D01*
D33*
X51500000Y-53000000D02*
X51500000Y-63912000D01*
X51500000Y-63912000D02*
X51412000Y-64000000D01*
D36*
G36*
X94787250Y-64994979D02*
X89290674Y-70891306D01*
X89288026Y-70895619D01*
X89287250Y-70900000D01*
X89287250Y-74787250D01*
X85712750Y-74787250D01*
X85712750Y-71900000D01*
X85711745Y-71895040D01*
X85709369Y-71891352D01*
X84509369Y-70591352D01*
X84505266Y-70588388D01*
X84500000Y-70587250D01*
X81405282Y-70587250D01*
X78509016Y-67690984D01*
X78504798Y-67688187D01*
X78500000Y-67687250D01*
X77605282Y-67687250D01*
X76612750Y-66694718D01*
X76612750Y-65412750D01*
X78894718Y-65412750D01*
X80490984Y-67009016D01*
X80495202Y-67011813D01*
X80500000Y-67012750D01*
X89400000Y-67012750D01*
X89404960Y-67011745D01*
X89409016Y-67009016D01*
X91409016Y-65009016D01*
X91411813Y-65004798D01*
X91412750Y-65000000D01*
X91412750Y-63112750D01*
X94787250Y-63112750D01*
X94787250Y-64994979D01*
X94787250Y-64994979D01*
G37*
X94787250Y-64994979D02*
X89290674Y-70891306D01*
X89288026Y-70895619D01*
X89287250Y-70900000D01*
X89287250Y-74787250D01*
X85712750Y-74787250D01*
X85712750Y-71900000D01*
X85711745Y-71895040D01*
X85709369Y-71891352D01*
X84509369Y-70591352D01*
X84505266Y-70588388D01*
X84500000Y-70587250D01*
X81405282Y-70587250D01*
X78509016Y-67690984D01*
X78504798Y-67688187D01*
X78500000Y-67687250D01*
X77605282Y-67687250D01*
X76612750Y-66694718D01*
X76612750Y-65412750D01*
X78894718Y-65412750D01*
X80490984Y-67009016D01*
X80495202Y-67011813D01*
X80500000Y-67012750D01*
X89400000Y-67012750D01*
X89404960Y-67011745D01*
X89409016Y-67009016D01*
X91409016Y-65009016D01*
X91411813Y-65004798D01*
X91412750Y-65000000D01*
X91412750Y-63112750D01*
X94787250Y-63112750D01*
X94787250Y-64994979D01*
G36*
X124987250Y-66294718D02*
X119590984Y-71690984D01*
X119588187Y-71695202D01*
X119587250Y-71700000D01*
X119587250Y-74887250D01*
X116412750Y-74887250D01*
X116412750Y-71900000D01*
X116411745Y-71895040D01*
X116409016Y-71890984D01*
X115109016Y-70590984D01*
X115104798Y-70588187D01*
X115100000Y-70587250D01*
X111405282Y-70587250D01*
X108109016Y-67290984D01*
X108104798Y-67288187D01*
X108100000Y-67287250D01*
X107012750Y-67287250D01*
X107012750Y-65312750D01*
X108895877Y-65312750D01*
X110692535Y-66610336D01*
X110697144Y-66612426D01*
X110700000Y-66612750D01*
X121100000Y-66612750D01*
X121104960Y-66611745D01*
X121109795Y-66608162D01*
X122109795Y-65408162D01*
X122112199Y-65403709D01*
X122112750Y-65400000D01*
X122112750Y-63212750D01*
X124987250Y-63212750D01*
X124987250Y-66294718D01*
X124987250Y-66294718D01*
G37*
X124987250Y-66294718D02*
X119590984Y-71690984D01*
X119588187Y-71695202D01*
X119587250Y-71700000D01*
X119587250Y-74887250D01*
X116412750Y-74887250D01*
X116412750Y-71900000D01*
X116411745Y-71895040D01*
X116409016Y-71890984D01*
X115109016Y-70590984D01*
X115104798Y-70588187D01*
X115100000Y-70587250D01*
X111405282Y-70587250D01*
X108109016Y-67290984D01*
X108104798Y-67288187D01*
X108100000Y-67287250D01*
X107012750Y-67287250D01*
X107012750Y-65312750D01*
X108895877Y-65312750D01*
X110692535Y-66610336D01*
X110697144Y-66612426D01*
X110700000Y-66612750D01*
X121100000Y-66612750D01*
X121104960Y-66611745D01*
X121109795Y-66608162D01*
X122109795Y-65408162D01*
X122112199Y-65403709D01*
X122112750Y-65400000D01*
X122112750Y-63212750D01*
X124987250Y-63212750D01*
X124987250Y-66294718D01*
D32*
G36*
X178273807Y-34073000D02*
X176300000Y-34073000D01*
X176250590Y-34083006D01*
X176208965Y-34111447D01*
X176181685Y-34153841D01*
X176173003Y-34199066D01*
X176123003Y-40999066D01*
X176132646Y-41048549D01*
X176160780Y-41090381D01*
X176202972Y-41117972D01*
X176250000Y-41127000D01*
X179373000Y-41127000D01*
X179373000Y-47734185D01*
X179319118Y-47863946D01*
X179318882Y-48134865D01*
X179373000Y-48265842D01*
X179373000Y-52923000D01*
X178263708Y-52923000D01*
X178177661Y-52714748D01*
X177986259Y-52523013D01*
X177736054Y-52419118D01*
X177465135Y-52418882D01*
X177214748Y-52522339D01*
X177023013Y-52713741D01*
X176936120Y-52923000D01*
X176144779Y-52923000D01*
X176180882Y-52836054D01*
X176181118Y-52565135D01*
X176077661Y-52314748D01*
X175886259Y-52123013D01*
X175636054Y-52019118D01*
X175365135Y-52018882D01*
X175114748Y-52122339D01*
X174923013Y-52313741D01*
X174819118Y-52563946D01*
X174818882Y-52834865D01*
X174855298Y-52923000D01*
X164986228Y-52923000D01*
X164736054Y-52819118D01*
X164465135Y-52818882D01*
X164214748Y-52922339D01*
X164214086Y-52923000D01*
X162546682Y-52923000D01*
X160795936Y-51434865D01*
X169618882Y-51434865D01*
X169722339Y-51685252D01*
X169913741Y-51876987D01*
X170163946Y-51980882D01*
X170434865Y-51981118D01*
X170685252Y-51877661D01*
X170876987Y-51686259D01*
X170980882Y-51436054D01*
X170981118Y-51165135D01*
X170877661Y-50914748D01*
X170686259Y-50723013D01*
X170473977Y-50634865D01*
X170818882Y-50634865D01*
X170922339Y-50885252D01*
X171113741Y-51076987D01*
X171363946Y-51180882D01*
X171634865Y-51181118D01*
X171885252Y-51077661D01*
X172076987Y-50886259D01*
X172180882Y-50636054D01*
X172180883Y-50634865D01*
X172918882Y-50634865D01*
X173022339Y-50885252D01*
X173213741Y-51076987D01*
X173463946Y-51180882D01*
X173734865Y-51181118D01*
X173985252Y-51077661D01*
X174128296Y-50934865D01*
X174518882Y-50934865D01*
X174622339Y-51185252D01*
X174813741Y-51376987D01*
X175063946Y-51480882D01*
X175334865Y-51481118D01*
X175585252Y-51377661D01*
X175776987Y-51186259D01*
X175880882Y-50936054D01*
X175881118Y-50665135D01*
X175777661Y-50414748D01*
X175586259Y-50223013D01*
X175336054Y-50119118D01*
X175065135Y-50118882D01*
X174814748Y-50222339D01*
X174623013Y-50413741D01*
X174519118Y-50663946D01*
X174518882Y-50934865D01*
X174128296Y-50934865D01*
X174176987Y-50886259D01*
X174280882Y-50636054D01*
X174281118Y-50365135D01*
X174177661Y-50114748D01*
X173986259Y-49923013D01*
X173736054Y-49819118D01*
X173465135Y-49818882D01*
X173214748Y-49922339D01*
X173023013Y-50113741D01*
X172919118Y-50363946D01*
X172918882Y-50634865D01*
X172180883Y-50634865D01*
X172181118Y-50365135D01*
X172077661Y-50114748D01*
X171886259Y-49923013D01*
X171636054Y-49819118D01*
X171365135Y-49818882D01*
X171114748Y-49922339D01*
X170923013Y-50113741D01*
X170819118Y-50363946D01*
X170818882Y-50634865D01*
X170473977Y-50634865D01*
X170436054Y-50619118D01*
X170165135Y-50618882D01*
X169914748Y-50722339D01*
X169723013Y-50913741D01*
X169619118Y-51163946D01*
X169618882Y-51434865D01*
X160795936Y-51434865D01*
X159854759Y-50634865D01*
X165918882Y-50634865D01*
X166022339Y-50885252D01*
X166213741Y-51076987D01*
X166463946Y-51180882D01*
X166734865Y-51181118D01*
X166900098Y-51112846D01*
X167063946Y-51180882D01*
X167334865Y-51181118D01*
X167585252Y-51077661D01*
X167776987Y-50886259D01*
X167880882Y-50636054D01*
X167881118Y-50365135D01*
X167777661Y-50114748D01*
X167586259Y-49923013D01*
X167336054Y-49819118D01*
X167065135Y-49818882D01*
X166899902Y-49887154D01*
X166736054Y-49819118D01*
X166465135Y-49818882D01*
X166214748Y-49922339D01*
X166023013Y-50113741D01*
X165919118Y-50363946D01*
X165918882Y-50634865D01*
X159854759Y-50634865D01*
X159582251Y-50403234D01*
X159538124Y-50378857D01*
X159500000Y-50373000D01*
X152127000Y-50373000D01*
X152127000Y-49180893D01*
X152384865Y-49181118D01*
X152635252Y-49077661D01*
X152826987Y-48886259D01*
X152930882Y-48636054D01*
X152931118Y-48365135D01*
X152827661Y-48114748D01*
X152636259Y-47923013D01*
X152386054Y-47819118D01*
X152127000Y-47818892D01*
X152127000Y-47426359D01*
X155356802Y-47426359D01*
X155530446Y-47846612D01*
X155851697Y-48168423D01*
X156271646Y-48342801D01*
X156726359Y-48343198D01*
X157146612Y-48169554D01*
X157468423Y-47848303D01*
X157642801Y-47428354D01*
X157642838Y-47384865D01*
X169318882Y-47384865D01*
X169422339Y-47635252D01*
X169613741Y-47826987D01*
X169863946Y-47930882D01*
X170134865Y-47931118D01*
X170385252Y-47827661D01*
X170576987Y-47636259D01*
X170680882Y-47386054D01*
X170681118Y-47115135D01*
X170577661Y-46864748D01*
X170547830Y-46834865D01*
X175418882Y-46834865D01*
X175522339Y-47085252D01*
X175713741Y-47276987D01*
X175963946Y-47380882D01*
X176234865Y-47381118D01*
X176485252Y-47277661D01*
X176676987Y-47086259D01*
X176760613Y-46884865D01*
X177068882Y-46884865D01*
X177172339Y-47135252D01*
X177363741Y-47326987D01*
X177613946Y-47430882D01*
X177884865Y-47431118D01*
X178135252Y-47327661D01*
X178326987Y-47136259D01*
X178430882Y-46886054D01*
X178431118Y-46615135D01*
X178327661Y-46364748D01*
X178136259Y-46173013D01*
X177886054Y-46069118D01*
X177615135Y-46068882D01*
X177364748Y-46172339D01*
X177173013Y-46363741D01*
X177069118Y-46613946D01*
X177068882Y-46884865D01*
X176760613Y-46884865D01*
X176780882Y-46836054D01*
X176781118Y-46565135D01*
X176677661Y-46314748D01*
X176486259Y-46123013D01*
X176236054Y-46019118D01*
X175965135Y-46018882D01*
X175714748Y-46122339D01*
X175523013Y-46313741D01*
X175419118Y-46563946D01*
X175418882Y-46834865D01*
X170547830Y-46834865D01*
X170386259Y-46673013D01*
X170136054Y-46569118D01*
X169865135Y-46568882D01*
X169614748Y-46672339D01*
X169423013Y-46863741D01*
X169319118Y-47113946D01*
X169318882Y-47384865D01*
X157642838Y-47384865D01*
X157643198Y-46973641D01*
X157469554Y-46553388D01*
X157148303Y-46231577D01*
X156728354Y-46057199D01*
X156273641Y-46056802D01*
X155853388Y-46230446D01*
X155531577Y-46551697D01*
X155357199Y-46971646D01*
X155356802Y-47426359D01*
X152127000Y-47426359D01*
X152127000Y-45134865D01*
X160568882Y-45134865D01*
X160672339Y-45385252D01*
X160863741Y-45576987D01*
X161113946Y-45680882D01*
X161384865Y-45681118D01*
X161635252Y-45577661D01*
X161826987Y-45386259D01*
X161857162Y-45313589D01*
X161856802Y-45726359D01*
X162030446Y-46146612D01*
X162351697Y-46468423D01*
X162771646Y-46642801D01*
X163226359Y-46643198D01*
X163646612Y-46469554D01*
X163968423Y-46148303D01*
X164142801Y-45728354D01*
X164143198Y-45273641D01*
X163969554Y-44853388D01*
X163750198Y-44633649D01*
X163863946Y-44680882D01*
X164134865Y-44681118D01*
X164385252Y-44577661D01*
X164576987Y-44386259D01*
X164680882Y-44136054D01*
X164681118Y-43865135D01*
X164577661Y-43614748D01*
X164386259Y-43423013D01*
X164294390Y-43384865D01*
X166568882Y-43384865D01*
X166672339Y-43635252D01*
X166863741Y-43826987D01*
X167113946Y-43930882D01*
X167384865Y-43931118D01*
X167496806Y-43884865D01*
X171568882Y-43884865D01*
X171672339Y-44135252D01*
X171863741Y-44326987D01*
X172113946Y-44430882D01*
X172384865Y-44431118D01*
X172625283Y-44331780D01*
X172863946Y-44430882D01*
X173134865Y-44431118D01*
X173385252Y-44327661D01*
X173576987Y-44136259D01*
X173680882Y-43886054D01*
X173681118Y-43615135D01*
X173577661Y-43364748D01*
X173386259Y-43173013D01*
X173136054Y-43069118D01*
X172865135Y-43068882D01*
X172624717Y-43168220D01*
X172386054Y-43069118D01*
X172115135Y-43068882D01*
X171864748Y-43172339D01*
X171673013Y-43363741D01*
X171569118Y-43613946D01*
X171568882Y-43884865D01*
X167496806Y-43884865D01*
X167635252Y-43827661D01*
X167826987Y-43636259D01*
X167930882Y-43386054D01*
X167931118Y-43115135D01*
X167827661Y-42864748D01*
X167648091Y-42684865D01*
X174218882Y-42684865D01*
X174322339Y-42935252D01*
X174386920Y-42999945D01*
X174323013Y-43063741D01*
X174219118Y-43313946D01*
X174218882Y-43584865D01*
X174322339Y-43835252D01*
X174513741Y-44026987D01*
X174763946Y-44130882D01*
X175034865Y-44131118D01*
X175285252Y-44027661D01*
X175476987Y-43836259D01*
X175580882Y-43586054D01*
X175581118Y-43315135D01*
X175477661Y-43064748D01*
X175413080Y-43000055D01*
X175476987Y-42936259D01*
X175580882Y-42686054D01*
X175581118Y-42415135D01*
X175477661Y-42164748D01*
X175286259Y-41973013D01*
X175036054Y-41869118D01*
X174765135Y-41868882D01*
X174514748Y-41972339D01*
X174323013Y-42163741D01*
X174219118Y-42413946D01*
X174218882Y-42684865D01*
X167648091Y-42684865D01*
X167636259Y-42673013D01*
X167386054Y-42569118D01*
X167115135Y-42568882D01*
X166864748Y-42672339D01*
X166673013Y-42863741D01*
X166569118Y-43113946D01*
X166568882Y-43384865D01*
X164294390Y-43384865D01*
X164136054Y-43319118D01*
X163865135Y-43318882D01*
X163614748Y-43422339D01*
X163423013Y-43613741D01*
X163319118Y-43863946D01*
X163318882Y-44134865D01*
X163422339Y-44385252D01*
X163511847Y-44474915D01*
X163228354Y-44357199D01*
X162773641Y-44356802D01*
X162353388Y-44530446D01*
X162031577Y-44851697D01*
X161930919Y-45094110D01*
X161931118Y-44865135D01*
X161827661Y-44614748D01*
X161636259Y-44423013D01*
X161386054Y-44319118D01*
X161115135Y-44318882D01*
X160864748Y-44422339D01*
X160673013Y-44613741D01*
X160569118Y-44863946D01*
X160568882Y-45134865D01*
X152127000Y-45134865D01*
X152127000Y-42634865D01*
X154068882Y-42634865D01*
X154172339Y-42885252D01*
X154363741Y-43076987D01*
X154613946Y-43180882D01*
X154884865Y-43181118D01*
X155135252Y-43077661D01*
X155326987Y-42886259D01*
X155430882Y-42636054D01*
X155431118Y-42365135D01*
X155335974Y-42134865D01*
X170068882Y-42134865D01*
X170172339Y-42385252D01*
X170363741Y-42576987D01*
X170613946Y-42680882D01*
X170884865Y-42681118D01*
X171135252Y-42577661D01*
X171326987Y-42386259D01*
X171430882Y-42136054D01*
X171431118Y-41865135D01*
X171327661Y-41614748D01*
X171136259Y-41423013D01*
X170886054Y-41319118D01*
X170615135Y-41318882D01*
X170364748Y-41422339D01*
X170173013Y-41613741D01*
X170069118Y-41863946D01*
X170068882Y-42134865D01*
X155335974Y-42134865D01*
X155327661Y-42114748D01*
X155136259Y-41923013D01*
X154886054Y-41819118D01*
X154615135Y-41818882D01*
X154364748Y-41922339D01*
X154173013Y-42113741D01*
X154069118Y-42363946D01*
X154068882Y-42634865D01*
X152127000Y-42634865D01*
X152127000Y-40634865D01*
X154318882Y-40634865D01*
X154422339Y-40885252D01*
X154613741Y-41076987D01*
X154863946Y-41180882D01*
X155134865Y-41181118D01*
X155246806Y-41134865D01*
X161818882Y-41134865D01*
X161922339Y-41385252D01*
X162113741Y-41576987D01*
X162363946Y-41680882D01*
X162634865Y-41681118D01*
X162885252Y-41577661D01*
X163076987Y-41386259D01*
X163180882Y-41136054D01*
X163181118Y-40865135D01*
X163077661Y-40614748D01*
X162886259Y-40423013D01*
X162636054Y-40319118D01*
X162365135Y-40318882D01*
X162114748Y-40422339D01*
X161923013Y-40613741D01*
X161819118Y-40863946D01*
X161818882Y-41134865D01*
X155246806Y-41134865D01*
X155385252Y-41077661D01*
X155576987Y-40886259D01*
X155680882Y-40636054D01*
X155681118Y-40365135D01*
X155577661Y-40114748D01*
X155386259Y-39923013D01*
X155294390Y-39884865D01*
X166568882Y-39884865D01*
X166672339Y-40135252D01*
X166863741Y-40326987D01*
X167113946Y-40430882D01*
X167384865Y-40431118D01*
X167635252Y-40327661D01*
X167826987Y-40136259D01*
X167930882Y-39886054D01*
X167931118Y-39615135D01*
X167827661Y-39364748D01*
X167636259Y-39173013D01*
X167386054Y-39069118D01*
X167115135Y-39068882D01*
X166864748Y-39172339D01*
X166673013Y-39363741D01*
X166569118Y-39613946D01*
X166568882Y-39884865D01*
X155294390Y-39884865D01*
X155136054Y-39819118D01*
X154865135Y-39818882D01*
X154614748Y-39922339D01*
X154423013Y-40113741D01*
X154319118Y-40363946D01*
X154318882Y-40634865D01*
X152127000Y-40634865D01*
X152127000Y-38884865D01*
X161818882Y-38884865D01*
X161922339Y-39135252D01*
X162113741Y-39326987D01*
X162363946Y-39430882D01*
X162634865Y-39431118D01*
X162885252Y-39327661D01*
X163076987Y-39136259D01*
X163180882Y-38886054D01*
X163181118Y-38615135D01*
X163077661Y-38364748D01*
X162886259Y-38173013D01*
X162636054Y-38069118D01*
X162365135Y-38068882D01*
X162114748Y-38172339D01*
X161923013Y-38363741D01*
X161819118Y-38613946D01*
X161818882Y-38884865D01*
X152127000Y-38884865D01*
X152127000Y-36134865D01*
X169318882Y-36134865D01*
X169422339Y-36385252D01*
X169613741Y-36576987D01*
X169863946Y-36680882D01*
X170134865Y-36681118D01*
X170385252Y-36577661D01*
X170576987Y-36386259D01*
X170680882Y-36136054D01*
X170681118Y-35865135D01*
X170577661Y-35614748D01*
X170386259Y-35423013D01*
X170136054Y-35319118D01*
X169865135Y-35318882D01*
X169614748Y-35422339D01*
X169423013Y-35613741D01*
X169319118Y-35863946D01*
X169318882Y-36134865D01*
X152127000Y-36134865D01*
X152127000Y-36066407D01*
X152142801Y-36028354D01*
X152143198Y-35573641D01*
X152127000Y-35534439D01*
X152127000Y-34976359D01*
X157856802Y-34976359D01*
X158030446Y-35396612D01*
X158351697Y-35718423D01*
X158771646Y-35892801D01*
X159226359Y-35893198D01*
X159646612Y-35719554D01*
X159968423Y-35398303D01*
X160077811Y-35134865D01*
X163568882Y-35134865D01*
X163672339Y-35385252D01*
X163863741Y-35576987D01*
X164113946Y-35680882D01*
X164384865Y-35681118D01*
X164635252Y-35577661D01*
X164826987Y-35386259D01*
X164930882Y-35136054D01*
X164931100Y-34884865D01*
X166318882Y-34884865D01*
X166422339Y-35135252D01*
X166613741Y-35326987D01*
X166863946Y-35430882D01*
X167134865Y-35431118D01*
X167385252Y-35327661D01*
X167394662Y-35318268D01*
X167422339Y-35385252D01*
X167613741Y-35576987D01*
X167863946Y-35680882D01*
X168134865Y-35681118D01*
X168385252Y-35577661D01*
X168576987Y-35386259D01*
X168680882Y-35136054D01*
X168681118Y-34865135D01*
X168577661Y-34614748D01*
X168386259Y-34423013D01*
X168136054Y-34319118D01*
X167865135Y-34318882D01*
X167614748Y-34422339D01*
X167605338Y-34431732D01*
X167577661Y-34364748D01*
X167386259Y-34173013D01*
X167136054Y-34069118D01*
X166865135Y-34068882D01*
X166614748Y-34172339D01*
X166423013Y-34363741D01*
X166319118Y-34613946D01*
X166318882Y-34884865D01*
X164931100Y-34884865D01*
X164931118Y-34865135D01*
X164827661Y-34614748D01*
X164636259Y-34423013D01*
X164386054Y-34319118D01*
X164115135Y-34318882D01*
X163864748Y-34422339D01*
X163673013Y-34613741D01*
X163569118Y-34863946D01*
X163568882Y-35134865D01*
X160077811Y-35134865D01*
X160142801Y-34978354D01*
X160143198Y-34523641D01*
X159969554Y-34103388D01*
X159648303Y-33781577D01*
X159515324Y-33726359D01*
X170656802Y-33726359D01*
X170830446Y-34146612D01*
X171151697Y-34468423D01*
X171571646Y-34642801D01*
X172026359Y-34643198D01*
X172446612Y-34469554D01*
X172768423Y-34148303D01*
X172942801Y-33728354D01*
X172943198Y-33273641D01*
X172769554Y-32853388D01*
X172448303Y-32531577D01*
X172028354Y-32357199D01*
X171573641Y-32356802D01*
X171153388Y-32530446D01*
X170831577Y-32851697D01*
X170657199Y-33271646D01*
X170656802Y-33726359D01*
X159515324Y-33726359D01*
X159228354Y-33607199D01*
X158773641Y-33606802D01*
X158353388Y-33780446D01*
X158031577Y-34101697D01*
X157857199Y-34521646D01*
X157856802Y-34976359D01*
X152127000Y-34976359D01*
X152127000Y-33384865D01*
X155068882Y-33384865D01*
X155172339Y-33635252D01*
X155363741Y-33826987D01*
X155613946Y-33930882D01*
X155884865Y-33931118D01*
X156135252Y-33827661D01*
X156326987Y-33636259D01*
X156430882Y-33386054D01*
X156431118Y-33115135D01*
X156327661Y-32864748D01*
X156136259Y-32673013D01*
X155886054Y-32569118D01*
X155615135Y-32568882D01*
X155364748Y-32672339D01*
X155173013Y-32863741D01*
X155069118Y-33113946D01*
X155068882Y-33384865D01*
X152127000Y-33384865D01*
X152127000Y-28634865D01*
X156318882Y-28634865D01*
X156422339Y-28885252D01*
X156613741Y-29076987D01*
X156863946Y-29180882D01*
X157134865Y-29181118D01*
X157385252Y-29077661D01*
X157482869Y-28980213D01*
X175899392Y-28980213D01*
X175968857Y-29222397D01*
X176492302Y-29409144D01*
X177047368Y-29381362D01*
X177431143Y-29222397D01*
X177500608Y-28980213D01*
X176700000Y-28179605D01*
X175899392Y-28980213D01*
X157482869Y-28980213D01*
X157576987Y-28886259D01*
X157680882Y-28636054D01*
X157681118Y-28365135D01*
X157577661Y-28114748D01*
X157386259Y-27923013D01*
X157136054Y-27819118D01*
X156865135Y-27818882D01*
X156614748Y-27922339D01*
X156423013Y-28113741D01*
X156319118Y-28363946D01*
X156318882Y-28634865D01*
X152127000Y-28634865D01*
X152127000Y-27792302D01*
X175290856Y-27792302D01*
X175318638Y-28347368D01*
X175477603Y-28731143D01*
X175719787Y-28800608D01*
X176520395Y-28000000D01*
X176879605Y-28000000D01*
X177680213Y-28800608D01*
X177922397Y-28731143D01*
X178109144Y-28207698D01*
X178081362Y-27652632D01*
X177922397Y-27268857D01*
X177680213Y-27199392D01*
X176879605Y-28000000D01*
X176520395Y-28000000D01*
X175719787Y-27199392D01*
X175477603Y-27268857D01*
X175290856Y-27792302D01*
X152127000Y-27792302D01*
X152127000Y-27019787D01*
X175899392Y-27019787D01*
X176700000Y-27820395D01*
X177500608Y-27019787D01*
X177431143Y-26777603D01*
X176907698Y-26590856D01*
X176352632Y-26618638D01*
X175968857Y-26777603D01*
X175899392Y-27019787D01*
X152127000Y-27019787D01*
X152127000Y-26384865D01*
X158318882Y-26384865D01*
X158422339Y-26635252D01*
X158613741Y-26826987D01*
X158863946Y-26930882D01*
X159134865Y-26931118D01*
X159385252Y-26827661D01*
X159576987Y-26636259D01*
X159680882Y-26386054D01*
X159680883Y-26384865D01*
X168318882Y-26384865D01*
X168422339Y-26635252D01*
X168613741Y-26826987D01*
X168863946Y-26930882D01*
X169134865Y-26931118D01*
X169385252Y-26827661D01*
X169576987Y-26636259D01*
X169680882Y-26386054D01*
X169681118Y-26115135D01*
X169577661Y-25864748D01*
X169386259Y-25673013D01*
X169136054Y-25569118D01*
X168865135Y-25568882D01*
X168614748Y-25672339D01*
X168423013Y-25863741D01*
X168319118Y-26113946D01*
X168318882Y-26384865D01*
X159680883Y-26384865D01*
X159681118Y-26115135D01*
X159577661Y-25864748D01*
X159386259Y-25673013D01*
X159136054Y-25569118D01*
X158865135Y-25568882D01*
X158614748Y-25672339D01*
X158423013Y-25863741D01*
X158319118Y-26113946D01*
X158318882Y-26384865D01*
X152127000Y-26384865D01*
X152127000Y-20882400D01*
X152493936Y-20882400D01*
X152493936Y-23117600D01*
X152520503Y-23258790D01*
X152603946Y-23388465D01*
X152731266Y-23475459D01*
X152882400Y-23506064D01*
X155117600Y-23506064D01*
X155258790Y-23479497D01*
X155388465Y-23396054D01*
X155475459Y-23268734D01*
X155506064Y-23117600D01*
X155506064Y-20984000D01*
X158595536Y-20984000D01*
X158595536Y-23016000D01*
X158622103Y-23157190D01*
X158705546Y-23286865D01*
X158832866Y-23373859D01*
X158984000Y-23404464D01*
X161016000Y-23404464D01*
X161157190Y-23377897D01*
X161286865Y-23294454D01*
X161373859Y-23167134D01*
X161404464Y-23016000D01*
X161404464Y-22794137D01*
X161552172Y-23015197D01*
X162005391Y-23318029D01*
X162540000Y-23424369D01*
X163074609Y-23318029D01*
X163527828Y-23015197D01*
X163830660Y-22561978D01*
X163937000Y-22027369D01*
X163937000Y-21972631D01*
X163830660Y-21438022D01*
X163689231Y-21226359D01*
X164606802Y-21226359D01*
X164780446Y-21646612D01*
X165101697Y-21968423D01*
X165521646Y-22142801D01*
X165976359Y-22143198D01*
X166396612Y-21969554D01*
X166718423Y-21648303D01*
X166892801Y-21228354D01*
X166893014Y-20984000D01*
X168595536Y-20984000D01*
X168595536Y-23016000D01*
X168622103Y-23157190D01*
X168705546Y-23286865D01*
X168832866Y-23373859D01*
X168984000Y-23404464D01*
X171016000Y-23404464D01*
X171157190Y-23377897D01*
X171286865Y-23294454D01*
X171373859Y-23167134D01*
X171404464Y-23016000D01*
X171404464Y-22794137D01*
X171552172Y-23015197D01*
X172005391Y-23318029D01*
X172540000Y-23424369D01*
X173074609Y-23318029D01*
X173527828Y-23015197D01*
X173830660Y-22561978D01*
X173937000Y-22027369D01*
X173937000Y-21972631D01*
X173830660Y-21438022D01*
X173689231Y-21226359D01*
X174356802Y-21226359D01*
X174530446Y-21646612D01*
X174851697Y-21968423D01*
X175271646Y-22142801D01*
X175726359Y-22143198D01*
X176146612Y-21969554D01*
X176468423Y-21648303D01*
X176642801Y-21228354D01*
X176643198Y-20773641D01*
X176469554Y-20353388D01*
X176148303Y-20031577D01*
X175728354Y-19857199D01*
X175273641Y-19856802D01*
X174853388Y-20030446D01*
X174531577Y-20351697D01*
X174357199Y-20771646D01*
X174356802Y-21226359D01*
X173689231Y-21226359D01*
X173527828Y-20984803D01*
X173074609Y-20681971D01*
X172540000Y-20575631D01*
X172005391Y-20681971D01*
X171552172Y-20984803D01*
X171404464Y-21205863D01*
X171404464Y-20984000D01*
X171377897Y-20842810D01*
X171294454Y-20713135D01*
X171167134Y-20626141D01*
X171016000Y-20595536D01*
X168984000Y-20595536D01*
X168842810Y-20622103D01*
X168713135Y-20705546D01*
X168626141Y-20832866D01*
X168595536Y-20984000D01*
X166893014Y-20984000D01*
X166893198Y-20773641D01*
X166719554Y-20353388D01*
X166398303Y-20031577D01*
X165978354Y-19857199D01*
X165523641Y-19856802D01*
X165103388Y-20030446D01*
X164781577Y-20351697D01*
X164607199Y-20771646D01*
X164606802Y-21226359D01*
X163689231Y-21226359D01*
X163527828Y-20984803D01*
X163074609Y-20681971D01*
X162540000Y-20575631D01*
X162005391Y-20681971D01*
X161552172Y-20984803D01*
X161404464Y-21205863D01*
X161404464Y-20984000D01*
X161377897Y-20842810D01*
X161294454Y-20713135D01*
X161167134Y-20626141D01*
X161016000Y-20595536D01*
X158984000Y-20595536D01*
X158842810Y-20622103D01*
X158713135Y-20705546D01*
X158626141Y-20832866D01*
X158595536Y-20984000D01*
X155506064Y-20984000D01*
X155506064Y-20882400D01*
X155479497Y-20741210D01*
X155396054Y-20611535D01*
X155268734Y-20524541D01*
X155117600Y-20493936D01*
X152882400Y-20493936D01*
X152741210Y-20520503D01*
X152611535Y-20603946D01*
X152524541Y-20731266D01*
X152493936Y-20882400D01*
X152127000Y-20882400D01*
X152127000Y-18627000D01*
X178372189Y-18627000D01*
X178273807Y-34073000D01*
X178273807Y-34073000D01*
G37*
X178273807Y-34073000D02*
X176300000Y-34073000D01*
X176250590Y-34083006D01*
X176208965Y-34111447D01*
X176181685Y-34153841D01*
X176173003Y-34199066D01*
X176123003Y-40999066D01*
X176132646Y-41048549D01*
X176160780Y-41090381D01*
X176202972Y-41117972D01*
X176250000Y-41127000D01*
X179373000Y-41127000D01*
X179373000Y-47734185D01*
X179319118Y-47863946D01*
X179318882Y-48134865D01*
X179373000Y-48265842D01*
X179373000Y-52923000D01*
X178263708Y-52923000D01*
X178177661Y-52714748D01*
X177986259Y-52523013D01*
X177736054Y-52419118D01*
X177465135Y-52418882D01*
X177214748Y-52522339D01*
X177023013Y-52713741D01*
X176936120Y-52923000D01*
X176144779Y-52923000D01*
X176180882Y-52836054D01*
X176181118Y-52565135D01*
X176077661Y-52314748D01*
X175886259Y-52123013D01*
X175636054Y-52019118D01*
X175365135Y-52018882D01*
X175114748Y-52122339D01*
X174923013Y-52313741D01*
X174819118Y-52563946D01*
X174818882Y-52834865D01*
X174855298Y-52923000D01*
X164986228Y-52923000D01*
X164736054Y-52819118D01*
X164465135Y-52818882D01*
X164214748Y-52922339D01*
X164214086Y-52923000D01*
X162546682Y-52923000D01*
X160795936Y-51434865D01*
X169618882Y-51434865D01*
X169722339Y-51685252D01*
X169913741Y-51876987D01*
X170163946Y-51980882D01*
X170434865Y-51981118D01*
X170685252Y-51877661D01*
X170876987Y-51686259D01*
X170980882Y-51436054D01*
X170981118Y-51165135D01*
X170877661Y-50914748D01*
X170686259Y-50723013D01*
X170473977Y-50634865D01*
X170818882Y-50634865D01*
X170922339Y-50885252D01*
X171113741Y-51076987D01*
X171363946Y-51180882D01*
X171634865Y-51181118D01*
X171885252Y-51077661D01*
X172076987Y-50886259D01*
X172180882Y-50636054D01*
X172180883Y-50634865D01*
X172918882Y-50634865D01*
X173022339Y-50885252D01*
X173213741Y-51076987D01*
X173463946Y-51180882D01*
X173734865Y-51181118D01*
X173985252Y-51077661D01*
X174128296Y-50934865D01*
X174518882Y-50934865D01*
X174622339Y-51185252D01*
X174813741Y-51376987D01*
X175063946Y-51480882D01*
X175334865Y-51481118D01*
X175585252Y-51377661D01*
X175776987Y-51186259D01*
X175880882Y-50936054D01*
X175881118Y-50665135D01*
X175777661Y-50414748D01*
X175586259Y-50223013D01*
X175336054Y-50119118D01*
X175065135Y-50118882D01*
X174814748Y-50222339D01*
X174623013Y-50413741D01*
X174519118Y-50663946D01*
X174518882Y-50934865D01*
X174128296Y-50934865D01*
X174176987Y-50886259D01*
X174280882Y-50636054D01*
X174281118Y-50365135D01*
X174177661Y-50114748D01*
X173986259Y-49923013D01*
X173736054Y-49819118D01*
X173465135Y-49818882D01*
X173214748Y-49922339D01*
X173023013Y-50113741D01*
X172919118Y-50363946D01*
X172918882Y-50634865D01*
X172180883Y-50634865D01*
X172181118Y-50365135D01*
X172077661Y-50114748D01*
X171886259Y-49923013D01*
X171636054Y-49819118D01*
X171365135Y-49818882D01*
X171114748Y-49922339D01*
X170923013Y-50113741D01*
X170819118Y-50363946D01*
X170818882Y-50634865D01*
X170473977Y-50634865D01*
X170436054Y-50619118D01*
X170165135Y-50618882D01*
X169914748Y-50722339D01*
X169723013Y-50913741D01*
X169619118Y-51163946D01*
X169618882Y-51434865D01*
X160795936Y-51434865D01*
X159854759Y-50634865D01*
X165918882Y-50634865D01*
X166022339Y-50885252D01*
X166213741Y-51076987D01*
X166463946Y-51180882D01*
X166734865Y-51181118D01*
X166900098Y-51112846D01*
X167063946Y-51180882D01*
X167334865Y-51181118D01*
X167585252Y-51077661D01*
X167776987Y-50886259D01*
X167880882Y-50636054D01*
X167881118Y-50365135D01*
X167777661Y-50114748D01*
X167586259Y-49923013D01*
X167336054Y-49819118D01*
X167065135Y-49818882D01*
X166899902Y-49887154D01*
X166736054Y-49819118D01*
X166465135Y-49818882D01*
X166214748Y-49922339D01*
X166023013Y-50113741D01*
X165919118Y-50363946D01*
X165918882Y-50634865D01*
X159854759Y-50634865D01*
X159582251Y-50403234D01*
X159538124Y-50378857D01*
X159500000Y-50373000D01*
X152127000Y-50373000D01*
X152127000Y-49180893D01*
X152384865Y-49181118D01*
X152635252Y-49077661D01*
X152826987Y-48886259D01*
X152930882Y-48636054D01*
X152931118Y-48365135D01*
X152827661Y-48114748D01*
X152636259Y-47923013D01*
X152386054Y-47819118D01*
X152127000Y-47818892D01*
X152127000Y-47426359D01*
X155356802Y-47426359D01*
X155530446Y-47846612D01*
X155851697Y-48168423D01*
X156271646Y-48342801D01*
X156726359Y-48343198D01*
X157146612Y-48169554D01*
X157468423Y-47848303D01*
X157642801Y-47428354D01*
X157642838Y-47384865D01*
X169318882Y-47384865D01*
X169422339Y-47635252D01*
X169613741Y-47826987D01*
X169863946Y-47930882D01*
X170134865Y-47931118D01*
X170385252Y-47827661D01*
X170576987Y-47636259D01*
X170680882Y-47386054D01*
X170681118Y-47115135D01*
X170577661Y-46864748D01*
X170547830Y-46834865D01*
X175418882Y-46834865D01*
X175522339Y-47085252D01*
X175713741Y-47276987D01*
X175963946Y-47380882D01*
X176234865Y-47381118D01*
X176485252Y-47277661D01*
X176676987Y-47086259D01*
X176760613Y-46884865D01*
X177068882Y-46884865D01*
X177172339Y-47135252D01*
X177363741Y-47326987D01*
X177613946Y-47430882D01*
X177884865Y-47431118D01*
X178135252Y-47327661D01*
X178326987Y-47136259D01*
X178430882Y-46886054D01*
X178431118Y-46615135D01*
X178327661Y-46364748D01*
X178136259Y-46173013D01*
X177886054Y-46069118D01*
X177615135Y-46068882D01*
X177364748Y-46172339D01*
X177173013Y-46363741D01*
X177069118Y-46613946D01*
X177068882Y-46884865D01*
X176760613Y-46884865D01*
X176780882Y-46836054D01*
X176781118Y-46565135D01*
X176677661Y-46314748D01*
X176486259Y-46123013D01*
X176236054Y-46019118D01*
X175965135Y-46018882D01*
X175714748Y-46122339D01*
X175523013Y-46313741D01*
X175419118Y-46563946D01*
X175418882Y-46834865D01*
X170547830Y-46834865D01*
X170386259Y-46673013D01*
X170136054Y-46569118D01*
X169865135Y-46568882D01*
X169614748Y-46672339D01*
X169423013Y-46863741D01*
X169319118Y-47113946D01*
X169318882Y-47384865D01*
X157642838Y-47384865D01*
X157643198Y-46973641D01*
X157469554Y-46553388D01*
X157148303Y-46231577D01*
X156728354Y-46057199D01*
X156273641Y-46056802D01*
X155853388Y-46230446D01*
X155531577Y-46551697D01*
X155357199Y-46971646D01*
X155356802Y-47426359D01*
X152127000Y-47426359D01*
X152127000Y-45134865D01*
X160568882Y-45134865D01*
X160672339Y-45385252D01*
X160863741Y-45576987D01*
X161113946Y-45680882D01*
X161384865Y-45681118D01*
X161635252Y-45577661D01*
X161826987Y-45386259D01*
X161857162Y-45313589D01*
X161856802Y-45726359D01*
X162030446Y-46146612D01*
X162351697Y-46468423D01*
X162771646Y-46642801D01*
X163226359Y-46643198D01*
X163646612Y-46469554D01*
X163968423Y-46148303D01*
X164142801Y-45728354D01*
X164143198Y-45273641D01*
X163969554Y-44853388D01*
X163750198Y-44633649D01*
X163863946Y-44680882D01*
X164134865Y-44681118D01*
X164385252Y-44577661D01*
X164576987Y-44386259D01*
X164680882Y-44136054D01*
X164681118Y-43865135D01*
X164577661Y-43614748D01*
X164386259Y-43423013D01*
X164294390Y-43384865D01*
X166568882Y-43384865D01*
X166672339Y-43635252D01*
X166863741Y-43826987D01*
X167113946Y-43930882D01*
X167384865Y-43931118D01*
X167496806Y-43884865D01*
X171568882Y-43884865D01*
X171672339Y-44135252D01*
X171863741Y-44326987D01*
X172113946Y-44430882D01*
X172384865Y-44431118D01*
X172625283Y-44331780D01*
X172863946Y-44430882D01*
X173134865Y-44431118D01*
X173385252Y-44327661D01*
X173576987Y-44136259D01*
X173680882Y-43886054D01*
X173681118Y-43615135D01*
X173577661Y-43364748D01*
X173386259Y-43173013D01*
X173136054Y-43069118D01*
X172865135Y-43068882D01*
X172624717Y-43168220D01*
X172386054Y-43069118D01*
X172115135Y-43068882D01*
X171864748Y-43172339D01*
X171673013Y-43363741D01*
X171569118Y-43613946D01*
X171568882Y-43884865D01*
X167496806Y-43884865D01*
X167635252Y-43827661D01*
X167826987Y-43636259D01*
X167930882Y-43386054D01*
X167931118Y-43115135D01*
X167827661Y-42864748D01*
X167648091Y-42684865D01*
X174218882Y-42684865D01*
X174322339Y-42935252D01*
X174386920Y-42999945D01*
X174323013Y-43063741D01*
X174219118Y-43313946D01*
X174218882Y-43584865D01*
X174322339Y-43835252D01*
X174513741Y-44026987D01*
X174763946Y-44130882D01*
X175034865Y-44131118D01*
X175285252Y-44027661D01*
X175476987Y-43836259D01*
X175580882Y-43586054D01*
X175581118Y-43315135D01*
X175477661Y-43064748D01*
X175413080Y-43000055D01*
X175476987Y-42936259D01*
X175580882Y-42686054D01*
X175581118Y-42415135D01*
X175477661Y-42164748D01*
X175286259Y-41973013D01*
X175036054Y-41869118D01*
X174765135Y-41868882D01*
X174514748Y-41972339D01*
X174323013Y-42163741D01*
X174219118Y-42413946D01*
X174218882Y-42684865D01*
X167648091Y-42684865D01*
X167636259Y-42673013D01*
X167386054Y-42569118D01*
X167115135Y-42568882D01*
X166864748Y-42672339D01*
X166673013Y-42863741D01*
X166569118Y-43113946D01*
X166568882Y-43384865D01*
X164294390Y-43384865D01*
X164136054Y-43319118D01*
X163865135Y-43318882D01*
X163614748Y-43422339D01*
X163423013Y-43613741D01*
X163319118Y-43863946D01*
X163318882Y-44134865D01*
X163422339Y-44385252D01*
X163511847Y-44474915D01*
X163228354Y-44357199D01*
X162773641Y-44356802D01*
X162353388Y-44530446D01*
X162031577Y-44851697D01*
X161930919Y-45094110D01*
X161931118Y-44865135D01*
X161827661Y-44614748D01*
X161636259Y-44423013D01*
X161386054Y-44319118D01*
X161115135Y-44318882D01*
X160864748Y-44422339D01*
X160673013Y-44613741D01*
X160569118Y-44863946D01*
X160568882Y-45134865D01*
X152127000Y-45134865D01*
X152127000Y-42634865D01*
X154068882Y-42634865D01*
X154172339Y-42885252D01*
X154363741Y-43076987D01*
X154613946Y-43180882D01*
X154884865Y-43181118D01*
X155135252Y-43077661D01*
X155326987Y-42886259D01*
X155430882Y-42636054D01*
X155431118Y-42365135D01*
X155335974Y-42134865D01*
X170068882Y-42134865D01*
X170172339Y-42385252D01*
X170363741Y-42576987D01*
X170613946Y-42680882D01*
X170884865Y-42681118D01*
X171135252Y-42577661D01*
X171326987Y-42386259D01*
X171430882Y-42136054D01*
X171431118Y-41865135D01*
X171327661Y-41614748D01*
X171136259Y-41423013D01*
X170886054Y-41319118D01*
X170615135Y-41318882D01*
X170364748Y-41422339D01*
X170173013Y-41613741D01*
X170069118Y-41863946D01*
X170068882Y-42134865D01*
X155335974Y-42134865D01*
X155327661Y-42114748D01*
X155136259Y-41923013D01*
X154886054Y-41819118D01*
X154615135Y-41818882D01*
X154364748Y-41922339D01*
X154173013Y-42113741D01*
X154069118Y-42363946D01*
X154068882Y-42634865D01*
X152127000Y-42634865D01*
X152127000Y-40634865D01*
X154318882Y-40634865D01*
X154422339Y-40885252D01*
X154613741Y-41076987D01*
X154863946Y-41180882D01*
X155134865Y-41181118D01*
X155246806Y-41134865D01*
X161818882Y-41134865D01*
X161922339Y-41385252D01*
X162113741Y-41576987D01*
X162363946Y-41680882D01*
X162634865Y-41681118D01*
X162885252Y-41577661D01*
X163076987Y-41386259D01*
X163180882Y-41136054D01*
X163181118Y-40865135D01*
X163077661Y-40614748D01*
X162886259Y-40423013D01*
X162636054Y-40319118D01*
X162365135Y-40318882D01*
X162114748Y-40422339D01*
X161923013Y-40613741D01*
X161819118Y-40863946D01*
X161818882Y-41134865D01*
X155246806Y-41134865D01*
X155385252Y-41077661D01*
X155576987Y-40886259D01*
X155680882Y-40636054D01*
X155681118Y-40365135D01*
X155577661Y-40114748D01*
X155386259Y-39923013D01*
X155294390Y-39884865D01*
X166568882Y-39884865D01*
X166672339Y-40135252D01*
X166863741Y-40326987D01*
X167113946Y-40430882D01*
X167384865Y-40431118D01*
X167635252Y-40327661D01*
X167826987Y-40136259D01*
X167930882Y-39886054D01*
X167931118Y-39615135D01*
X167827661Y-39364748D01*
X167636259Y-39173013D01*
X167386054Y-39069118D01*
X167115135Y-39068882D01*
X166864748Y-39172339D01*
X166673013Y-39363741D01*
X166569118Y-39613946D01*
X166568882Y-39884865D01*
X155294390Y-39884865D01*
X155136054Y-39819118D01*
X154865135Y-39818882D01*
X154614748Y-39922339D01*
X154423013Y-40113741D01*
X154319118Y-40363946D01*
X154318882Y-40634865D01*
X152127000Y-40634865D01*
X152127000Y-38884865D01*
X161818882Y-38884865D01*
X161922339Y-39135252D01*
X162113741Y-39326987D01*
X162363946Y-39430882D01*
X162634865Y-39431118D01*
X162885252Y-39327661D01*
X163076987Y-39136259D01*
X163180882Y-38886054D01*
X163181118Y-38615135D01*
X163077661Y-38364748D01*
X162886259Y-38173013D01*
X162636054Y-38069118D01*
X162365135Y-38068882D01*
X162114748Y-38172339D01*
X161923013Y-38363741D01*
X161819118Y-38613946D01*
X161818882Y-38884865D01*
X152127000Y-38884865D01*
X152127000Y-36134865D01*
X169318882Y-36134865D01*
X169422339Y-36385252D01*
X169613741Y-36576987D01*
X169863946Y-36680882D01*
X170134865Y-36681118D01*
X170385252Y-36577661D01*
X170576987Y-36386259D01*
X170680882Y-36136054D01*
X170681118Y-35865135D01*
X170577661Y-35614748D01*
X170386259Y-35423013D01*
X170136054Y-35319118D01*
X169865135Y-35318882D01*
X169614748Y-35422339D01*
X169423013Y-35613741D01*
X169319118Y-35863946D01*
X169318882Y-36134865D01*
X152127000Y-36134865D01*
X152127000Y-36066407D01*
X152142801Y-36028354D01*
X152143198Y-35573641D01*
X152127000Y-35534439D01*
X152127000Y-34976359D01*
X157856802Y-34976359D01*
X158030446Y-35396612D01*
X158351697Y-35718423D01*
X158771646Y-35892801D01*
X159226359Y-35893198D01*
X159646612Y-35719554D01*
X159968423Y-35398303D01*
X160077811Y-35134865D01*
X163568882Y-35134865D01*
X163672339Y-35385252D01*
X163863741Y-35576987D01*
X164113946Y-35680882D01*
X164384865Y-35681118D01*
X164635252Y-35577661D01*
X164826987Y-35386259D01*
X164930882Y-35136054D01*
X164931100Y-34884865D01*
X166318882Y-34884865D01*
X166422339Y-35135252D01*
X166613741Y-35326987D01*
X166863946Y-35430882D01*
X167134865Y-35431118D01*
X167385252Y-35327661D01*
X167394662Y-35318268D01*
X167422339Y-35385252D01*
X167613741Y-35576987D01*
X167863946Y-35680882D01*
X168134865Y-35681118D01*
X168385252Y-35577661D01*
X168576987Y-35386259D01*
X168680882Y-35136054D01*
X168681118Y-34865135D01*
X168577661Y-34614748D01*
X168386259Y-34423013D01*
X168136054Y-34319118D01*
X167865135Y-34318882D01*
X167614748Y-34422339D01*
X167605338Y-34431732D01*
X167577661Y-34364748D01*
X167386259Y-34173013D01*
X167136054Y-34069118D01*
X166865135Y-34068882D01*
X166614748Y-34172339D01*
X166423013Y-34363741D01*
X166319118Y-34613946D01*
X166318882Y-34884865D01*
X164931100Y-34884865D01*
X164931118Y-34865135D01*
X164827661Y-34614748D01*
X164636259Y-34423013D01*
X164386054Y-34319118D01*
X164115135Y-34318882D01*
X163864748Y-34422339D01*
X163673013Y-34613741D01*
X163569118Y-34863946D01*
X163568882Y-35134865D01*
X160077811Y-35134865D01*
X160142801Y-34978354D01*
X160143198Y-34523641D01*
X159969554Y-34103388D01*
X159648303Y-33781577D01*
X159515324Y-33726359D01*
X170656802Y-33726359D01*
X170830446Y-34146612D01*
X171151697Y-34468423D01*
X171571646Y-34642801D01*
X172026359Y-34643198D01*
X172446612Y-34469554D01*
X172768423Y-34148303D01*
X172942801Y-33728354D01*
X172943198Y-33273641D01*
X172769554Y-32853388D01*
X172448303Y-32531577D01*
X172028354Y-32357199D01*
X171573641Y-32356802D01*
X171153388Y-32530446D01*
X170831577Y-32851697D01*
X170657199Y-33271646D01*
X170656802Y-33726359D01*
X159515324Y-33726359D01*
X159228354Y-33607199D01*
X158773641Y-33606802D01*
X158353388Y-33780446D01*
X158031577Y-34101697D01*
X157857199Y-34521646D01*
X157856802Y-34976359D01*
X152127000Y-34976359D01*
X152127000Y-33384865D01*
X155068882Y-33384865D01*
X155172339Y-33635252D01*
X155363741Y-33826987D01*
X155613946Y-33930882D01*
X155884865Y-33931118D01*
X156135252Y-33827661D01*
X156326987Y-33636259D01*
X156430882Y-33386054D01*
X156431118Y-33115135D01*
X156327661Y-32864748D01*
X156136259Y-32673013D01*
X155886054Y-32569118D01*
X155615135Y-32568882D01*
X155364748Y-32672339D01*
X155173013Y-32863741D01*
X155069118Y-33113946D01*
X155068882Y-33384865D01*
X152127000Y-33384865D01*
X152127000Y-28634865D01*
X156318882Y-28634865D01*
X156422339Y-28885252D01*
X156613741Y-29076987D01*
X156863946Y-29180882D01*
X157134865Y-29181118D01*
X157385252Y-29077661D01*
X157482869Y-28980213D01*
X175899392Y-28980213D01*
X175968857Y-29222397D01*
X176492302Y-29409144D01*
X177047368Y-29381362D01*
X177431143Y-29222397D01*
X177500608Y-28980213D01*
X176700000Y-28179605D01*
X175899392Y-28980213D01*
X157482869Y-28980213D01*
X157576987Y-28886259D01*
X157680882Y-28636054D01*
X157681118Y-28365135D01*
X157577661Y-28114748D01*
X157386259Y-27923013D01*
X157136054Y-27819118D01*
X156865135Y-27818882D01*
X156614748Y-27922339D01*
X156423013Y-28113741D01*
X156319118Y-28363946D01*
X156318882Y-28634865D01*
X152127000Y-28634865D01*
X152127000Y-27792302D01*
X175290856Y-27792302D01*
X175318638Y-28347368D01*
X175477603Y-28731143D01*
X175719787Y-28800608D01*
X176520395Y-28000000D01*
X176879605Y-28000000D01*
X177680213Y-28800608D01*
X177922397Y-28731143D01*
X178109144Y-28207698D01*
X178081362Y-27652632D01*
X177922397Y-27268857D01*
X177680213Y-27199392D01*
X176879605Y-28000000D01*
X176520395Y-28000000D01*
X175719787Y-27199392D01*
X175477603Y-27268857D01*
X175290856Y-27792302D01*
X152127000Y-27792302D01*
X152127000Y-27019787D01*
X175899392Y-27019787D01*
X176700000Y-27820395D01*
X177500608Y-27019787D01*
X177431143Y-26777603D01*
X176907698Y-26590856D01*
X176352632Y-26618638D01*
X175968857Y-26777603D01*
X175899392Y-27019787D01*
X152127000Y-27019787D01*
X152127000Y-26384865D01*
X158318882Y-26384865D01*
X158422339Y-26635252D01*
X158613741Y-26826987D01*
X158863946Y-26930882D01*
X159134865Y-26931118D01*
X159385252Y-26827661D01*
X159576987Y-26636259D01*
X159680882Y-26386054D01*
X159680883Y-26384865D01*
X168318882Y-26384865D01*
X168422339Y-26635252D01*
X168613741Y-26826987D01*
X168863946Y-26930882D01*
X169134865Y-26931118D01*
X169385252Y-26827661D01*
X169576987Y-26636259D01*
X169680882Y-26386054D01*
X169681118Y-26115135D01*
X169577661Y-25864748D01*
X169386259Y-25673013D01*
X169136054Y-25569118D01*
X168865135Y-25568882D01*
X168614748Y-25672339D01*
X168423013Y-25863741D01*
X168319118Y-26113946D01*
X168318882Y-26384865D01*
X159680883Y-26384865D01*
X159681118Y-26115135D01*
X159577661Y-25864748D01*
X159386259Y-25673013D01*
X159136054Y-25569118D01*
X158865135Y-25568882D01*
X158614748Y-25672339D01*
X158423013Y-25863741D01*
X158319118Y-26113946D01*
X158318882Y-26384865D01*
X152127000Y-26384865D01*
X152127000Y-20882400D01*
X152493936Y-20882400D01*
X152493936Y-23117600D01*
X152520503Y-23258790D01*
X152603946Y-23388465D01*
X152731266Y-23475459D01*
X152882400Y-23506064D01*
X155117600Y-23506064D01*
X155258790Y-23479497D01*
X155388465Y-23396054D01*
X155475459Y-23268734D01*
X155506064Y-23117600D01*
X155506064Y-20984000D01*
X158595536Y-20984000D01*
X158595536Y-23016000D01*
X158622103Y-23157190D01*
X158705546Y-23286865D01*
X158832866Y-23373859D01*
X158984000Y-23404464D01*
X161016000Y-23404464D01*
X161157190Y-23377897D01*
X161286865Y-23294454D01*
X161373859Y-23167134D01*
X161404464Y-23016000D01*
X161404464Y-22794137D01*
X161552172Y-23015197D01*
X162005391Y-23318029D01*
X162540000Y-23424369D01*
X163074609Y-23318029D01*
X163527828Y-23015197D01*
X163830660Y-22561978D01*
X163937000Y-22027369D01*
X163937000Y-21972631D01*
X163830660Y-21438022D01*
X163689231Y-21226359D01*
X164606802Y-21226359D01*
X164780446Y-21646612D01*
X165101697Y-21968423D01*
X165521646Y-22142801D01*
X165976359Y-22143198D01*
X166396612Y-21969554D01*
X166718423Y-21648303D01*
X166892801Y-21228354D01*
X166893014Y-20984000D01*
X168595536Y-20984000D01*
X168595536Y-23016000D01*
X168622103Y-23157190D01*
X168705546Y-23286865D01*
X168832866Y-23373859D01*
X168984000Y-23404464D01*
X171016000Y-23404464D01*
X171157190Y-23377897D01*
X171286865Y-23294454D01*
X171373859Y-23167134D01*
X171404464Y-23016000D01*
X171404464Y-22794137D01*
X171552172Y-23015197D01*
X172005391Y-23318029D01*
X172540000Y-23424369D01*
X173074609Y-23318029D01*
X173527828Y-23015197D01*
X173830660Y-22561978D01*
X173937000Y-22027369D01*
X173937000Y-21972631D01*
X173830660Y-21438022D01*
X173689231Y-21226359D01*
X174356802Y-21226359D01*
X174530446Y-21646612D01*
X174851697Y-21968423D01*
X175271646Y-22142801D01*
X175726359Y-22143198D01*
X176146612Y-21969554D01*
X176468423Y-21648303D01*
X176642801Y-21228354D01*
X176643198Y-20773641D01*
X176469554Y-20353388D01*
X176148303Y-20031577D01*
X175728354Y-19857199D01*
X175273641Y-19856802D01*
X174853388Y-20030446D01*
X174531577Y-20351697D01*
X174357199Y-20771646D01*
X174356802Y-21226359D01*
X173689231Y-21226359D01*
X173527828Y-20984803D01*
X173074609Y-20681971D01*
X172540000Y-20575631D01*
X172005391Y-20681971D01*
X171552172Y-20984803D01*
X171404464Y-21205863D01*
X171404464Y-20984000D01*
X171377897Y-20842810D01*
X171294454Y-20713135D01*
X171167134Y-20626141D01*
X171016000Y-20595536D01*
X168984000Y-20595536D01*
X168842810Y-20622103D01*
X168713135Y-20705546D01*
X168626141Y-20832866D01*
X168595536Y-20984000D01*
X166893014Y-20984000D01*
X166893198Y-20773641D01*
X166719554Y-20353388D01*
X166398303Y-20031577D01*
X165978354Y-19857199D01*
X165523641Y-19856802D01*
X165103388Y-20030446D01*
X164781577Y-20351697D01*
X164607199Y-20771646D01*
X164606802Y-21226359D01*
X163689231Y-21226359D01*
X163527828Y-20984803D01*
X163074609Y-20681971D01*
X162540000Y-20575631D01*
X162005391Y-20681971D01*
X161552172Y-20984803D01*
X161404464Y-21205863D01*
X161404464Y-20984000D01*
X161377897Y-20842810D01*
X161294454Y-20713135D01*
X161167134Y-20626141D01*
X161016000Y-20595536D01*
X158984000Y-20595536D01*
X158842810Y-20622103D01*
X158713135Y-20705546D01*
X158626141Y-20832866D01*
X158595536Y-20984000D01*
X155506064Y-20984000D01*
X155506064Y-20882400D01*
X155479497Y-20741210D01*
X155396054Y-20611535D01*
X155268734Y-20524541D01*
X155117600Y-20493936D01*
X152882400Y-20493936D01*
X152741210Y-20520503D01*
X152611535Y-20603946D01*
X152524541Y-20731266D01*
X152493936Y-20882400D01*
X152127000Y-20882400D01*
X152127000Y-18627000D01*
X178372189Y-18627000D01*
X178273807Y-34073000D01*
G36*
X173273000Y-108073000D02*
X167877000Y-108073000D01*
X167877000Y-105127000D01*
X173273000Y-105127000D01*
X173273000Y-108073000D01*
X173273000Y-108073000D01*
G37*
X173273000Y-108073000D02*
X167877000Y-108073000D01*
X167877000Y-105127000D01*
X173273000Y-105127000D01*
X173273000Y-108073000D01*
G36*
X187373000Y-47156491D02*
X187248303Y-47031577D01*
X186828354Y-46857199D01*
X186373641Y-46856802D01*
X185953388Y-47030446D01*
X185631577Y-47351697D01*
X185457199Y-47771646D01*
X185456802Y-48226359D01*
X185630446Y-48646612D01*
X185951697Y-48968423D01*
X186371646Y-49142801D01*
X186826359Y-49143198D01*
X187246612Y-48969554D01*
X187373000Y-48843386D01*
X187373000Y-54000000D01*
X187383006Y-54049410D01*
X187411447Y-54091035D01*
X187453841Y-54118315D01*
X187500000Y-54127000D01*
X190273000Y-54127000D01*
X190273000Y-76809992D01*
X190136259Y-76673013D01*
X189886054Y-76569118D01*
X189615135Y-76568882D01*
X189364748Y-76672339D01*
X189173013Y-76863741D01*
X189069118Y-77113946D01*
X189068882Y-77384865D01*
X189172339Y-77635252D01*
X189363741Y-77826987D01*
X189613946Y-77930882D01*
X189884865Y-77931118D01*
X190135252Y-77827661D01*
X190273000Y-77690152D01*
X190273000Y-83569020D01*
X190115135Y-83568882D01*
X189864748Y-83672339D01*
X189673013Y-83863741D01*
X189669168Y-83873000D01*
X172650000Y-83873000D01*
X172600590Y-83883006D01*
X172558965Y-83911447D01*
X172531685Y-83953841D01*
X172523000Y-84000000D01*
X172523000Y-88873000D01*
X160527000Y-88873000D01*
X160527000Y-87902532D01*
X163197073Y-87902532D01*
X163295736Y-88169387D01*
X163905461Y-88395908D01*
X164555460Y-88371856D01*
X165044264Y-88169387D01*
X165142927Y-87902532D01*
X164170000Y-86929605D01*
X163197073Y-87902532D01*
X160527000Y-87902532D01*
X160527000Y-86485461D01*
X162524092Y-86485461D01*
X162548144Y-87135460D01*
X162750613Y-87624264D01*
X163017468Y-87722927D01*
X163990395Y-86750000D01*
X164349605Y-86750000D01*
X165322532Y-87722927D01*
X165589387Y-87624264D01*
X165600786Y-87593582D01*
X165926705Y-87920072D01*
X166434097Y-88130759D01*
X166983493Y-88131239D01*
X167491251Y-87921437D01*
X167880072Y-87533295D01*
X167979985Y-87292676D01*
X168078563Y-87531251D01*
X168466705Y-87920072D01*
X168974097Y-88130759D01*
X169523493Y-88131239D01*
X170031251Y-87921437D01*
X170420072Y-87533295D01*
X170630759Y-87025903D01*
X170631239Y-86476507D01*
X170421437Y-85968749D01*
X170033295Y-85579928D01*
X169525903Y-85369241D01*
X168976507Y-85368761D01*
X168468749Y-85578563D01*
X168079928Y-85966705D01*
X167980015Y-86207324D01*
X167881437Y-85968749D01*
X167493295Y-85579928D01*
X166985903Y-85369241D01*
X166436507Y-85368761D01*
X165928749Y-85578563D01*
X165601577Y-85905164D01*
X165589387Y-85875736D01*
X165322532Y-85777073D01*
X164349605Y-86750000D01*
X163990395Y-86750000D01*
X163017468Y-85777073D01*
X162750613Y-85875736D01*
X162524092Y-86485461D01*
X160527000Y-86485461D01*
X160527000Y-85597468D01*
X163197073Y-85597468D01*
X164170000Y-86570395D01*
X165142927Y-85597468D01*
X165044264Y-85330613D01*
X164434539Y-85104092D01*
X163784540Y-85128144D01*
X163295736Y-85330613D01*
X163197073Y-85597468D01*
X160527000Y-85597468D01*
X160527000Y-83380213D01*
X163199392Y-83380213D01*
X163268857Y-83622397D01*
X163792302Y-83809144D01*
X164347368Y-83781362D01*
X164731143Y-83622397D01*
X164800608Y-83380213D01*
X164000000Y-82579605D01*
X163199392Y-83380213D01*
X160527000Y-83380213D01*
X160527000Y-82192302D01*
X162590856Y-82192302D01*
X162618638Y-82747368D01*
X162777603Y-83131143D01*
X163019787Y-83200608D01*
X163820395Y-82400000D01*
X164179605Y-82400000D01*
X164980213Y-83200608D01*
X165222397Y-83131143D01*
X165409144Y-82607698D01*
X165381362Y-82052632D01*
X165222397Y-81668857D01*
X164980213Y-81599392D01*
X164179605Y-82400000D01*
X163820395Y-82400000D01*
X163019787Y-81599392D01*
X162777603Y-81668857D01*
X162590856Y-82192302D01*
X160527000Y-82192302D01*
X160527000Y-81419787D01*
X163199392Y-81419787D01*
X164000000Y-82220395D01*
X164800608Y-81419787D01*
X164731143Y-81177603D01*
X164207698Y-80990856D01*
X163652632Y-81018638D01*
X163268857Y-81177603D01*
X163199392Y-81419787D01*
X160527000Y-81419787D01*
X160527000Y-80984000D01*
X169595536Y-80984000D01*
X169595536Y-83016000D01*
X169622103Y-83157190D01*
X169705546Y-83286865D01*
X169832866Y-83373859D01*
X169984000Y-83404464D01*
X172016000Y-83404464D01*
X172157190Y-83377897D01*
X172286865Y-83294454D01*
X172373859Y-83167134D01*
X172404464Y-83016000D01*
X172404464Y-82794137D01*
X172552172Y-83015197D01*
X173005391Y-83318029D01*
X173540000Y-83424369D01*
X174074609Y-83318029D01*
X174527828Y-83015197D01*
X174830660Y-82561978D01*
X174875835Y-82334865D01*
X178518882Y-82334865D01*
X178622339Y-82585252D01*
X178813741Y-82776987D01*
X179063946Y-82880882D01*
X179334865Y-82881118D01*
X179585252Y-82777661D01*
X179776987Y-82586259D01*
X179880882Y-82336054D01*
X179881118Y-82065135D01*
X179777661Y-81814748D01*
X179697917Y-81734865D01*
X184318882Y-81734865D01*
X184422339Y-81985252D01*
X184613741Y-82176987D01*
X184863946Y-82280882D01*
X185134865Y-82281118D01*
X185385252Y-82177661D01*
X185576987Y-81986259D01*
X185599928Y-81931012D01*
X185622339Y-81985252D01*
X185813741Y-82176987D01*
X186063946Y-82280882D01*
X186334865Y-82281118D01*
X186585252Y-82177661D01*
X186776987Y-81986259D01*
X186880882Y-81736054D01*
X186881118Y-81465135D01*
X186777661Y-81214748D01*
X186586259Y-81023013D01*
X186336054Y-80919118D01*
X186080897Y-80918896D01*
X186081104Y-80681071D01*
X186134865Y-80681118D01*
X186385252Y-80577661D01*
X186576987Y-80386259D01*
X186680882Y-80136054D01*
X186681118Y-79865135D01*
X186577661Y-79614748D01*
X186386259Y-79423013D01*
X186318397Y-79394834D01*
X186326987Y-79386259D01*
X186430882Y-79136054D01*
X186431118Y-78865135D01*
X186327661Y-78614748D01*
X186136259Y-78423013D01*
X185886054Y-78319118D01*
X185615135Y-78318882D01*
X185364748Y-78422339D01*
X185173013Y-78613741D01*
X185069118Y-78863946D01*
X185068882Y-79134865D01*
X185172339Y-79385252D01*
X185363741Y-79576987D01*
X185431603Y-79605166D01*
X185423013Y-79613741D01*
X185319118Y-79863946D01*
X185318896Y-80118929D01*
X185265135Y-80118882D01*
X185014748Y-80222339D01*
X184823013Y-80413741D01*
X184719118Y-80663946D01*
X184718882Y-80934865D01*
X184734569Y-80972830D01*
X184614748Y-81022339D01*
X184423013Y-81213741D01*
X184319118Y-81463946D01*
X184318882Y-81734865D01*
X179697917Y-81734865D01*
X179586259Y-81623013D01*
X179336054Y-81519118D01*
X179065135Y-81518882D01*
X178814748Y-81622339D01*
X178623013Y-81813741D01*
X178519118Y-82063946D01*
X178518882Y-82334865D01*
X174875835Y-82334865D01*
X174937000Y-82027369D01*
X174937000Y-81972631D01*
X174830660Y-81438022D01*
X174826013Y-81431067D01*
X174884865Y-81431118D01*
X175135252Y-81327661D01*
X175326987Y-81136259D01*
X175430882Y-80886054D01*
X175431118Y-80615135D01*
X175327661Y-80364748D01*
X175136259Y-80173013D01*
X174886054Y-80069118D01*
X174615135Y-80068882D01*
X174364748Y-80172339D01*
X174173013Y-80363741D01*
X174069118Y-80613946D01*
X174069060Y-80680867D01*
X173540000Y-80575631D01*
X173005391Y-80681971D01*
X172552172Y-80984803D01*
X172404464Y-81205863D01*
X172404464Y-80984000D01*
X172377897Y-80842810D01*
X172294454Y-80713135D01*
X172167134Y-80626141D01*
X172016000Y-80595536D01*
X169984000Y-80595536D01*
X169842810Y-80622103D01*
X169713135Y-80705546D01*
X169626141Y-80832866D01*
X169595536Y-80984000D01*
X160527000Y-80984000D01*
X160527000Y-80023784D01*
X161130313Y-80023784D01*
X161294311Y-80420689D01*
X161597714Y-80724622D01*
X161994332Y-80889313D01*
X162423784Y-80889687D01*
X162820689Y-80725689D01*
X163124622Y-80422286D01*
X163289313Y-80025668D01*
X163289314Y-80023784D01*
X166210313Y-80023784D01*
X166374311Y-80420689D01*
X166677714Y-80724622D01*
X167074332Y-80889313D01*
X167503784Y-80889687D01*
X167900689Y-80725689D01*
X168204622Y-80422286D01*
X168369313Y-80025668D01*
X168369687Y-79596216D01*
X168205689Y-79199311D01*
X167902286Y-78895378D01*
X167505668Y-78730687D01*
X167076216Y-78730313D01*
X166679311Y-78894311D01*
X166375378Y-79197714D01*
X166210687Y-79594332D01*
X166210313Y-80023784D01*
X163289314Y-80023784D01*
X163289687Y-79596216D01*
X163125689Y-79199311D01*
X162822286Y-78895378D01*
X162425668Y-78730687D01*
X161996216Y-78730313D01*
X161599311Y-78894311D01*
X161295378Y-79197714D01*
X161130687Y-79594332D01*
X161130313Y-80023784D01*
X160527000Y-80023784D01*
X160527000Y-78634865D01*
X177068882Y-78634865D01*
X177172339Y-78885252D01*
X177363741Y-79076987D01*
X177613946Y-79180882D01*
X177884865Y-79181118D01*
X178135252Y-79077661D01*
X178326987Y-78886259D01*
X178430882Y-78636054D01*
X178431118Y-78365135D01*
X178327661Y-78114748D01*
X178136259Y-77923013D01*
X177886054Y-77819118D01*
X177615135Y-77818882D01*
X177364748Y-77922339D01*
X177173013Y-78113741D01*
X177069118Y-78363946D01*
X177068882Y-78634865D01*
X160527000Y-78634865D01*
X160527000Y-77634865D01*
X170068882Y-77634865D01*
X170172339Y-77885252D01*
X170363741Y-78076987D01*
X170613946Y-78180882D01*
X170884865Y-78181118D01*
X171135252Y-78077661D01*
X171326987Y-77886259D01*
X171430882Y-77636054D01*
X171431100Y-77384865D01*
X171568882Y-77384865D01*
X171672339Y-77635252D01*
X171863741Y-77826987D01*
X172113946Y-77930882D01*
X172384865Y-77931118D01*
X172635252Y-77827661D01*
X172826987Y-77636259D01*
X172827565Y-77634865D01*
X180818882Y-77634865D01*
X180922339Y-77885252D01*
X181113741Y-78076987D01*
X181363946Y-78180882D01*
X181634865Y-78181118D01*
X181885252Y-78077661D01*
X182076987Y-77886259D01*
X182180882Y-77636054D01*
X182181118Y-77365135D01*
X182077661Y-77114748D01*
X181886259Y-76923013D01*
X181636054Y-76819118D01*
X181365135Y-76818882D01*
X181114748Y-76922339D01*
X180923013Y-77113741D01*
X180819118Y-77363946D01*
X180818882Y-77634865D01*
X172827565Y-77634865D01*
X172930882Y-77386054D01*
X172931118Y-77115135D01*
X172827661Y-76864748D01*
X172636259Y-76673013D01*
X172386054Y-76569118D01*
X172115135Y-76568882D01*
X171864748Y-76672339D01*
X171673013Y-76863741D01*
X171569118Y-77113946D01*
X171568882Y-77384865D01*
X171431100Y-77384865D01*
X171431118Y-77365135D01*
X171327661Y-77114748D01*
X171136259Y-76923013D01*
X170886054Y-76819118D01*
X170615135Y-76818882D01*
X170364748Y-76922339D01*
X170173013Y-77113741D01*
X170069118Y-77363946D01*
X170068882Y-77634865D01*
X160527000Y-77634865D01*
X160527000Y-73726359D01*
X181606802Y-73726359D01*
X181780446Y-74146612D01*
X182101697Y-74468423D01*
X182521646Y-74642801D01*
X182976359Y-74643198D01*
X183396612Y-74469554D01*
X183718423Y-74148303D01*
X183892801Y-73728354D01*
X183893198Y-73273641D01*
X183719554Y-72853388D01*
X183398303Y-72531577D01*
X182978354Y-72357199D01*
X182523641Y-72356802D01*
X182103388Y-72530446D01*
X181781577Y-72851697D01*
X181607199Y-73271646D01*
X181606802Y-73726359D01*
X160527000Y-73726359D01*
X160527000Y-72403784D01*
X161130313Y-72403784D01*
X161294311Y-72800689D01*
X161597714Y-73104622D01*
X161994332Y-73269313D01*
X162423784Y-73269687D01*
X162820689Y-73105689D01*
X163124622Y-72802286D01*
X163289313Y-72405668D01*
X163289314Y-72403784D01*
X166210313Y-72403784D01*
X166374311Y-72800689D01*
X166677714Y-73104622D01*
X167074332Y-73269313D01*
X167503784Y-73269687D01*
X167900689Y-73105689D01*
X168204622Y-72802286D01*
X168369313Y-72405668D01*
X168369687Y-71976216D01*
X168205689Y-71579311D01*
X167902286Y-71275378D01*
X167505668Y-71110687D01*
X167076216Y-71110313D01*
X166679311Y-71274311D01*
X166375378Y-71577714D01*
X166210687Y-71974332D01*
X166210313Y-72403784D01*
X163289314Y-72403784D01*
X163289687Y-71976216D01*
X163125689Y-71579311D01*
X162822286Y-71275378D01*
X162425668Y-71110687D01*
X161996216Y-71110313D01*
X161599311Y-71274311D01*
X161295378Y-71577714D01*
X161130687Y-71974332D01*
X161130313Y-72403784D01*
X160527000Y-72403784D01*
X160527000Y-70534865D01*
X172818882Y-70534865D01*
X172922339Y-70785252D01*
X173113741Y-70976987D01*
X173363946Y-71080882D01*
X173634865Y-71081118D01*
X173885252Y-70977661D01*
X174076987Y-70786259D01*
X174180882Y-70536054D01*
X174181118Y-70265135D01*
X174077661Y-70014748D01*
X173886259Y-69823013D01*
X173636054Y-69719118D01*
X173365135Y-69718882D01*
X173114748Y-69822339D01*
X172923013Y-70013741D01*
X172819118Y-70263946D01*
X172818882Y-70534865D01*
X160527000Y-70534865D01*
X160527000Y-68884865D01*
X166068882Y-68884865D01*
X166172339Y-69135252D01*
X166363741Y-69326987D01*
X166613946Y-69430882D01*
X166884865Y-69431118D01*
X167135252Y-69327661D01*
X167326987Y-69136259D01*
X167430882Y-68886054D01*
X167430926Y-68834865D01*
X172818882Y-68834865D01*
X172922339Y-69085252D01*
X173113741Y-69276987D01*
X173363946Y-69380882D01*
X173634865Y-69381118D01*
X173885252Y-69277661D01*
X174076987Y-69086259D01*
X174180882Y-68836054D01*
X174181118Y-68565135D01*
X174077661Y-68314748D01*
X173886259Y-68123013D01*
X173636054Y-68019118D01*
X173365135Y-68018882D01*
X173114748Y-68122339D01*
X172923013Y-68313741D01*
X172819118Y-68563946D01*
X172818882Y-68834865D01*
X167430926Y-68834865D01*
X167431118Y-68615135D01*
X167327661Y-68364748D01*
X167136259Y-68173013D01*
X166886054Y-68069118D01*
X166615135Y-68068882D01*
X166364748Y-68172339D01*
X166173013Y-68363741D01*
X166069118Y-68613946D01*
X166068882Y-68884865D01*
X160527000Y-68884865D01*
X160527000Y-68000000D01*
X160516994Y-67950590D01*
X160488553Y-67908965D01*
X160446159Y-67881685D01*
X160400000Y-67873000D01*
X149527000Y-67873000D01*
X149527000Y-67726359D01*
X179106802Y-67726359D01*
X179280446Y-68146612D01*
X179601697Y-68468423D01*
X180021646Y-68642801D01*
X180410805Y-68643141D01*
X180319118Y-68863946D01*
X180318882Y-69134865D01*
X180422339Y-69385252D01*
X180613741Y-69576987D01*
X180863946Y-69680882D01*
X181134865Y-69681118D01*
X181385252Y-69577661D01*
X181576987Y-69386259D01*
X181680882Y-69136054D01*
X181681118Y-68865135D01*
X181577661Y-68614748D01*
X181386259Y-68423013D01*
X181136054Y-68319118D01*
X181047388Y-68319041D01*
X181218423Y-68148303D01*
X181392801Y-67728354D01*
X181393198Y-67273641D01*
X181219554Y-66853388D01*
X180898303Y-66531577D01*
X180478354Y-66357199D01*
X180023641Y-66356802D01*
X179603388Y-66530446D01*
X179281577Y-66851697D01*
X179107199Y-67271646D01*
X179106802Y-67726359D01*
X149527000Y-67726359D01*
X149527000Y-66384865D01*
X166818882Y-66384865D01*
X166922339Y-66635252D01*
X167113741Y-66826987D01*
X167363946Y-66930882D01*
X167634865Y-66931118D01*
X167867816Y-66834865D01*
X170018882Y-66834865D01*
X170122339Y-67085252D01*
X170313741Y-67276987D01*
X170563946Y-67380882D01*
X170834865Y-67381118D01*
X171085252Y-67277661D01*
X171099858Y-67263080D01*
X171113741Y-67276987D01*
X171363946Y-67380882D01*
X171634865Y-67381118D01*
X171885252Y-67277661D01*
X171949945Y-67213080D01*
X172013741Y-67276987D01*
X172263946Y-67380882D01*
X172534865Y-67381118D01*
X172785252Y-67277661D01*
X172976987Y-67086259D01*
X173080882Y-66836054D01*
X173081118Y-66565135D01*
X172985974Y-66334865D01*
X174518882Y-66334865D01*
X174622339Y-66585252D01*
X174813741Y-66776987D01*
X175063946Y-66880882D01*
X175334865Y-66881118D01*
X175585252Y-66777661D01*
X175776987Y-66586259D01*
X175880882Y-66336054D01*
X175881118Y-66065135D01*
X175777661Y-65814748D01*
X175586259Y-65623013D01*
X175336054Y-65519118D01*
X175065135Y-65518882D01*
X174814748Y-65622339D01*
X174623013Y-65813741D01*
X174519118Y-66063946D01*
X174518882Y-66334865D01*
X172985974Y-66334865D01*
X172977661Y-66314748D01*
X172786259Y-66123013D01*
X172536054Y-66019118D01*
X172265135Y-66018882D01*
X172014748Y-66122339D01*
X171950055Y-66186920D01*
X171886259Y-66123013D01*
X171636054Y-66019118D01*
X171365135Y-66018882D01*
X171114748Y-66122339D01*
X171100142Y-66136920D01*
X171086259Y-66123013D01*
X170836054Y-66019118D01*
X170565135Y-66018882D01*
X170314748Y-66122339D01*
X170123013Y-66313741D01*
X170019118Y-66563946D01*
X170018882Y-66834865D01*
X167867816Y-66834865D01*
X167885252Y-66827661D01*
X168076987Y-66636259D01*
X168180882Y-66386054D01*
X168181118Y-66115135D01*
X168077661Y-65864748D01*
X167886259Y-65673013D01*
X167636054Y-65569118D01*
X167365135Y-65568882D01*
X167114748Y-65672339D01*
X166923013Y-65863741D01*
X166819118Y-66113946D01*
X166818882Y-66384865D01*
X149527000Y-66384865D01*
X149527000Y-64134865D01*
X153318882Y-64134865D01*
X153422339Y-64385252D01*
X153613741Y-64576987D01*
X153863946Y-64680882D01*
X154134865Y-64681118D01*
X154385252Y-64577661D01*
X154576987Y-64386259D01*
X154680882Y-64136054D01*
X154681118Y-63865135D01*
X154585974Y-63634865D01*
X159318882Y-63634865D01*
X159422339Y-63885252D01*
X159613741Y-64076987D01*
X159863946Y-64180882D01*
X160134865Y-64181118D01*
X160385252Y-64077661D01*
X160576987Y-63886259D01*
X160680882Y-63636054D01*
X160680883Y-63634865D01*
X164818882Y-63634865D01*
X164922339Y-63885252D01*
X165113741Y-64076987D01*
X165363946Y-64180882D01*
X165634865Y-64181118D01*
X165885252Y-64077661D01*
X166076987Y-63886259D01*
X166098327Y-63834865D01*
X170218882Y-63834865D01*
X170322339Y-64085252D01*
X170513741Y-64276987D01*
X170763946Y-64380882D01*
X171034865Y-64381118D01*
X171285252Y-64277661D01*
X171476987Y-64086259D01*
X171580882Y-63836054D01*
X171581118Y-63565135D01*
X171477661Y-63314748D01*
X171286259Y-63123013D01*
X171036054Y-63019118D01*
X170765135Y-63018882D01*
X170514748Y-63122339D01*
X170323013Y-63313741D01*
X170219118Y-63563946D01*
X170218882Y-63834865D01*
X166098327Y-63834865D01*
X166180882Y-63636054D01*
X166181118Y-63365135D01*
X166077661Y-63114748D01*
X165886259Y-62923013D01*
X165673977Y-62834865D01*
X172518882Y-62834865D01*
X172622339Y-63085252D01*
X172813741Y-63276987D01*
X173063946Y-63380882D01*
X173334865Y-63381118D01*
X173585252Y-63277661D01*
X173728296Y-63134865D01*
X181618882Y-63134865D01*
X181722339Y-63385252D01*
X181913741Y-63576987D01*
X182163946Y-63680882D01*
X182218929Y-63680930D01*
X182218882Y-63734865D01*
X182294926Y-63918908D01*
X182265135Y-63918882D01*
X182014748Y-64022339D01*
X181823013Y-64213741D01*
X181719118Y-64463946D01*
X181718882Y-64734865D01*
X181822339Y-64985252D01*
X182013741Y-65176987D01*
X182263946Y-65280882D01*
X182534865Y-65281118D01*
X182785252Y-65177661D01*
X182976987Y-64986259D01*
X183080882Y-64736054D01*
X183080970Y-64634865D01*
X186068882Y-64634865D01*
X186172339Y-64885252D01*
X186363741Y-65076987D01*
X186613946Y-65180882D01*
X186884865Y-65181118D01*
X187135252Y-65077661D01*
X187326987Y-64886259D01*
X187430882Y-64636054D01*
X187431118Y-64365135D01*
X187327661Y-64114748D01*
X187136259Y-63923013D01*
X186886054Y-63819118D01*
X186615135Y-63818882D01*
X186364748Y-63922339D01*
X186173013Y-64113741D01*
X186069118Y-64363946D01*
X186068882Y-64634865D01*
X183080970Y-64634865D01*
X183081118Y-64465135D01*
X183005074Y-64281092D01*
X183034865Y-64281118D01*
X183285252Y-64177661D01*
X183476987Y-63986259D01*
X183580882Y-63736054D01*
X183581118Y-63465135D01*
X183477661Y-63214748D01*
X183286259Y-63023013D01*
X183036054Y-62919118D01*
X182981071Y-62919070D01*
X182981118Y-62865135D01*
X182877661Y-62614748D01*
X182686259Y-62423013D01*
X182436054Y-62319118D01*
X182165135Y-62318882D01*
X181914748Y-62422339D01*
X181723013Y-62613741D01*
X181619118Y-62863946D01*
X181618882Y-63134865D01*
X173728296Y-63134865D01*
X173776987Y-63086259D01*
X173880882Y-62836054D01*
X173881118Y-62565135D01*
X173777661Y-62314748D01*
X173586259Y-62123013D01*
X173336054Y-62019118D01*
X173065135Y-62018882D01*
X172814748Y-62122339D01*
X172623013Y-62313741D01*
X172519118Y-62563946D01*
X172518882Y-62834865D01*
X165673977Y-62834865D01*
X165636054Y-62819118D01*
X165365135Y-62818882D01*
X165114748Y-62922339D01*
X164923013Y-63113741D01*
X164819118Y-63363946D01*
X164818882Y-63634865D01*
X160680883Y-63634865D01*
X160681118Y-63365135D01*
X160577661Y-63114748D01*
X160386259Y-62923013D01*
X160136054Y-62819118D01*
X159865135Y-62818882D01*
X159614748Y-62922339D01*
X159423013Y-63113741D01*
X159319118Y-63363946D01*
X159318882Y-63634865D01*
X154585974Y-63634865D01*
X154577661Y-63614748D01*
X154386259Y-63423013D01*
X154136054Y-63319118D01*
X153865135Y-63318882D01*
X153614748Y-63422339D01*
X153423013Y-63613741D01*
X153319118Y-63863946D01*
X153318882Y-64134865D01*
X149527000Y-64134865D01*
X149527000Y-62734865D01*
X150018882Y-62734865D01*
X150122339Y-62985252D01*
X150313741Y-63176987D01*
X150563946Y-63280882D01*
X150834865Y-63281118D01*
X151085252Y-63177661D01*
X151276987Y-62986259D01*
X151380882Y-62736054D01*
X151381118Y-62465135D01*
X151277661Y-62214748D01*
X151086259Y-62023013D01*
X150836054Y-61919118D01*
X150565135Y-61918882D01*
X150314748Y-62022339D01*
X150123013Y-62213741D01*
X150019118Y-62463946D01*
X150018882Y-62734865D01*
X149527000Y-62734865D01*
X149527000Y-60884865D01*
X151568882Y-60884865D01*
X151672339Y-61135252D01*
X151863741Y-61326987D01*
X152113946Y-61430882D01*
X152384865Y-61431118D01*
X152635252Y-61327661D01*
X152826987Y-61136259D01*
X152930882Y-60886054D01*
X152931118Y-60615135D01*
X152827661Y-60364748D01*
X152636259Y-60173013D01*
X152386054Y-60069118D01*
X152115135Y-60068882D01*
X151864748Y-60172339D01*
X151673013Y-60363741D01*
X151569118Y-60613946D01*
X151568882Y-60884865D01*
X149527000Y-60884865D01*
X149527000Y-59634865D01*
X152818882Y-59634865D01*
X152922339Y-59885252D01*
X153113741Y-60076987D01*
X153363946Y-60180882D01*
X153634865Y-60181118D01*
X153885252Y-60077661D01*
X154076987Y-59886259D01*
X154098327Y-59834865D01*
X163818882Y-59834865D01*
X163922339Y-60085252D01*
X164036920Y-60200032D01*
X163923013Y-60313741D01*
X163819118Y-60563946D01*
X163818882Y-60834865D01*
X163922339Y-61085252D01*
X164113741Y-61276987D01*
X164363946Y-61380882D01*
X164634865Y-61381118D01*
X164746806Y-61334865D01*
X169218882Y-61334865D01*
X169322339Y-61585252D01*
X169336920Y-61599858D01*
X169323013Y-61613741D01*
X169219118Y-61863946D01*
X169218882Y-62134865D01*
X169322339Y-62385252D01*
X169513741Y-62576987D01*
X169763946Y-62680882D01*
X170034865Y-62681118D01*
X170285252Y-62577661D01*
X170476987Y-62386259D01*
X170580882Y-62136054D01*
X170581118Y-61865135D01*
X170477661Y-61614748D01*
X170463080Y-61600142D01*
X170476987Y-61586259D01*
X170580882Y-61336054D01*
X170580883Y-61334865D01*
X172518882Y-61334865D01*
X172622339Y-61585252D01*
X172813741Y-61776987D01*
X173063946Y-61880882D01*
X173334865Y-61881118D01*
X173585252Y-61777661D01*
X173776987Y-61586259D01*
X173880882Y-61336054D01*
X173881118Y-61065135D01*
X173777661Y-60814748D01*
X173586259Y-60623013D01*
X173336054Y-60519118D01*
X173065135Y-60518882D01*
X172814748Y-60622339D01*
X172623013Y-60813741D01*
X172519118Y-61063946D01*
X172518882Y-61334865D01*
X170580883Y-61334865D01*
X170581118Y-61065135D01*
X170477661Y-60814748D01*
X170286259Y-60623013D01*
X170036054Y-60519118D01*
X169765135Y-60518882D01*
X169514748Y-60622339D01*
X169323013Y-60813741D01*
X169219118Y-61063946D01*
X169218882Y-61334865D01*
X164746806Y-61334865D01*
X164885252Y-61277661D01*
X165076987Y-61086259D01*
X165180882Y-60836054D01*
X165181118Y-60565135D01*
X165077661Y-60314748D01*
X164963080Y-60199968D01*
X165076987Y-60086259D01*
X165180882Y-59836054D01*
X165181118Y-59565135D01*
X165077661Y-59314748D01*
X164886259Y-59123013D01*
X164636054Y-59019118D01*
X164365135Y-59018882D01*
X164114748Y-59122339D01*
X163923013Y-59313741D01*
X163819118Y-59563946D01*
X163818882Y-59834865D01*
X154098327Y-59834865D01*
X154180882Y-59636054D01*
X154181118Y-59365135D01*
X154077661Y-59114748D01*
X153886259Y-58923013D01*
X153636054Y-58819118D01*
X153365135Y-58818882D01*
X153114748Y-58922339D01*
X152923013Y-59113741D01*
X152819118Y-59363946D01*
X152818882Y-59634865D01*
X149527000Y-59634865D01*
X149527000Y-58884865D01*
X150068882Y-58884865D01*
X150172339Y-59135252D01*
X150363741Y-59326987D01*
X150613946Y-59430882D01*
X150884865Y-59431118D01*
X151135252Y-59327661D01*
X151326987Y-59136259D01*
X151430882Y-58886054D01*
X151431118Y-58615135D01*
X151327661Y-58364748D01*
X151136259Y-58173013D01*
X150886054Y-58069118D01*
X150615135Y-58068882D01*
X150364748Y-58172339D01*
X150173013Y-58363741D01*
X150069118Y-58613946D01*
X150068882Y-58884865D01*
X149527000Y-58884865D01*
X149527000Y-57634865D01*
X153318882Y-57634865D01*
X153422339Y-57885252D01*
X153613741Y-58076987D01*
X153863946Y-58180882D01*
X154134865Y-58181118D01*
X154385252Y-58077661D01*
X154576987Y-57886259D01*
X154680882Y-57636054D01*
X154681118Y-57365135D01*
X154627292Y-57234865D01*
X163818882Y-57234865D01*
X163922339Y-57485252D01*
X164113741Y-57676987D01*
X164363946Y-57780882D01*
X164634865Y-57781118D01*
X164885252Y-57677661D01*
X165076987Y-57486259D01*
X165180882Y-57236054D01*
X165181118Y-56965135D01*
X165147952Y-56884865D01*
X174818882Y-56884865D01*
X174922339Y-57135252D01*
X175113741Y-57326987D01*
X175363946Y-57430882D01*
X175634865Y-57431118D01*
X175885252Y-57327661D01*
X175894662Y-57318268D01*
X175922339Y-57385252D01*
X176113741Y-57576987D01*
X176363946Y-57680882D01*
X176634865Y-57681118D01*
X176885252Y-57577661D01*
X177076987Y-57386259D01*
X177180882Y-57136054D01*
X177181118Y-56865135D01*
X177077661Y-56614748D01*
X176886259Y-56423013D01*
X176636054Y-56319118D01*
X176365135Y-56318882D01*
X176114748Y-56422339D01*
X176105338Y-56431732D01*
X176077661Y-56364748D01*
X175886259Y-56173013D01*
X175636054Y-56069118D01*
X175365135Y-56068882D01*
X175114748Y-56172339D01*
X174923013Y-56363741D01*
X174819118Y-56613946D01*
X174818882Y-56884865D01*
X165147952Y-56884865D01*
X165077661Y-56714748D01*
X164886259Y-56523013D01*
X164636054Y-56419118D01*
X164365135Y-56418882D01*
X164114748Y-56522339D01*
X163923013Y-56713741D01*
X163819118Y-56963946D01*
X163818882Y-57234865D01*
X154627292Y-57234865D01*
X154577661Y-57114748D01*
X154386259Y-56923013D01*
X154136054Y-56819118D01*
X153865135Y-56818882D01*
X153614748Y-56922339D01*
X153423013Y-57113741D01*
X153319118Y-57363946D01*
X153318882Y-57634865D01*
X149527000Y-57634865D01*
X149527000Y-56134865D01*
X150068882Y-56134865D01*
X150172339Y-56385252D01*
X150363741Y-56576987D01*
X150613946Y-56680882D01*
X150884865Y-56681118D01*
X151135252Y-56577661D01*
X151326987Y-56386259D01*
X151430882Y-56136054D01*
X151431118Y-55865135D01*
X151327661Y-55614748D01*
X151136259Y-55423013D01*
X150886054Y-55319118D01*
X150615135Y-55318882D01*
X150364748Y-55422339D01*
X150173013Y-55613741D01*
X150069118Y-55863946D01*
X150068882Y-56134865D01*
X149527000Y-56134865D01*
X149527000Y-54577000D01*
X166955221Y-54577000D01*
X166919118Y-54663946D01*
X166918882Y-54934865D01*
X167022339Y-55185252D01*
X167213741Y-55376987D01*
X167463946Y-55480882D01*
X167734865Y-55481118D01*
X167985252Y-55377661D01*
X168176987Y-55186259D01*
X168280882Y-54936054D01*
X168281118Y-54665135D01*
X168244702Y-54577000D01*
X169577611Y-54577000D01*
X169622339Y-54685252D01*
X169813741Y-54876987D01*
X170063946Y-54980882D01*
X170334865Y-54981118D01*
X170585252Y-54877661D01*
X170776987Y-54686259D01*
X170822356Y-54577000D01*
X171577611Y-54577000D01*
X171622339Y-54685252D01*
X171813741Y-54876987D01*
X172063946Y-54980882D01*
X172334865Y-54981118D01*
X172585252Y-54877661D01*
X172776987Y-54686259D01*
X172822356Y-54577000D01*
X174209818Y-54577000D01*
X174173013Y-54613741D01*
X174069118Y-54863946D01*
X174068882Y-55134865D01*
X174172339Y-55385252D01*
X174363741Y-55576987D01*
X174613946Y-55680882D01*
X174884865Y-55681118D01*
X175135252Y-55577661D01*
X175326987Y-55386259D01*
X175430882Y-55136054D01*
X175431118Y-54865135D01*
X175327661Y-54614748D01*
X175289979Y-54577000D01*
X176959818Y-54577000D01*
X176923013Y-54613741D01*
X176819118Y-54863946D01*
X176818882Y-55134865D01*
X176922339Y-55385252D01*
X177113741Y-55576987D01*
X177363946Y-55680882D01*
X177634865Y-55681118D01*
X177885252Y-55577661D01*
X178076987Y-55386259D01*
X178180882Y-55136054D01*
X178181118Y-54865135D01*
X178077661Y-54614748D01*
X178039979Y-54577000D01*
X180834460Y-54577000D01*
X180819118Y-54613946D01*
X180818882Y-54884865D01*
X180922339Y-55135252D01*
X181113741Y-55326987D01*
X181319076Y-55412250D01*
X181318882Y-55634865D01*
X181422339Y-55885252D01*
X181613741Y-56076987D01*
X181863946Y-56180882D01*
X182134865Y-56181118D01*
X182385252Y-56077661D01*
X182576987Y-55886259D01*
X182680882Y-55636054D01*
X182681118Y-55365135D01*
X182577661Y-55114748D01*
X182386259Y-54923013D01*
X182180924Y-54837750D01*
X182181118Y-54615135D01*
X182077661Y-54364748D01*
X181886259Y-54173013D01*
X181749938Y-54116407D01*
X181968423Y-53898303D01*
X182142801Y-53478354D01*
X182143198Y-53023641D01*
X181969554Y-52603388D01*
X181648303Y-52281577D01*
X181377000Y-52168922D01*
X181377000Y-45884865D01*
X182568882Y-45884865D01*
X182672339Y-46135252D01*
X182863741Y-46326987D01*
X183113946Y-46430882D01*
X183384865Y-46431118D01*
X183635252Y-46327661D01*
X183826987Y-46136259D01*
X183930882Y-45886054D01*
X183931118Y-45615135D01*
X183827661Y-45364748D01*
X183636259Y-45173013D01*
X183386054Y-45069118D01*
X183115135Y-45068882D01*
X182864748Y-45172339D01*
X182673013Y-45363741D01*
X182569118Y-45613946D01*
X182568882Y-45884865D01*
X181377000Y-45884865D01*
X181377000Y-41377000D01*
X187373000Y-41377000D01*
X187373000Y-47156491D01*
X187373000Y-47156491D01*
G37*
X187373000Y-47156491D02*
X187248303Y-47031577D01*
X186828354Y-46857199D01*
X186373641Y-46856802D01*
X185953388Y-47030446D01*
X185631577Y-47351697D01*
X185457199Y-47771646D01*
X185456802Y-48226359D01*
X185630446Y-48646612D01*
X185951697Y-48968423D01*
X186371646Y-49142801D01*
X186826359Y-49143198D01*
X187246612Y-48969554D01*
X187373000Y-48843386D01*
X187373000Y-54000000D01*
X187383006Y-54049410D01*
X187411447Y-54091035D01*
X187453841Y-54118315D01*
X187500000Y-54127000D01*
X190273000Y-54127000D01*
X190273000Y-76809992D01*
X190136259Y-76673013D01*
X189886054Y-76569118D01*
X189615135Y-76568882D01*
X189364748Y-76672339D01*
X189173013Y-76863741D01*
X189069118Y-77113946D01*
X189068882Y-77384865D01*
X189172339Y-77635252D01*
X189363741Y-77826987D01*
X189613946Y-77930882D01*
X189884865Y-77931118D01*
X190135252Y-77827661D01*
X190273000Y-77690152D01*
X190273000Y-83569020D01*
X190115135Y-83568882D01*
X189864748Y-83672339D01*
X189673013Y-83863741D01*
X189669168Y-83873000D01*
X172650000Y-83873000D01*
X172600590Y-83883006D01*
X172558965Y-83911447D01*
X172531685Y-83953841D01*
X172523000Y-84000000D01*
X172523000Y-88873000D01*
X160527000Y-88873000D01*
X160527000Y-87902532D01*
X163197073Y-87902532D01*
X163295736Y-88169387D01*
X163905461Y-88395908D01*
X164555460Y-88371856D01*
X165044264Y-88169387D01*
X165142927Y-87902532D01*
X164170000Y-86929605D01*
X163197073Y-87902532D01*
X160527000Y-87902532D01*
X160527000Y-86485461D01*
X162524092Y-86485461D01*
X162548144Y-87135460D01*
X162750613Y-87624264D01*
X163017468Y-87722927D01*
X163990395Y-86750000D01*
X164349605Y-86750000D01*
X165322532Y-87722927D01*
X165589387Y-87624264D01*
X165600786Y-87593582D01*
X165926705Y-87920072D01*
X166434097Y-88130759D01*
X166983493Y-88131239D01*
X167491251Y-87921437D01*
X167880072Y-87533295D01*
X167979985Y-87292676D01*
X168078563Y-87531251D01*
X168466705Y-87920072D01*
X168974097Y-88130759D01*
X169523493Y-88131239D01*
X170031251Y-87921437D01*
X170420072Y-87533295D01*
X170630759Y-87025903D01*
X170631239Y-86476507D01*
X170421437Y-85968749D01*
X170033295Y-85579928D01*
X169525903Y-85369241D01*
X168976507Y-85368761D01*
X168468749Y-85578563D01*
X168079928Y-85966705D01*
X167980015Y-86207324D01*
X167881437Y-85968749D01*
X167493295Y-85579928D01*
X166985903Y-85369241D01*
X166436507Y-85368761D01*
X165928749Y-85578563D01*
X165601577Y-85905164D01*
X165589387Y-85875736D01*
X165322532Y-85777073D01*
X164349605Y-86750000D01*
X163990395Y-86750000D01*
X163017468Y-85777073D01*
X162750613Y-85875736D01*
X162524092Y-86485461D01*
X160527000Y-86485461D01*
X160527000Y-85597468D01*
X163197073Y-85597468D01*
X164170000Y-86570395D01*
X165142927Y-85597468D01*
X165044264Y-85330613D01*
X164434539Y-85104092D01*
X163784540Y-85128144D01*
X163295736Y-85330613D01*
X163197073Y-85597468D01*
X160527000Y-85597468D01*
X160527000Y-83380213D01*
X163199392Y-83380213D01*
X163268857Y-83622397D01*
X163792302Y-83809144D01*
X164347368Y-83781362D01*
X164731143Y-83622397D01*
X164800608Y-83380213D01*
X164000000Y-82579605D01*
X163199392Y-83380213D01*
X160527000Y-83380213D01*
X160527000Y-82192302D01*
X162590856Y-82192302D01*
X162618638Y-82747368D01*
X162777603Y-83131143D01*
X163019787Y-83200608D01*
X163820395Y-82400000D01*
X164179605Y-82400000D01*
X164980213Y-83200608D01*
X165222397Y-83131143D01*
X165409144Y-82607698D01*
X165381362Y-82052632D01*
X165222397Y-81668857D01*
X164980213Y-81599392D01*
X164179605Y-82400000D01*
X163820395Y-82400000D01*
X163019787Y-81599392D01*
X162777603Y-81668857D01*
X162590856Y-82192302D01*
X160527000Y-82192302D01*
X160527000Y-81419787D01*
X163199392Y-81419787D01*
X164000000Y-82220395D01*
X164800608Y-81419787D01*
X164731143Y-81177603D01*
X164207698Y-80990856D01*
X163652632Y-81018638D01*
X163268857Y-81177603D01*
X163199392Y-81419787D01*
X160527000Y-81419787D01*
X160527000Y-80984000D01*
X169595536Y-80984000D01*
X169595536Y-83016000D01*
X169622103Y-83157190D01*
X169705546Y-83286865D01*
X169832866Y-83373859D01*
X169984000Y-83404464D01*
X172016000Y-83404464D01*
X172157190Y-83377897D01*
X172286865Y-83294454D01*
X172373859Y-83167134D01*
X172404464Y-83016000D01*
X172404464Y-82794137D01*
X172552172Y-83015197D01*
X173005391Y-83318029D01*
X173540000Y-83424369D01*
X174074609Y-83318029D01*
X174527828Y-83015197D01*
X174830660Y-82561978D01*
X174875835Y-82334865D01*
X178518882Y-82334865D01*
X178622339Y-82585252D01*
X178813741Y-82776987D01*
X179063946Y-82880882D01*
X179334865Y-82881118D01*
X179585252Y-82777661D01*
X179776987Y-82586259D01*
X179880882Y-82336054D01*
X179881118Y-82065135D01*
X179777661Y-81814748D01*
X179697917Y-81734865D01*
X184318882Y-81734865D01*
X184422339Y-81985252D01*
X184613741Y-82176987D01*
X184863946Y-82280882D01*
X185134865Y-82281118D01*
X185385252Y-82177661D01*
X185576987Y-81986259D01*
X185599928Y-81931012D01*
X185622339Y-81985252D01*
X185813741Y-82176987D01*
X186063946Y-82280882D01*
X186334865Y-82281118D01*
X186585252Y-82177661D01*
X186776987Y-81986259D01*
X186880882Y-81736054D01*
X186881118Y-81465135D01*
X186777661Y-81214748D01*
X186586259Y-81023013D01*
X186336054Y-80919118D01*
X186080897Y-80918896D01*
X186081104Y-80681071D01*
X186134865Y-80681118D01*
X186385252Y-80577661D01*
X186576987Y-80386259D01*
X186680882Y-80136054D01*
X186681118Y-79865135D01*
X186577661Y-79614748D01*
X186386259Y-79423013D01*
X186318397Y-79394834D01*
X186326987Y-79386259D01*
X186430882Y-79136054D01*
X186431118Y-78865135D01*
X186327661Y-78614748D01*
X186136259Y-78423013D01*
X185886054Y-78319118D01*
X185615135Y-78318882D01*
X185364748Y-78422339D01*
X185173013Y-78613741D01*
X185069118Y-78863946D01*
X185068882Y-79134865D01*
X185172339Y-79385252D01*
X185363741Y-79576987D01*
X185431603Y-79605166D01*
X185423013Y-79613741D01*
X185319118Y-79863946D01*
X185318896Y-80118929D01*
X185265135Y-80118882D01*
X185014748Y-80222339D01*
X184823013Y-80413741D01*
X184719118Y-80663946D01*
X184718882Y-80934865D01*
X184734569Y-80972830D01*
X184614748Y-81022339D01*
X184423013Y-81213741D01*
X184319118Y-81463946D01*
X184318882Y-81734865D01*
X179697917Y-81734865D01*
X179586259Y-81623013D01*
X179336054Y-81519118D01*
X179065135Y-81518882D01*
X178814748Y-81622339D01*
X178623013Y-81813741D01*
X178519118Y-82063946D01*
X178518882Y-82334865D01*
X174875835Y-82334865D01*
X174937000Y-82027369D01*
X174937000Y-81972631D01*
X174830660Y-81438022D01*
X174826013Y-81431067D01*
X174884865Y-81431118D01*
X175135252Y-81327661D01*
X175326987Y-81136259D01*
X175430882Y-80886054D01*
X175431118Y-80615135D01*
X175327661Y-80364748D01*
X175136259Y-80173013D01*
X174886054Y-80069118D01*
X174615135Y-80068882D01*
X174364748Y-80172339D01*
X174173013Y-80363741D01*
X174069118Y-80613946D01*
X174069060Y-80680867D01*
X173540000Y-80575631D01*
X173005391Y-80681971D01*
X172552172Y-80984803D01*
X172404464Y-81205863D01*
X172404464Y-80984000D01*
X172377897Y-80842810D01*
X172294454Y-80713135D01*
X172167134Y-80626141D01*
X172016000Y-80595536D01*
X169984000Y-80595536D01*
X169842810Y-80622103D01*
X169713135Y-80705546D01*
X169626141Y-80832866D01*
X169595536Y-80984000D01*
X160527000Y-80984000D01*
X160527000Y-80023784D01*
X161130313Y-80023784D01*
X161294311Y-80420689D01*
X161597714Y-80724622D01*
X161994332Y-80889313D01*
X162423784Y-80889687D01*
X162820689Y-80725689D01*
X163124622Y-80422286D01*
X163289313Y-80025668D01*
X163289314Y-80023784D01*
X166210313Y-80023784D01*
X166374311Y-80420689D01*
X166677714Y-80724622D01*
X167074332Y-80889313D01*
X167503784Y-80889687D01*
X167900689Y-80725689D01*
X168204622Y-80422286D01*
X168369313Y-80025668D01*
X168369687Y-79596216D01*
X168205689Y-79199311D01*
X167902286Y-78895378D01*
X167505668Y-78730687D01*
X167076216Y-78730313D01*
X166679311Y-78894311D01*
X166375378Y-79197714D01*
X166210687Y-79594332D01*
X166210313Y-80023784D01*
X163289314Y-80023784D01*
X163289687Y-79596216D01*
X163125689Y-79199311D01*
X162822286Y-78895378D01*
X162425668Y-78730687D01*
X161996216Y-78730313D01*
X161599311Y-78894311D01*
X161295378Y-79197714D01*
X161130687Y-79594332D01*
X161130313Y-80023784D01*
X160527000Y-80023784D01*
X160527000Y-78634865D01*
X177068882Y-78634865D01*
X177172339Y-78885252D01*
X177363741Y-79076987D01*
X177613946Y-79180882D01*
X177884865Y-79181118D01*
X178135252Y-79077661D01*
X178326987Y-78886259D01*
X178430882Y-78636054D01*
X178431118Y-78365135D01*
X178327661Y-78114748D01*
X178136259Y-77923013D01*
X177886054Y-77819118D01*
X177615135Y-77818882D01*
X177364748Y-77922339D01*
X177173013Y-78113741D01*
X177069118Y-78363946D01*
X177068882Y-78634865D01*
X160527000Y-78634865D01*
X160527000Y-77634865D01*
X170068882Y-77634865D01*
X170172339Y-77885252D01*
X170363741Y-78076987D01*
X170613946Y-78180882D01*
X170884865Y-78181118D01*
X171135252Y-78077661D01*
X171326987Y-77886259D01*
X171430882Y-77636054D01*
X171431100Y-77384865D01*
X171568882Y-77384865D01*
X171672339Y-77635252D01*
X171863741Y-77826987D01*
X172113946Y-77930882D01*
X172384865Y-77931118D01*
X172635252Y-77827661D01*
X172826987Y-77636259D01*
X172827565Y-77634865D01*
X180818882Y-77634865D01*
X180922339Y-77885252D01*
X181113741Y-78076987D01*
X181363946Y-78180882D01*
X181634865Y-78181118D01*
X181885252Y-78077661D01*
X182076987Y-77886259D01*
X182180882Y-77636054D01*
X182181118Y-77365135D01*
X182077661Y-77114748D01*
X181886259Y-76923013D01*
X181636054Y-76819118D01*
X181365135Y-76818882D01*
X181114748Y-76922339D01*
X180923013Y-77113741D01*
X180819118Y-77363946D01*
X180818882Y-77634865D01*
X172827565Y-77634865D01*
X172930882Y-77386054D01*
X172931118Y-77115135D01*
X172827661Y-76864748D01*
X172636259Y-76673013D01*
X172386054Y-76569118D01*
X172115135Y-76568882D01*
X171864748Y-76672339D01*
X171673013Y-76863741D01*
X171569118Y-77113946D01*
X171568882Y-77384865D01*
X171431100Y-77384865D01*
X171431118Y-77365135D01*
X171327661Y-77114748D01*
X171136259Y-76923013D01*
X170886054Y-76819118D01*
X170615135Y-76818882D01*
X170364748Y-76922339D01*
X170173013Y-77113741D01*
X170069118Y-77363946D01*
X170068882Y-77634865D01*
X160527000Y-77634865D01*
X160527000Y-73726359D01*
X181606802Y-73726359D01*
X181780446Y-74146612D01*
X182101697Y-74468423D01*
X182521646Y-74642801D01*
X182976359Y-74643198D01*
X183396612Y-74469554D01*
X183718423Y-74148303D01*
X183892801Y-73728354D01*
X183893198Y-73273641D01*
X183719554Y-72853388D01*
X183398303Y-72531577D01*
X182978354Y-72357199D01*
X182523641Y-72356802D01*
X182103388Y-72530446D01*
X181781577Y-72851697D01*
X181607199Y-73271646D01*
X181606802Y-73726359D01*
X160527000Y-73726359D01*
X160527000Y-72403784D01*
X161130313Y-72403784D01*
X161294311Y-72800689D01*
X161597714Y-73104622D01*
X161994332Y-73269313D01*
X162423784Y-73269687D01*
X162820689Y-73105689D01*
X163124622Y-72802286D01*
X163289313Y-72405668D01*
X163289314Y-72403784D01*
X166210313Y-72403784D01*
X166374311Y-72800689D01*
X166677714Y-73104622D01*
X167074332Y-73269313D01*
X167503784Y-73269687D01*
X167900689Y-73105689D01*
X168204622Y-72802286D01*
X168369313Y-72405668D01*
X168369687Y-71976216D01*
X168205689Y-71579311D01*
X167902286Y-71275378D01*
X167505668Y-71110687D01*
X167076216Y-71110313D01*
X166679311Y-71274311D01*
X166375378Y-71577714D01*
X166210687Y-71974332D01*
X166210313Y-72403784D01*
X163289314Y-72403784D01*
X163289687Y-71976216D01*
X163125689Y-71579311D01*
X162822286Y-71275378D01*
X162425668Y-71110687D01*
X161996216Y-71110313D01*
X161599311Y-71274311D01*
X161295378Y-71577714D01*
X161130687Y-71974332D01*
X161130313Y-72403784D01*
X160527000Y-72403784D01*
X160527000Y-70534865D01*
X172818882Y-70534865D01*
X172922339Y-70785252D01*
X173113741Y-70976987D01*
X173363946Y-71080882D01*
X173634865Y-71081118D01*
X173885252Y-70977661D01*
X174076987Y-70786259D01*
X174180882Y-70536054D01*
X174181118Y-70265135D01*
X174077661Y-70014748D01*
X173886259Y-69823013D01*
X173636054Y-69719118D01*
X173365135Y-69718882D01*
X173114748Y-69822339D01*
X172923013Y-70013741D01*
X172819118Y-70263946D01*
X172818882Y-70534865D01*
X160527000Y-70534865D01*
X160527000Y-68884865D01*
X166068882Y-68884865D01*
X166172339Y-69135252D01*
X166363741Y-69326987D01*
X166613946Y-69430882D01*
X166884865Y-69431118D01*
X167135252Y-69327661D01*
X167326987Y-69136259D01*
X167430882Y-68886054D01*
X167430926Y-68834865D01*
X172818882Y-68834865D01*
X172922339Y-69085252D01*
X173113741Y-69276987D01*
X173363946Y-69380882D01*
X173634865Y-69381118D01*
X173885252Y-69277661D01*
X174076987Y-69086259D01*
X174180882Y-68836054D01*
X174181118Y-68565135D01*
X174077661Y-68314748D01*
X173886259Y-68123013D01*
X173636054Y-68019118D01*
X173365135Y-68018882D01*
X173114748Y-68122339D01*
X172923013Y-68313741D01*
X172819118Y-68563946D01*
X172818882Y-68834865D01*
X167430926Y-68834865D01*
X167431118Y-68615135D01*
X167327661Y-68364748D01*
X167136259Y-68173013D01*
X166886054Y-68069118D01*
X166615135Y-68068882D01*
X166364748Y-68172339D01*
X166173013Y-68363741D01*
X166069118Y-68613946D01*
X166068882Y-68884865D01*
X160527000Y-68884865D01*
X160527000Y-68000000D01*
X160516994Y-67950590D01*
X160488553Y-67908965D01*
X160446159Y-67881685D01*
X160400000Y-67873000D01*
X149527000Y-67873000D01*
X149527000Y-67726359D01*
X179106802Y-67726359D01*
X179280446Y-68146612D01*
X179601697Y-68468423D01*
X180021646Y-68642801D01*
X180410805Y-68643141D01*
X180319118Y-68863946D01*
X180318882Y-69134865D01*
X180422339Y-69385252D01*
X180613741Y-69576987D01*
X180863946Y-69680882D01*
X181134865Y-69681118D01*
X181385252Y-69577661D01*
X181576987Y-69386259D01*
X181680882Y-69136054D01*
X181681118Y-68865135D01*
X181577661Y-68614748D01*
X181386259Y-68423013D01*
X181136054Y-68319118D01*
X181047388Y-68319041D01*
X181218423Y-68148303D01*
X181392801Y-67728354D01*
X181393198Y-67273641D01*
X181219554Y-66853388D01*
X180898303Y-66531577D01*
X180478354Y-66357199D01*
X180023641Y-66356802D01*
X179603388Y-66530446D01*
X179281577Y-66851697D01*
X179107199Y-67271646D01*
X179106802Y-67726359D01*
X149527000Y-67726359D01*
X149527000Y-66384865D01*
X166818882Y-66384865D01*
X166922339Y-66635252D01*
X167113741Y-66826987D01*
X167363946Y-66930882D01*
X167634865Y-66931118D01*
X167867816Y-66834865D01*
X170018882Y-66834865D01*
X170122339Y-67085252D01*
X170313741Y-67276987D01*
X170563946Y-67380882D01*
X170834865Y-67381118D01*
X171085252Y-67277661D01*
X171099858Y-67263080D01*
X171113741Y-67276987D01*
X171363946Y-67380882D01*
X171634865Y-67381118D01*
X171885252Y-67277661D01*
X171949945Y-67213080D01*
X172013741Y-67276987D01*
X172263946Y-67380882D01*
X172534865Y-67381118D01*
X172785252Y-67277661D01*
X172976987Y-67086259D01*
X173080882Y-66836054D01*
X173081118Y-66565135D01*
X172985974Y-66334865D01*
X174518882Y-66334865D01*
X174622339Y-66585252D01*
X174813741Y-66776987D01*
X175063946Y-66880882D01*
X175334865Y-66881118D01*
X175585252Y-66777661D01*
X175776987Y-66586259D01*
X175880882Y-66336054D01*
X175881118Y-66065135D01*
X175777661Y-65814748D01*
X175586259Y-65623013D01*
X175336054Y-65519118D01*
X175065135Y-65518882D01*
X174814748Y-65622339D01*
X174623013Y-65813741D01*
X174519118Y-66063946D01*
X174518882Y-66334865D01*
X172985974Y-66334865D01*
X172977661Y-66314748D01*
X172786259Y-66123013D01*
X172536054Y-66019118D01*
X172265135Y-66018882D01*
X172014748Y-66122339D01*
X171950055Y-66186920D01*
X171886259Y-66123013D01*
X171636054Y-66019118D01*
X171365135Y-66018882D01*
X171114748Y-66122339D01*
X171100142Y-66136920D01*
X171086259Y-66123013D01*
X170836054Y-66019118D01*
X170565135Y-66018882D01*
X170314748Y-66122339D01*
X170123013Y-66313741D01*
X170019118Y-66563946D01*
X170018882Y-66834865D01*
X167867816Y-66834865D01*
X167885252Y-66827661D01*
X168076987Y-66636259D01*
X168180882Y-66386054D01*
X168181118Y-66115135D01*
X168077661Y-65864748D01*
X167886259Y-65673013D01*
X167636054Y-65569118D01*
X167365135Y-65568882D01*
X167114748Y-65672339D01*
X166923013Y-65863741D01*
X166819118Y-66113946D01*
X166818882Y-66384865D01*
X149527000Y-66384865D01*
X149527000Y-64134865D01*
X153318882Y-64134865D01*
X153422339Y-64385252D01*
X153613741Y-64576987D01*
X153863946Y-64680882D01*
X154134865Y-64681118D01*
X154385252Y-64577661D01*
X154576987Y-64386259D01*
X154680882Y-64136054D01*
X154681118Y-63865135D01*
X154585974Y-63634865D01*
X159318882Y-63634865D01*
X159422339Y-63885252D01*
X159613741Y-64076987D01*
X159863946Y-64180882D01*
X160134865Y-64181118D01*
X160385252Y-64077661D01*
X160576987Y-63886259D01*
X160680882Y-63636054D01*
X160680883Y-63634865D01*
X164818882Y-63634865D01*
X164922339Y-63885252D01*
X165113741Y-64076987D01*
X165363946Y-64180882D01*
X165634865Y-64181118D01*
X165885252Y-64077661D01*
X166076987Y-63886259D01*
X166098327Y-63834865D01*
X170218882Y-63834865D01*
X170322339Y-64085252D01*
X170513741Y-64276987D01*
X170763946Y-64380882D01*
X171034865Y-64381118D01*
X171285252Y-64277661D01*
X171476987Y-64086259D01*
X171580882Y-63836054D01*
X171581118Y-63565135D01*
X171477661Y-63314748D01*
X171286259Y-63123013D01*
X171036054Y-63019118D01*
X170765135Y-63018882D01*
X170514748Y-63122339D01*
X170323013Y-63313741D01*
X170219118Y-63563946D01*
X170218882Y-63834865D01*
X166098327Y-63834865D01*
X166180882Y-63636054D01*
X166181118Y-63365135D01*
X166077661Y-63114748D01*
X165886259Y-62923013D01*
X165673977Y-62834865D01*
X172518882Y-62834865D01*
X172622339Y-63085252D01*
X172813741Y-63276987D01*
X173063946Y-63380882D01*
X173334865Y-63381118D01*
X173585252Y-63277661D01*
X173728296Y-63134865D01*
X181618882Y-63134865D01*
X181722339Y-63385252D01*
X181913741Y-63576987D01*
X182163946Y-63680882D01*
X182218929Y-63680930D01*
X182218882Y-63734865D01*
X182294926Y-63918908D01*
X182265135Y-63918882D01*
X182014748Y-64022339D01*
X181823013Y-64213741D01*
X181719118Y-64463946D01*
X181718882Y-64734865D01*
X181822339Y-64985252D01*
X182013741Y-65176987D01*
X182263946Y-65280882D01*
X182534865Y-65281118D01*
X182785252Y-65177661D01*
X182976987Y-64986259D01*
X183080882Y-64736054D01*
X183080970Y-64634865D01*
X186068882Y-64634865D01*
X186172339Y-64885252D01*
X186363741Y-65076987D01*
X186613946Y-65180882D01*
X186884865Y-65181118D01*
X187135252Y-65077661D01*
X187326987Y-64886259D01*
X187430882Y-64636054D01*
X187431118Y-64365135D01*
X187327661Y-64114748D01*
X187136259Y-63923013D01*
X186886054Y-63819118D01*
X186615135Y-63818882D01*
X186364748Y-63922339D01*
X186173013Y-64113741D01*
X186069118Y-64363946D01*
X186068882Y-64634865D01*
X183080970Y-64634865D01*
X183081118Y-64465135D01*
X183005074Y-64281092D01*
X183034865Y-64281118D01*
X183285252Y-64177661D01*
X183476987Y-63986259D01*
X183580882Y-63736054D01*
X183581118Y-63465135D01*
X183477661Y-63214748D01*
X183286259Y-63023013D01*
X183036054Y-62919118D01*
X182981071Y-62919070D01*
X182981118Y-62865135D01*
X182877661Y-62614748D01*
X182686259Y-62423013D01*
X182436054Y-62319118D01*
X182165135Y-62318882D01*
X181914748Y-62422339D01*
X181723013Y-62613741D01*
X181619118Y-62863946D01*
X181618882Y-63134865D01*
X173728296Y-63134865D01*
X173776987Y-63086259D01*
X173880882Y-62836054D01*
X173881118Y-62565135D01*
X173777661Y-62314748D01*
X173586259Y-62123013D01*
X173336054Y-62019118D01*
X173065135Y-62018882D01*
X172814748Y-62122339D01*
X172623013Y-62313741D01*
X172519118Y-62563946D01*
X172518882Y-62834865D01*
X165673977Y-62834865D01*
X165636054Y-62819118D01*
X165365135Y-62818882D01*
X165114748Y-62922339D01*
X164923013Y-63113741D01*
X164819118Y-63363946D01*
X164818882Y-63634865D01*
X160680883Y-63634865D01*
X160681118Y-63365135D01*
X160577661Y-63114748D01*
X160386259Y-62923013D01*
X160136054Y-62819118D01*
X159865135Y-62818882D01*
X159614748Y-62922339D01*
X159423013Y-63113741D01*
X159319118Y-63363946D01*
X159318882Y-63634865D01*
X154585974Y-63634865D01*
X154577661Y-63614748D01*
X154386259Y-63423013D01*
X154136054Y-63319118D01*
X153865135Y-63318882D01*
X153614748Y-63422339D01*
X153423013Y-63613741D01*
X153319118Y-63863946D01*
X153318882Y-64134865D01*
X149527000Y-64134865D01*
X149527000Y-62734865D01*
X150018882Y-62734865D01*
X150122339Y-62985252D01*
X150313741Y-63176987D01*
X150563946Y-63280882D01*
X150834865Y-63281118D01*
X151085252Y-63177661D01*
X151276987Y-62986259D01*
X151380882Y-62736054D01*
X151381118Y-62465135D01*
X151277661Y-62214748D01*
X151086259Y-62023013D01*
X150836054Y-61919118D01*
X150565135Y-61918882D01*
X150314748Y-62022339D01*
X150123013Y-62213741D01*
X150019118Y-62463946D01*
X150018882Y-62734865D01*
X149527000Y-62734865D01*
X149527000Y-60884865D01*
X151568882Y-60884865D01*
X151672339Y-61135252D01*
X151863741Y-61326987D01*
X152113946Y-61430882D01*
X152384865Y-61431118D01*
X152635252Y-61327661D01*
X152826987Y-61136259D01*
X152930882Y-60886054D01*
X152931118Y-60615135D01*
X152827661Y-60364748D01*
X152636259Y-60173013D01*
X152386054Y-60069118D01*
X152115135Y-60068882D01*
X151864748Y-60172339D01*
X151673013Y-60363741D01*
X151569118Y-60613946D01*
X151568882Y-60884865D01*
X149527000Y-60884865D01*
X149527000Y-59634865D01*
X152818882Y-59634865D01*
X152922339Y-59885252D01*
X153113741Y-60076987D01*
X153363946Y-60180882D01*
X153634865Y-60181118D01*
X153885252Y-60077661D01*
X154076987Y-59886259D01*
X154098327Y-59834865D01*
X163818882Y-59834865D01*
X163922339Y-60085252D01*
X164036920Y-60200032D01*
X163923013Y-60313741D01*
X163819118Y-60563946D01*
X163818882Y-60834865D01*
X163922339Y-61085252D01*
X164113741Y-61276987D01*
X164363946Y-61380882D01*
X164634865Y-61381118D01*
X164746806Y-61334865D01*
X169218882Y-61334865D01*
X169322339Y-61585252D01*
X169336920Y-61599858D01*
X169323013Y-61613741D01*
X169219118Y-61863946D01*
X169218882Y-62134865D01*
X169322339Y-62385252D01*
X169513741Y-62576987D01*
X169763946Y-62680882D01*
X170034865Y-62681118D01*
X170285252Y-62577661D01*
X170476987Y-62386259D01*
X170580882Y-62136054D01*
X170581118Y-61865135D01*
X170477661Y-61614748D01*
X170463080Y-61600142D01*
X170476987Y-61586259D01*
X170580882Y-61336054D01*
X170580883Y-61334865D01*
X172518882Y-61334865D01*
X172622339Y-61585252D01*
X172813741Y-61776987D01*
X173063946Y-61880882D01*
X173334865Y-61881118D01*
X173585252Y-61777661D01*
X173776987Y-61586259D01*
X173880882Y-61336054D01*
X173881118Y-61065135D01*
X173777661Y-60814748D01*
X173586259Y-60623013D01*
X173336054Y-60519118D01*
X173065135Y-60518882D01*
X172814748Y-60622339D01*
X172623013Y-60813741D01*
X172519118Y-61063946D01*
X172518882Y-61334865D01*
X170580883Y-61334865D01*
X170581118Y-61065135D01*
X170477661Y-60814748D01*
X170286259Y-60623013D01*
X170036054Y-60519118D01*
X169765135Y-60518882D01*
X169514748Y-60622339D01*
X169323013Y-60813741D01*
X169219118Y-61063946D01*
X169218882Y-61334865D01*
X164746806Y-61334865D01*
X164885252Y-61277661D01*
X165076987Y-61086259D01*
X165180882Y-60836054D01*
X165181118Y-60565135D01*
X165077661Y-60314748D01*
X164963080Y-60199968D01*
X165076987Y-60086259D01*
X165180882Y-59836054D01*
X165181118Y-59565135D01*
X165077661Y-59314748D01*
X164886259Y-59123013D01*
X164636054Y-59019118D01*
X164365135Y-59018882D01*
X164114748Y-59122339D01*
X163923013Y-59313741D01*
X163819118Y-59563946D01*
X163818882Y-59834865D01*
X154098327Y-59834865D01*
X154180882Y-59636054D01*
X154181118Y-59365135D01*
X154077661Y-59114748D01*
X153886259Y-58923013D01*
X153636054Y-58819118D01*
X153365135Y-58818882D01*
X153114748Y-58922339D01*
X152923013Y-59113741D01*
X152819118Y-59363946D01*
X152818882Y-59634865D01*
X149527000Y-59634865D01*
X149527000Y-58884865D01*
X150068882Y-58884865D01*
X150172339Y-59135252D01*
X150363741Y-59326987D01*
X150613946Y-59430882D01*
X150884865Y-59431118D01*
X151135252Y-59327661D01*
X151326987Y-59136259D01*
X151430882Y-58886054D01*
X151431118Y-58615135D01*
X151327661Y-58364748D01*
X151136259Y-58173013D01*
X150886054Y-58069118D01*
X150615135Y-58068882D01*
X150364748Y-58172339D01*
X150173013Y-58363741D01*
X150069118Y-58613946D01*
X150068882Y-58884865D01*
X149527000Y-58884865D01*
X149527000Y-57634865D01*
X153318882Y-57634865D01*
X153422339Y-57885252D01*
X153613741Y-58076987D01*
X153863946Y-58180882D01*
X154134865Y-58181118D01*
X154385252Y-58077661D01*
X154576987Y-57886259D01*
X154680882Y-57636054D01*
X154681118Y-57365135D01*
X154627292Y-57234865D01*
X163818882Y-57234865D01*
X163922339Y-57485252D01*
X164113741Y-57676987D01*
X164363946Y-57780882D01*
X164634865Y-57781118D01*
X164885252Y-57677661D01*
X165076987Y-57486259D01*
X165180882Y-57236054D01*
X165181118Y-56965135D01*
X165147952Y-56884865D01*
X174818882Y-56884865D01*
X174922339Y-57135252D01*
X175113741Y-57326987D01*
X175363946Y-57430882D01*
X175634865Y-57431118D01*
X175885252Y-57327661D01*
X175894662Y-57318268D01*
X175922339Y-57385252D01*
X176113741Y-57576987D01*
X176363946Y-57680882D01*
X176634865Y-57681118D01*
X176885252Y-57577661D01*
X177076987Y-57386259D01*
X177180882Y-57136054D01*
X177181118Y-56865135D01*
X177077661Y-56614748D01*
X176886259Y-56423013D01*
X176636054Y-56319118D01*
X176365135Y-56318882D01*
X176114748Y-56422339D01*
X176105338Y-56431732D01*
X176077661Y-56364748D01*
X175886259Y-56173013D01*
X175636054Y-56069118D01*
X175365135Y-56068882D01*
X175114748Y-56172339D01*
X174923013Y-56363741D01*
X174819118Y-56613946D01*
X174818882Y-56884865D01*
X165147952Y-56884865D01*
X165077661Y-56714748D01*
X164886259Y-56523013D01*
X164636054Y-56419118D01*
X164365135Y-56418882D01*
X164114748Y-56522339D01*
X163923013Y-56713741D01*
X163819118Y-56963946D01*
X163818882Y-57234865D01*
X154627292Y-57234865D01*
X154577661Y-57114748D01*
X154386259Y-56923013D01*
X154136054Y-56819118D01*
X153865135Y-56818882D01*
X153614748Y-56922339D01*
X153423013Y-57113741D01*
X153319118Y-57363946D01*
X153318882Y-57634865D01*
X149527000Y-57634865D01*
X149527000Y-56134865D01*
X150068882Y-56134865D01*
X150172339Y-56385252D01*
X150363741Y-56576987D01*
X150613946Y-56680882D01*
X150884865Y-56681118D01*
X151135252Y-56577661D01*
X151326987Y-56386259D01*
X151430882Y-56136054D01*
X151431118Y-55865135D01*
X151327661Y-55614748D01*
X151136259Y-55423013D01*
X150886054Y-55319118D01*
X150615135Y-55318882D01*
X150364748Y-55422339D01*
X150173013Y-55613741D01*
X150069118Y-55863946D01*
X150068882Y-56134865D01*
X149527000Y-56134865D01*
X149527000Y-54577000D01*
X166955221Y-54577000D01*
X166919118Y-54663946D01*
X166918882Y-54934865D01*
X167022339Y-55185252D01*
X167213741Y-55376987D01*
X167463946Y-55480882D01*
X167734865Y-55481118D01*
X167985252Y-55377661D01*
X168176987Y-55186259D01*
X168280882Y-54936054D01*
X168281118Y-54665135D01*
X168244702Y-54577000D01*
X169577611Y-54577000D01*
X169622339Y-54685252D01*
X169813741Y-54876987D01*
X170063946Y-54980882D01*
X170334865Y-54981118D01*
X170585252Y-54877661D01*
X170776987Y-54686259D01*
X170822356Y-54577000D01*
X171577611Y-54577000D01*
X171622339Y-54685252D01*
X171813741Y-54876987D01*
X172063946Y-54980882D01*
X172334865Y-54981118D01*
X172585252Y-54877661D01*
X172776987Y-54686259D01*
X172822356Y-54577000D01*
X174209818Y-54577000D01*
X174173013Y-54613741D01*
X174069118Y-54863946D01*
X174068882Y-55134865D01*
X174172339Y-55385252D01*
X174363741Y-55576987D01*
X174613946Y-55680882D01*
X174884865Y-55681118D01*
X175135252Y-55577661D01*
X175326987Y-55386259D01*
X175430882Y-55136054D01*
X175431118Y-54865135D01*
X175327661Y-54614748D01*
X175289979Y-54577000D01*
X176959818Y-54577000D01*
X176923013Y-54613741D01*
X176819118Y-54863946D01*
X176818882Y-55134865D01*
X176922339Y-55385252D01*
X177113741Y-55576987D01*
X177363946Y-55680882D01*
X177634865Y-55681118D01*
X177885252Y-55577661D01*
X178076987Y-55386259D01*
X178180882Y-55136054D01*
X178181118Y-54865135D01*
X178077661Y-54614748D01*
X178039979Y-54577000D01*
X180834460Y-54577000D01*
X180819118Y-54613946D01*
X180818882Y-54884865D01*
X180922339Y-55135252D01*
X181113741Y-55326987D01*
X181319076Y-55412250D01*
X181318882Y-55634865D01*
X181422339Y-55885252D01*
X181613741Y-56076987D01*
X181863946Y-56180882D01*
X182134865Y-56181118D01*
X182385252Y-56077661D01*
X182576987Y-55886259D01*
X182680882Y-55636054D01*
X182681118Y-55365135D01*
X182577661Y-55114748D01*
X182386259Y-54923013D01*
X182180924Y-54837750D01*
X182181118Y-54615135D01*
X182077661Y-54364748D01*
X181886259Y-54173013D01*
X181749938Y-54116407D01*
X181968423Y-53898303D01*
X182142801Y-53478354D01*
X182143198Y-53023641D01*
X181969554Y-52603388D01*
X181648303Y-52281577D01*
X181377000Y-52168922D01*
X181377000Y-45884865D01*
X182568882Y-45884865D01*
X182672339Y-46135252D01*
X182863741Y-46326987D01*
X183113946Y-46430882D01*
X183384865Y-46431118D01*
X183635252Y-46327661D01*
X183826987Y-46136259D01*
X183930882Y-45886054D01*
X183931118Y-45615135D01*
X183827661Y-45364748D01*
X183636259Y-45173013D01*
X183386054Y-45069118D01*
X183115135Y-45068882D01*
X182864748Y-45172339D01*
X182673013Y-45363741D01*
X182569118Y-45613946D01*
X182568882Y-45884865D01*
X181377000Y-45884865D01*
X181377000Y-41377000D01*
X187373000Y-41377000D01*
X187373000Y-47156491D01*
G36*
X154623000Y-99373000D02*
X150627000Y-99373000D01*
X150627000Y-94877000D01*
X154623000Y-94877000D01*
X154623000Y-99373000D01*
X154623000Y-99373000D01*
G37*
X154623000Y-99373000D02*
X150627000Y-99373000D01*
X150627000Y-94877000D01*
X154623000Y-94877000D01*
X154623000Y-99373000D01*
G36*
X72273000Y-78573000D02*
X69927000Y-78573000D01*
X69927000Y-76827000D01*
X72273000Y-76827000D01*
X72273000Y-78573000D01*
X72273000Y-78573000D01*
G37*
X72273000Y-78573000D02*
X69927000Y-78573000D01*
X69927000Y-76827000D01*
X72273000Y-76827000D01*
X72273000Y-78573000D01*
G36*
X137123000Y-48723000D02*
X135627000Y-48723000D01*
X135627000Y-46727000D01*
X137123000Y-46727000D01*
X137123000Y-48723000D01*
X137123000Y-48723000D01*
G37*
X137123000Y-48723000D02*
X135627000Y-48723000D01*
X135627000Y-46727000D01*
X137123000Y-46727000D01*
X137123000Y-48723000D01*
D37*
G36*
X77309500Y-79809500D02*
X75690500Y-79809500D01*
X75690500Y-79190500D01*
X77309500Y-79190500D01*
X77309500Y-79809500D01*
X77309500Y-79809500D01*
G37*
X77309500Y-79809500D02*
X75690500Y-79809500D01*
X75690500Y-79190500D01*
X77309500Y-79190500D01*
X77309500Y-79809500D01*
M02*
