M48
;DRILL file {KiCad 4.0.5+dfsg1-4} date Tue Nov 14 04:39:18 2017
;FORMAT={2:4/ absolute / inch / suppress leading zeros}
FMAT,2
INCH,TZ
T1C0.012
T2C0.016
T3C0.026
T4C0.030
T5C0.031
T6C0.032
T7C0.039
T8C0.040
T9C0.043
T10C0.047
T11C0.059
T12C0.079
T13C0.264
%
G90
G05
M72
T1
X20276Y-19488
X20276Y-20866
X22047Y-20866
X24311Y-32480
X25236Y-18898
X25236Y-19094
X25236Y-19291
X25236Y-19488
X25236Y-19685
X25236Y-19882
X25236Y-20079
X25236Y-20276
X25492Y-34449
X25787Y-34449
X26772Y-32677
X27165Y-31890
X27721Y-35497
X27721Y-35960
X27835Y-19449
X27835Y-19646
X27835Y-19843
X27835Y-20039
X27835Y-20236
X27835Y-20433
X28184Y-35497
X28184Y-35960
X28602Y-27126
X28602Y-27598
X28740Y-15650
X28903Y-17288
X28903Y-17751
X28937Y-19882
X29075Y-27126
X29075Y-27598
X29331Y-33071
X29331Y-33858
X29365Y-17288
X29365Y-17751
X29823Y-36122
X29882Y-31260
X29882Y-31496
X29882Y-31732
X29882Y-31969
X29921Y-15059
X29921Y-19783
X30020Y-17028
X30118Y-31260
X30118Y-31496
X30118Y-31732
X30118Y-31969
X30354Y-31260
X30354Y-31496
X30354Y-31732
X30354Y-31969
X30709Y-15945
X30906Y-33071
X30906Y-33858
X32874Y-13681
X33602Y-12520
X33839Y-12520
X34075Y-12520
X34311Y-12520
X34547Y-12520
X34783Y-12520
X35236Y-14665
X39665Y-26181
X39921Y-18898
X39921Y-19094
X39921Y-19291
X39921Y-19488
X39921Y-19685
X39921Y-19882
X39921Y-20079
X39921Y-20276
X40354Y-26476
X40512Y-27126
X40512Y-27598
X40984Y-27126
X40984Y-27598
X42402Y-29291
X42402Y-29528
X42402Y-29764
X42402Y-30000
X42638Y-29291
X42638Y-29528
X42638Y-29764
X42638Y-30000
X42677Y-19449
X42677Y-19646
X42677Y-19843
X42677Y-20039
X42677Y-20236
X42677Y-20433
X48622Y-31929
X48780Y-31772
X48937Y-31614
X49094Y-31457
X49252Y-31299
X49409Y-31142
X50512Y-20394
X52264Y-20079
X53110Y-21378
X53150Y-21811
X53543Y-18504
X53543Y-19094
X53543Y-26811
X53543Y-27087
X53740Y-18504
X53740Y-19094
X53740Y-21063
X54724Y-12047
X54724Y-22539
X54724Y-25197
X55020Y-20866
X55413Y-17028
X55630Y-12874
X55709Y-24902
X55807Y-22835
X55984Y-21339
X55984Y-21732
X55984Y-22087
X56024Y-23150
X56024Y-24646
X56201Y-19587
X56220Y-12205
X56594Y-20079
X57244Y-21811
X57795Y-12953
X58346Y-12205
X58661Y-20079
X59134Y-22736
X59331Y-24646
X59350Y-21063
X59350Y-22047
X59350Y-23130
X59547Y-25591
X59606Y-38110
X59606Y-38346
X59843Y-38110
X59843Y-38346
X59941Y-19094
X59941Y-23917
X60079Y-38110
X60079Y-38346
X60315Y-38110
X60315Y-38346
X60433Y-23425
X60512Y-36417
X60551Y-38110
X60551Y-38346
X60630Y-22638
X60630Y-25197
X60630Y-36713
X60728Y-13091
X60787Y-38110
X60787Y-38346
X60925Y-16732
X61024Y-15945
X61299Y-37047
X61319Y-13091
X61417Y-43110
X61417Y-43307
X61417Y-43504
X61417Y-43701
X61417Y-43898
X61811Y-11220
X61811Y-37500
X62598Y-10335
X62618Y-41417
X62618Y-41594
X62618Y-41772
X62618Y-41988
X62618Y-42205
X62992Y-25000
X63366Y-39528
X63366Y-39764
X63366Y-40000
X63366Y-40236
X63484Y-17717
X63701Y-37835
X63831Y-41383
X63831Y-41688
X63878Y-26083
X63976Y-15256
X63976Y-16142
X63976Y-44016
X64319Y-41383
X64319Y-41688
X64331Y-44016
X64469Y-10335
X64567Y-17323
X64665Y-13780
X64764Y-22480
X64764Y-23031
X64764Y-23504
X64764Y-23898
X64803Y-21063
X64803Y-22047
X65118Y-37874
X65157Y-25000
X65256Y-13780
X65354Y-44173
X65591Y-19882
X65650Y-27067
X65748Y-13681
X65827Y-19882
X65846Y-15650
X65846Y-17028
X65945Y-26083
X65984Y-21575
X66142Y-13780
X66220Y-25039
X66535Y-10335
X66575Y-25039
X66634Y-41732
X66634Y-41929
X66634Y-42126
X66634Y-42323
X66831Y-41732
X66831Y-41929
X66831Y-42126
X66831Y-42126
X66831Y-42323
X66831Y-42323
X66870Y-38661
X66870Y-38898
X66870Y-39134
X66890Y-24094
X66890Y-24409
X66929Y-14173
X66929Y-18602
X67008Y-21378
X67008Y-22953
X67047Y-20197
X67106Y-38661
X67106Y-38898
X67106Y-39134
X67165Y-40472
X67205Y-26260
X67224Y-16535
X67224Y-30512
X67283Y-25079
X67323Y-14173
X67343Y-38661
X67343Y-38898
X67343Y-39134
X67362Y-40472
X67520Y-19882
X67520Y-26260
X67559Y-40472
X67579Y-38661
X67579Y-38898
X67579Y-39134
X67756Y-40472
X67795Y-21378
X67795Y-22953
X67815Y-17224
X67815Y-30413
X67815Y-38661
X67815Y-38898
X67815Y-39134
X67874Y-26260
X67953Y-40472
X68051Y-38661
X68051Y-38898
X68051Y-39134
X68110Y-17224
X68150Y-40472
X68189Y-24094
X68189Y-24685
X68287Y-38661
X68287Y-38898
X68287Y-39134
X68307Y-27047
X68307Y-27717
X68307Y-43346
X68346Y-19882
X68406Y-10335
X68661Y-43346
X68799Y-21654
X68799Y-31791
X68858Y-16752
X68858Y-17106
X68976Y-20000
X68976Y-26063
X68996Y-17618
X68996Y-18307
X69055Y-34882
X69055Y-37244
X69094Y-20748
X69094Y-22343
X69134Y-43543
X69173Y-25039
X69331Y-18386
X69488Y-22441
X69803Y-24331
X69882Y-21654
X69882Y-22441
X69921Y-20906
X69980Y-18406
X69980Y-30217
X69980Y-30906
X70098Y-17500
X70335Y-17500
X70551Y-32362
X70551Y-33386
X70866Y-18898
X70965Y-43110
X71102Y-36142
X71102Y-36378
X71260Y-27165
X71339Y-36142
X71339Y-36378
X71457Y-21555
X71457Y-30512
X71575Y-36142
X71575Y-36378
X71654Y-21850
X71772Y-24803
X71811Y-25433
X71811Y-36142
X71811Y-36378
X71831Y-16575
X71831Y-16811
X71831Y-17047
X71831Y-17283
X71850Y-11122
X71850Y-13189
X72008Y-25039
X72146Y-18012
X72185Y-43248
X72382Y-43248
X72441Y-25394
X72579Y-43248
X72776Y-43248
X72835Y-32126
X72972Y-43248
X72992Y-31811
X73130Y-31102
X73130Y-35827
X73130Y-37106
X73169Y-43248
X73228Y-30217
X73228Y-31496
X73307Y-32126
X73484Y-39390
X73524Y-25394
X73681Y-39390
X73878Y-39390
X74075Y-39390
X74272Y-39390
X74469Y-39390
X74606Y-25492
X74705Y-30413
X74902Y-33169
X75098Y-20669
X75098Y-33169
X75098Y-39567
X75295Y-33169
X75394Y-38484
X75492Y-33169
X75689Y-33169
X75886Y-33169
X76083Y-33169
X76220Y-31969
X76220Y-32598
X76299Y-30551
T2
X27677Y-30669
X27953Y-30669
X28228Y-30669
X28346Y-30394
X30315Y-25906
X30433Y-27008
X30433Y-27244
X30472Y-25906
X30630Y-25906
X30630Y-27008
X30630Y-27244
X30787Y-25906
X30827Y-27008
X30827Y-27244
X30945Y-25906
X33327Y-9134
X33327Y-9488
X33327Y-9843
X33327Y-10197
X33327Y-10551
X33327Y-10906
X33681Y-9094
X34035Y-9094
X34449Y-9094
X34862Y-9094
X35217Y-9094
X35571Y-9134
X35571Y-9488
X35571Y-9843
X35571Y-10197
X35571Y-10551
X35571Y-10906
X40000Y-30394
X40276Y-29921
X40276Y-30157
X40276Y-30394
X42323Y-25984
X42323Y-27047
X42323Y-27205
X42480Y-25984
X42520Y-27047
X42520Y-27205
X42638Y-25984
X42717Y-27047
X42717Y-27205
X42795Y-25984
X42913Y-25827
X52362Y-24803
X52559Y-23819
X52953Y-22835
X53150Y-24803
X63701Y-40551
X64409Y-40551
T3
X75287Y-22902
X75287Y-23402
X75287Y-23902
X75287Y-24402
X75287Y-24902
X75787Y-22902
X75787Y-23402
X75787Y-23902
X75787Y-24402
X75787Y-24902
T4
X29134Y-31496
X29921Y-24606
X30709Y-27854
X41831Y-24508
X42717Y-28248
X51260Y-20709
X54882Y-18898
X58661Y-38819
X59449Y-14094
X61614Y-18583
X62598Y-13681
X64173Y-17913
X64567Y-32441
X65256Y-8268
X67638Y-13189
X67717Y-37795
X68543Y-39921
X69094Y-8268
X69567Y-11024
X69685Y-37323
X70965Y-26575
X71260Y-20965
X71949Y-28937
X72146Y-41043
X73465Y-18898
X75689Y-37697
X77323Y-25039
X77362Y-27362
T5
X36220Y-13386
X39283Y-16448
T6
X63862Y-28421
X63862Y-31421
X65862Y-28421
X65862Y-31421
T7
X54547Y-27953
X55547Y-27953
X56547Y-27953
X58547Y-27953
X59547Y-27953
X64634Y-34154
X65634Y-34154
X66634Y-34154
X76378Y-42913
X77362Y-40945
X78346Y-42913
X79331Y-40945
T8
X14567Y-8661
X27953Y-38976
X46457Y-41732
X54724Y-8661
X60433Y-44685
X60630Y-8661
X62992Y-8661
X63992Y-8661
X66929Y-8661
X67323Y-32283
X67929Y-8661
X68323Y-32283
X70472Y-41732
X70740Y-8661
X71740Y-8661
X72740Y-8661
X73740Y-8661
X74740Y-8661
X75740Y-8661
X75787Y-26673
X75787Y-27673
X76378Y-12795
X76740Y-8661
X77559Y-34827
X77559Y-35827
X77740Y-8661
X78346Y-13142
X78346Y-14142
X78346Y-15142
X78346Y-16142
X78346Y-18079
X78346Y-19079
X78346Y-20079
X78346Y-24772
X78346Y-25772
X78346Y-26772
X78346Y-28677
X78346Y-29677
X78346Y-30677
X78346Y-31677
X78346Y-32677
X78740Y-8661
T9
X19685Y-9547
X19685Y-12500
X27559Y-9547
X27559Y-12500
X41339Y-9547
X41339Y-12500
X49213Y-9547
X49213Y-12500
T10
X59600Y-31250
X60616Y-31250
X61600Y-31250
T11
X20241Y-25197
X20241Y-29134
X22441Y-25197
X22441Y-29134
X24641Y-25197
X24641Y-29134
X32249Y-25197
X32249Y-29134
X34449Y-25197
X34449Y-29134
X36649Y-25197
X36649Y-29134
X44257Y-25197
X44257Y-29134
X46457Y-25197
X46457Y-29134
X48657Y-25197
X48657Y-29134
T12
X52600Y-30500
X52600Y-35000
X53600Y-30500
X53600Y-35000
X54600Y-30500
X54600Y-35000
T13
X15945Y-21457
X15945Y-27165
X15945Y-32874
X37795Y-43110
X56102Y-43110
T0
M30
