G04 #@! TF.FileFunction,Legend,Bot*
%FSLAX46Y46*%
G04 Gerber Fmt 4.6, Leading zero omitted, Abs format (unit mm)*
G04 Created by KiCad (PCBNEW 4.0.5+dfsg1-4) date Tue Nov 14 05:57:46 2017*
%MOMM*%
%LPD*%
G01*
G04 APERTURE LIST*
%ADD10C,0.100000*%
%ADD11C,0.150000*%
G04 APERTURE END LIST*
D10*
D11*
X181650000Y-47350000D02*
X182350000Y-47350000D01*
X182350000Y-46150000D02*
X181650000Y-46150000D01*
X150350000Y-67900000D02*
X149650000Y-67900000D01*
X149650000Y-69100000D02*
X150350000Y-69100000D01*
X141400000Y-69100000D02*
X142100000Y-69100000D01*
X142100000Y-67900000D02*
X141400000Y-67900000D01*
X164900000Y-59150000D02*
X164900000Y-59850000D01*
X166100000Y-59850000D02*
X166100000Y-59150000D01*
X175800000Y-51550000D02*
X175800000Y-52250000D01*
X177000000Y-52250000D02*
X177000000Y-51550000D01*
X176600000Y-53650000D02*
X175900000Y-53650000D01*
X175900000Y-54850000D02*
X176600000Y-54850000D01*
X167850000Y-62200000D02*
X167150000Y-62200000D01*
X167150000Y-63400000D02*
X167850000Y-63400000D01*
X172450000Y-51900000D02*
X173150000Y-51900000D01*
X173150000Y-50700000D02*
X172450000Y-50700000D01*
X171950000Y-60600000D02*
X171250000Y-60600000D01*
X171250000Y-61800000D02*
X171950000Y-61800000D01*
X176050000Y-62100000D02*
X175350000Y-62100000D01*
X175350000Y-63300000D02*
X176050000Y-63300000D01*
X168050000Y-51900000D02*
X168750000Y-51900000D01*
X168750000Y-50700000D02*
X168050000Y-50700000D01*
X180575000Y-48250000D02*
X180575000Y-49250000D01*
X181925000Y-49250000D02*
X181925000Y-48250000D01*
X178750000Y-47425000D02*
X179750000Y-47425000D01*
X179750000Y-46075000D02*
X178750000Y-46075000D01*
X137250000Y-69175000D02*
X138250000Y-69175000D01*
X138250000Y-67825000D02*
X137250000Y-67825000D01*
X176600000Y-55150000D02*
X175900000Y-55150000D01*
X175900000Y-56350000D02*
X176600000Y-56350000D01*
X165450000Y-55400000D02*
X166150000Y-55400000D01*
X166150000Y-54200000D02*
X165450000Y-54200000D01*
X176600000Y-57400000D02*
X175900000Y-57400000D01*
X175900000Y-58600000D02*
X176600000Y-58600000D01*
X171950000Y-62100000D02*
X171250000Y-62100000D01*
X171250000Y-63300000D02*
X171950000Y-63300000D01*
X153100000Y-76400000D02*
X152400000Y-76400000D01*
X152400000Y-77600000D02*
X153100000Y-77600000D01*
X153100000Y-81150000D02*
X152400000Y-81150000D01*
X152400000Y-82350000D02*
X153100000Y-82350000D01*
X165300000Y-90750000D02*
X164300000Y-90750000D01*
X164300000Y-89050000D02*
X165300000Y-89050000D01*
X173050000Y-55800000D02*
X173050000Y-56800000D01*
X171350000Y-56800000D02*
X171350000Y-55800000D01*
X171050000Y-55800000D02*
X171050000Y-56800000D01*
X169350000Y-56800000D02*
X169350000Y-55800000D01*
X168000000Y-89050000D02*
X169000000Y-89050000D01*
X169000000Y-90750000D02*
X168000000Y-90750000D01*
X93088000Y-60698000D02*
X93088000Y-58920000D01*
X81912000Y-60698000D02*
X81912000Y-58920000D01*
X87500000Y-60698000D02*
X87500000Y-59174000D01*
X95628000Y-58158000D02*
X95628000Y-58920000D01*
X95628000Y-56126000D02*
X95628000Y-57142000D01*
X95628000Y-57142000D02*
X95628000Y-56888000D01*
X95628000Y-53586000D02*
X95628000Y-54856000D01*
X95628000Y-54856000D02*
X95628000Y-55110000D01*
X95628000Y-51046000D02*
X95628000Y-52316000D01*
X95628000Y-48506000D02*
X95628000Y-49776000D01*
X95628000Y-45966000D02*
X95628000Y-47236000D01*
X95628000Y-43426000D02*
X95628000Y-44696000D01*
X95628000Y-40886000D02*
X95628000Y-42156000D01*
X95628000Y-38346000D02*
X95628000Y-39616000D01*
X79372000Y-57650000D02*
X79372000Y-58666000D01*
X79372000Y-55110000D02*
X79372000Y-56380000D01*
X79372000Y-56380000D02*
X79372000Y-56634000D01*
X79372000Y-52570000D02*
X79372000Y-53840000D01*
X79372000Y-49522000D02*
X79372000Y-51046000D01*
X79372000Y-46474000D02*
X79372000Y-47998000D01*
X79372000Y-43172000D02*
X79372000Y-44950000D01*
X79372000Y-40632000D02*
X79372000Y-41902000D01*
X79372000Y-38346000D02*
X79372000Y-39362000D01*
X79372000Y-39362000D02*
X79372000Y-39616000D01*
X80134000Y-38346000D02*
X79372000Y-38346000D01*
X81658000Y-38346000D02*
X80896000Y-38346000D01*
X84198000Y-38346000D02*
X82928000Y-38346000D01*
X86738000Y-38346000D02*
X85214000Y-38346000D01*
X89024000Y-38346000D02*
X87754000Y-38346000D01*
X91310000Y-38346000D02*
X90040000Y-38346000D01*
X93596000Y-38346000D02*
X92326000Y-38346000D01*
X95628000Y-38346000D02*
X94612000Y-38346000D01*
X81404000Y-58920000D02*
X82928000Y-58920000D01*
X82928000Y-58920000D02*
X82674000Y-58920000D01*
X79372000Y-58920000D02*
X80134000Y-58920000D01*
X80134000Y-58920000D02*
X80388000Y-58920000D01*
X85722000Y-58920000D02*
X84452000Y-58920000D01*
X88262000Y-58920000D02*
X86992000Y-58920000D01*
X90802000Y-58920000D02*
X89278000Y-58920000D01*
X93596000Y-58920000D02*
X92326000Y-58920000D01*
X92326000Y-58920000D02*
X92072000Y-58920000D01*
X92072000Y-58920000D02*
X91818000Y-58920000D01*
X95628000Y-58920000D02*
X94866000Y-58920000D01*
X94866000Y-58920000D02*
X94612000Y-58920000D01*
X62588000Y-60698000D02*
X62588000Y-58920000D01*
X51412000Y-60698000D02*
X51412000Y-58920000D01*
X57000000Y-60698000D02*
X57000000Y-59174000D01*
X65128000Y-58158000D02*
X65128000Y-58920000D01*
X65128000Y-56126000D02*
X65128000Y-57142000D01*
X65128000Y-57142000D02*
X65128000Y-56888000D01*
X65128000Y-53586000D02*
X65128000Y-54856000D01*
X65128000Y-54856000D02*
X65128000Y-55110000D01*
X65128000Y-51046000D02*
X65128000Y-52316000D01*
X65128000Y-48506000D02*
X65128000Y-49776000D01*
X65128000Y-45966000D02*
X65128000Y-47236000D01*
X65128000Y-43426000D02*
X65128000Y-44696000D01*
X65128000Y-40886000D02*
X65128000Y-42156000D01*
X65128000Y-38346000D02*
X65128000Y-39616000D01*
X48872000Y-57650000D02*
X48872000Y-58666000D01*
X48872000Y-55110000D02*
X48872000Y-56380000D01*
X48872000Y-56380000D02*
X48872000Y-56634000D01*
X48872000Y-52570000D02*
X48872000Y-53840000D01*
X48872000Y-49522000D02*
X48872000Y-51046000D01*
X48872000Y-46474000D02*
X48872000Y-47998000D01*
X48872000Y-43172000D02*
X48872000Y-44950000D01*
X48872000Y-40632000D02*
X48872000Y-41902000D01*
X48872000Y-38346000D02*
X48872000Y-39362000D01*
X48872000Y-39362000D02*
X48872000Y-39616000D01*
X49634000Y-38346000D02*
X48872000Y-38346000D01*
X51158000Y-38346000D02*
X50396000Y-38346000D01*
X53698000Y-38346000D02*
X52428000Y-38346000D01*
X56238000Y-38346000D02*
X54714000Y-38346000D01*
X58524000Y-38346000D02*
X57254000Y-38346000D01*
X60810000Y-38346000D02*
X59540000Y-38346000D01*
X63096000Y-38346000D02*
X61826000Y-38346000D01*
X65128000Y-38346000D02*
X64112000Y-38346000D01*
X50904000Y-58920000D02*
X52428000Y-58920000D01*
X52428000Y-58920000D02*
X52174000Y-58920000D01*
X48872000Y-58920000D02*
X49634000Y-58920000D01*
X49634000Y-58920000D02*
X49888000Y-58920000D01*
X55222000Y-58920000D02*
X53952000Y-58920000D01*
X57762000Y-58920000D02*
X56492000Y-58920000D01*
X60302000Y-58920000D02*
X58778000Y-58920000D01*
X63096000Y-58920000D02*
X61826000Y-58920000D01*
X61826000Y-58920000D02*
X61572000Y-58920000D01*
X61572000Y-58920000D02*
X61318000Y-58920000D01*
X65128000Y-58920000D02*
X64366000Y-58920000D01*
X64366000Y-58920000D02*
X64112000Y-58920000D01*
X123588000Y-60698000D02*
X123588000Y-58920000D01*
X112412000Y-60698000D02*
X112412000Y-58920000D01*
X118000000Y-60698000D02*
X118000000Y-59174000D01*
X126128000Y-58158000D02*
X126128000Y-58920000D01*
X126128000Y-56126000D02*
X126128000Y-57142000D01*
X126128000Y-57142000D02*
X126128000Y-56888000D01*
X126128000Y-53586000D02*
X126128000Y-54856000D01*
X126128000Y-54856000D02*
X126128000Y-55110000D01*
X126128000Y-51046000D02*
X126128000Y-52316000D01*
X126128000Y-48506000D02*
X126128000Y-49776000D01*
X126128000Y-45966000D02*
X126128000Y-47236000D01*
X126128000Y-43426000D02*
X126128000Y-44696000D01*
X126128000Y-40886000D02*
X126128000Y-42156000D01*
X126128000Y-38346000D02*
X126128000Y-39616000D01*
X109872000Y-57650000D02*
X109872000Y-58666000D01*
X109872000Y-55110000D02*
X109872000Y-56380000D01*
X109872000Y-56380000D02*
X109872000Y-56634000D01*
X109872000Y-52570000D02*
X109872000Y-53840000D01*
X109872000Y-49522000D02*
X109872000Y-51046000D01*
X109872000Y-46474000D02*
X109872000Y-47998000D01*
X109872000Y-43172000D02*
X109872000Y-44950000D01*
X109872000Y-40632000D02*
X109872000Y-41902000D01*
X109872000Y-38346000D02*
X109872000Y-39362000D01*
X109872000Y-39362000D02*
X109872000Y-39616000D01*
X110634000Y-38346000D02*
X109872000Y-38346000D01*
X112158000Y-38346000D02*
X111396000Y-38346000D01*
X114698000Y-38346000D02*
X113428000Y-38346000D01*
X117238000Y-38346000D02*
X115714000Y-38346000D01*
X119524000Y-38346000D02*
X118254000Y-38346000D01*
X121810000Y-38346000D02*
X120540000Y-38346000D01*
X124096000Y-38346000D02*
X122826000Y-38346000D01*
X126128000Y-38346000D02*
X125112000Y-38346000D01*
X111904000Y-58920000D02*
X113428000Y-58920000D01*
X113428000Y-58920000D02*
X113174000Y-58920000D01*
X109872000Y-58920000D02*
X110634000Y-58920000D01*
X110634000Y-58920000D02*
X110888000Y-58920000D01*
X116222000Y-58920000D02*
X114952000Y-58920000D01*
X118762000Y-58920000D02*
X117492000Y-58920000D01*
X121302000Y-58920000D02*
X119778000Y-58920000D01*
X124096000Y-58920000D02*
X122826000Y-58920000D01*
X122826000Y-58920000D02*
X122572000Y-58920000D01*
X122572000Y-58920000D02*
X122318000Y-58920000D01*
X126128000Y-58920000D02*
X125366000Y-58920000D01*
X125366000Y-58920000D02*
X125112000Y-58920000D01*
X112412000Y-77302000D02*
X112412000Y-79080000D01*
X123588000Y-77302000D02*
X123588000Y-79080000D01*
X118000000Y-77302000D02*
X118000000Y-78826000D01*
X109872000Y-79842000D02*
X109872000Y-79080000D01*
X109872000Y-81874000D02*
X109872000Y-80858000D01*
X109872000Y-80858000D02*
X109872000Y-81112000D01*
X109872000Y-84414000D02*
X109872000Y-83144000D01*
X109872000Y-83144000D02*
X109872000Y-82890000D01*
X109872000Y-86954000D02*
X109872000Y-85684000D01*
X109872000Y-89494000D02*
X109872000Y-88224000D01*
X109872000Y-92034000D02*
X109872000Y-90764000D01*
X109872000Y-94574000D02*
X109872000Y-93304000D01*
X109872000Y-97114000D02*
X109872000Y-95844000D01*
X109872000Y-99654000D02*
X109872000Y-98384000D01*
X126128000Y-80350000D02*
X126128000Y-79334000D01*
X126128000Y-82890000D02*
X126128000Y-81620000D01*
X126128000Y-81620000D02*
X126128000Y-81366000D01*
X126128000Y-85430000D02*
X126128000Y-84160000D01*
X126128000Y-88478000D02*
X126128000Y-86954000D01*
X126128000Y-91526000D02*
X126128000Y-90002000D01*
X126128000Y-94828000D02*
X126128000Y-93050000D01*
X126128000Y-97368000D02*
X126128000Y-96098000D01*
X126128000Y-99654000D02*
X126128000Y-98638000D01*
X126128000Y-98638000D02*
X126128000Y-98384000D01*
X125366000Y-99654000D02*
X126128000Y-99654000D01*
X123842000Y-99654000D02*
X124604000Y-99654000D01*
X121302000Y-99654000D02*
X122572000Y-99654000D01*
X118762000Y-99654000D02*
X120286000Y-99654000D01*
X116476000Y-99654000D02*
X117746000Y-99654000D01*
X114190000Y-99654000D02*
X115460000Y-99654000D01*
X111904000Y-99654000D02*
X113174000Y-99654000D01*
X109872000Y-99654000D02*
X110888000Y-99654000D01*
X124096000Y-79080000D02*
X122572000Y-79080000D01*
X122572000Y-79080000D02*
X122826000Y-79080000D01*
X126128000Y-79080000D02*
X125366000Y-79080000D01*
X125366000Y-79080000D02*
X125112000Y-79080000D01*
X119778000Y-79080000D02*
X121048000Y-79080000D01*
X117238000Y-79080000D02*
X118508000Y-79080000D01*
X114698000Y-79080000D02*
X116222000Y-79080000D01*
X111904000Y-79080000D02*
X113174000Y-79080000D01*
X113174000Y-79080000D02*
X113428000Y-79080000D01*
X113428000Y-79080000D02*
X113682000Y-79080000D01*
X109872000Y-79080000D02*
X110634000Y-79080000D01*
X110634000Y-79080000D02*
X110888000Y-79080000D01*
X81912000Y-77302000D02*
X81912000Y-79080000D01*
X93088000Y-77302000D02*
X93088000Y-79080000D01*
X87500000Y-77302000D02*
X87500000Y-78826000D01*
X79372000Y-79842000D02*
X79372000Y-79080000D01*
X79372000Y-81874000D02*
X79372000Y-80858000D01*
X79372000Y-80858000D02*
X79372000Y-81112000D01*
X79372000Y-84414000D02*
X79372000Y-83144000D01*
X79372000Y-83144000D02*
X79372000Y-82890000D01*
X79372000Y-86954000D02*
X79372000Y-85684000D01*
X79372000Y-89494000D02*
X79372000Y-88224000D01*
X79372000Y-92034000D02*
X79372000Y-90764000D01*
X79372000Y-94574000D02*
X79372000Y-93304000D01*
X79372000Y-97114000D02*
X79372000Y-95844000D01*
X79372000Y-99654000D02*
X79372000Y-98384000D01*
X95628000Y-80350000D02*
X95628000Y-79334000D01*
X95628000Y-82890000D02*
X95628000Y-81620000D01*
X95628000Y-81620000D02*
X95628000Y-81366000D01*
X95628000Y-85430000D02*
X95628000Y-84160000D01*
X95628000Y-88478000D02*
X95628000Y-86954000D01*
X95628000Y-91526000D02*
X95628000Y-90002000D01*
X95628000Y-94828000D02*
X95628000Y-93050000D01*
X95628000Y-97368000D02*
X95628000Y-96098000D01*
X95628000Y-99654000D02*
X95628000Y-98638000D01*
X95628000Y-98638000D02*
X95628000Y-98384000D01*
X94866000Y-99654000D02*
X95628000Y-99654000D01*
X93342000Y-99654000D02*
X94104000Y-99654000D01*
X90802000Y-99654000D02*
X92072000Y-99654000D01*
X88262000Y-99654000D02*
X89786000Y-99654000D01*
X85976000Y-99654000D02*
X87246000Y-99654000D01*
X83690000Y-99654000D02*
X84960000Y-99654000D01*
X81404000Y-99654000D02*
X82674000Y-99654000D01*
X79372000Y-99654000D02*
X80388000Y-99654000D01*
X93596000Y-79080000D02*
X92072000Y-79080000D01*
X92072000Y-79080000D02*
X92326000Y-79080000D01*
X95628000Y-79080000D02*
X94866000Y-79080000D01*
X94866000Y-79080000D02*
X94612000Y-79080000D01*
X89278000Y-79080000D02*
X90548000Y-79080000D01*
X86738000Y-79080000D02*
X88008000Y-79080000D01*
X84198000Y-79080000D02*
X85722000Y-79080000D01*
X81404000Y-79080000D02*
X82674000Y-79080000D01*
X82674000Y-79080000D02*
X82928000Y-79080000D01*
X82928000Y-79080000D02*
X83182000Y-79080000D01*
X79372000Y-79080000D02*
X80134000Y-79080000D01*
X80134000Y-79080000D02*
X80388000Y-79080000D01*
X51412000Y-77302000D02*
X51412000Y-79080000D01*
X62588000Y-77302000D02*
X62588000Y-79080000D01*
X57000000Y-77302000D02*
X57000000Y-78826000D01*
X48872000Y-79842000D02*
X48872000Y-79080000D01*
X48872000Y-81874000D02*
X48872000Y-80858000D01*
X48872000Y-80858000D02*
X48872000Y-81112000D01*
X48872000Y-84414000D02*
X48872000Y-83144000D01*
X48872000Y-83144000D02*
X48872000Y-82890000D01*
X48872000Y-86954000D02*
X48872000Y-85684000D01*
X48872000Y-89494000D02*
X48872000Y-88224000D01*
X48872000Y-92034000D02*
X48872000Y-90764000D01*
X48872000Y-94574000D02*
X48872000Y-93304000D01*
X48872000Y-97114000D02*
X48872000Y-95844000D01*
X48872000Y-99654000D02*
X48872000Y-98384000D01*
X65128000Y-80350000D02*
X65128000Y-79334000D01*
X65128000Y-82890000D02*
X65128000Y-81620000D01*
X65128000Y-81620000D02*
X65128000Y-81366000D01*
X65128000Y-85430000D02*
X65128000Y-84160000D01*
X65128000Y-88478000D02*
X65128000Y-86954000D01*
X65128000Y-91526000D02*
X65128000Y-90002000D01*
X65128000Y-94828000D02*
X65128000Y-93050000D01*
X65128000Y-97368000D02*
X65128000Y-96098000D01*
X65128000Y-99654000D02*
X65128000Y-98638000D01*
X65128000Y-98638000D02*
X65128000Y-98384000D01*
X64366000Y-99654000D02*
X65128000Y-99654000D01*
X62842000Y-99654000D02*
X63604000Y-99654000D01*
X60302000Y-99654000D02*
X61572000Y-99654000D01*
X57762000Y-99654000D02*
X59286000Y-99654000D01*
X55476000Y-99654000D02*
X56746000Y-99654000D01*
X53190000Y-99654000D02*
X54460000Y-99654000D01*
X50904000Y-99654000D02*
X52174000Y-99654000D01*
X48872000Y-99654000D02*
X49888000Y-99654000D01*
X63096000Y-79080000D02*
X61572000Y-79080000D01*
X61572000Y-79080000D02*
X61826000Y-79080000D01*
X65128000Y-79080000D02*
X64366000Y-79080000D01*
X64366000Y-79080000D02*
X64112000Y-79080000D01*
X58778000Y-79080000D02*
X60048000Y-79080000D01*
X56238000Y-79080000D02*
X57508000Y-79080000D01*
X53698000Y-79080000D02*
X55222000Y-79080000D01*
X50904000Y-79080000D02*
X52174000Y-79080000D01*
X52174000Y-79080000D02*
X52428000Y-79080000D01*
X52428000Y-79080000D02*
X52682000Y-79080000D01*
X48872000Y-79080000D02*
X49634000Y-79080000D01*
X49634000Y-79080000D02*
X49888000Y-79080000D01*
X182416666Y-45357143D02*
X182464285Y-45404762D01*
X182607142Y-45452381D01*
X182702380Y-45452381D01*
X182845238Y-45404762D01*
X182940476Y-45309524D01*
X182988095Y-45214286D01*
X183035714Y-45023810D01*
X183035714Y-44880952D01*
X182988095Y-44690476D01*
X182940476Y-44595238D01*
X182845238Y-44500000D01*
X182702380Y-44452381D01*
X182607142Y-44452381D01*
X182464285Y-44500000D01*
X182416666Y-44547619D01*
X181559523Y-44452381D02*
X181750000Y-44452381D01*
X181845238Y-44500000D01*
X181892857Y-44547619D01*
X181988095Y-44690476D01*
X182035714Y-44880952D01*
X182035714Y-45261905D01*
X181988095Y-45357143D01*
X181940476Y-45404762D01*
X181845238Y-45452381D01*
X181654761Y-45452381D01*
X181559523Y-45404762D01*
X181511904Y-45357143D01*
X181464285Y-45261905D01*
X181464285Y-45023810D01*
X181511904Y-44928571D01*
X181559523Y-44880952D01*
X181654761Y-44833333D01*
X181845238Y-44833333D01*
X181940476Y-44880952D01*
X181988095Y-44928571D01*
X182035714Y-45023810D01*
X150642857Y-66957143D02*
X150690476Y-67004762D01*
X150833333Y-67052381D01*
X150928571Y-67052381D01*
X151071429Y-67004762D01*
X151166667Y-66909524D01*
X151214286Y-66814286D01*
X151261905Y-66623810D01*
X151261905Y-66480952D01*
X151214286Y-66290476D01*
X151166667Y-66195238D01*
X151071429Y-66100000D01*
X150928571Y-66052381D01*
X150833333Y-66052381D01*
X150690476Y-66100000D01*
X150642857Y-66147619D01*
X150261905Y-66147619D02*
X150214286Y-66100000D01*
X150119048Y-66052381D01*
X149880952Y-66052381D01*
X149785714Y-66100000D01*
X149738095Y-66147619D01*
X149690476Y-66242857D01*
X149690476Y-66338095D01*
X149738095Y-66480952D01*
X150309524Y-67052381D01*
X149690476Y-67052381D01*
X149357143Y-66052381D02*
X148738095Y-66052381D01*
X149071429Y-66433333D01*
X148928571Y-66433333D01*
X148833333Y-66480952D01*
X148785714Y-66528571D01*
X148738095Y-66623810D01*
X148738095Y-66861905D01*
X148785714Y-66957143D01*
X148833333Y-67004762D01*
X148928571Y-67052381D01*
X149214286Y-67052381D01*
X149309524Y-67004762D01*
X149357143Y-66957143D01*
X145442857Y-68757143D02*
X145490476Y-68804762D01*
X145633333Y-68852381D01*
X145728571Y-68852381D01*
X145871429Y-68804762D01*
X145966667Y-68709524D01*
X146014286Y-68614286D01*
X146061905Y-68423810D01*
X146061905Y-68280952D01*
X146014286Y-68090476D01*
X145966667Y-67995238D01*
X145871429Y-67900000D01*
X145728571Y-67852381D01*
X145633333Y-67852381D01*
X145490476Y-67900000D01*
X145442857Y-67947619D01*
X145061905Y-67947619D02*
X145014286Y-67900000D01*
X144919048Y-67852381D01*
X144680952Y-67852381D01*
X144585714Y-67900000D01*
X144538095Y-67947619D01*
X144490476Y-68042857D01*
X144490476Y-68138095D01*
X144538095Y-68280952D01*
X145109524Y-68852381D01*
X144490476Y-68852381D01*
X143633333Y-68185714D02*
X143633333Y-68852381D01*
X143871429Y-67804762D02*
X144109524Y-68519048D01*
X143490476Y-68519048D01*
X167357143Y-58857143D02*
X167404762Y-58809524D01*
X167452381Y-58666667D01*
X167452381Y-58571429D01*
X167404762Y-58428571D01*
X167309524Y-58333333D01*
X167214286Y-58285714D01*
X167023810Y-58238095D01*
X166880952Y-58238095D01*
X166690476Y-58285714D01*
X166595238Y-58333333D01*
X166500000Y-58428571D01*
X166452381Y-58571429D01*
X166452381Y-58666667D01*
X166500000Y-58809524D01*
X166547619Y-58857143D01*
X166452381Y-59190476D02*
X166452381Y-59809524D01*
X166833333Y-59476190D01*
X166833333Y-59619048D01*
X166880952Y-59714286D01*
X166928571Y-59761905D01*
X167023810Y-59809524D01*
X167261905Y-59809524D01*
X167357143Y-59761905D01*
X167404762Y-59714286D01*
X167452381Y-59619048D01*
X167452381Y-59333333D01*
X167404762Y-59238095D01*
X167357143Y-59190476D01*
X166880952Y-60380952D02*
X166833333Y-60285714D01*
X166785714Y-60238095D01*
X166690476Y-60190476D01*
X166642857Y-60190476D01*
X166547619Y-60238095D01*
X166500000Y-60285714D01*
X166452381Y-60380952D01*
X166452381Y-60571429D01*
X166500000Y-60666667D01*
X166547619Y-60714286D01*
X166642857Y-60761905D01*
X166690476Y-60761905D01*
X166785714Y-60714286D01*
X166833333Y-60666667D01*
X166880952Y-60571429D01*
X166880952Y-60380952D01*
X166928571Y-60285714D01*
X166976190Y-60238095D01*
X167071429Y-60190476D01*
X167261905Y-60190476D01*
X167357143Y-60238095D01*
X167404762Y-60285714D01*
X167452381Y-60380952D01*
X167452381Y-60571429D01*
X167404762Y-60666667D01*
X167357143Y-60714286D01*
X167261905Y-60761905D01*
X167071429Y-60761905D01*
X166976190Y-60714286D01*
X166928571Y-60666667D01*
X166880952Y-60571429D01*
X178357143Y-50657143D02*
X178404762Y-50609524D01*
X178452381Y-50466667D01*
X178452381Y-50371429D01*
X178404762Y-50228571D01*
X178309524Y-50133333D01*
X178214286Y-50085714D01*
X178023810Y-50038095D01*
X177880952Y-50038095D01*
X177690476Y-50085714D01*
X177595238Y-50133333D01*
X177500000Y-50228571D01*
X177452381Y-50371429D01*
X177452381Y-50466667D01*
X177500000Y-50609524D01*
X177547619Y-50657143D01*
X177452381Y-50990476D02*
X177452381Y-51609524D01*
X177833333Y-51276190D01*
X177833333Y-51419048D01*
X177880952Y-51514286D01*
X177928571Y-51561905D01*
X178023810Y-51609524D01*
X178261905Y-51609524D01*
X178357143Y-51561905D01*
X178404762Y-51514286D01*
X178452381Y-51419048D01*
X178452381Y-51133333D01*
X178404762Y-51038095D01*
X178357143Y-50990476D01*
X178452381Y-52085714D02*
X178452381Y-52276190D01*
X178404762Y-52371429D01*
X178357143Y-52419048D01*
X178214286Y-52514286D01*
X178023810Y-52561905D01*
X177642857Y-52561905D01*
X177547619Y-52514286D01*
X177500000Y-52466667D01*
X177452381Y-52371429D01*
X177452381Y-52180952D01*
X177500000Y-52085714D01*
X177547619Y-52038095D01*
X177642857Y-51990476D01*
X177880952Y-51990476D01*
X177976190Y-52038095D01*
X178023810Y-52085714D01*
X178071429Y-52180952D01*
X178071429Y-52371429D01*
X178023810Y-52466667D01*
X177976190Y-52514286D01*
X177880952Y-52561905D01*
X179642857Y-54607143D02*
X179690476Y-54654762D01*
X179833333Y-54702381D01*
X179928571Y-54702381D01*
X180071429Y-54654762D01*
X180166667Y-54559524D01*
X180214286Y-54464286D01*
X180261905Y-54273810D01*
X180261905Y-54130952D01*
X180214286Y-53940476D01*
X180166667Y-53845238D01*
X180071429Y-53750000D01*
X179928571Y-53702381D01*
X179833333Y-53702381D01*
X179690476Y-53750000D01*
X179642857Y-53797619D01*
X178785714Y-54035714D02*
X178785714Y-54702381D01*
X179023810Y-53654762D02*
X179261905Y-54369048D01*
X178642857Y-54369048D01*
X178071429Y-53702381D02*
X177976190Y-53702381D01*
X177880952Y-53750000D01*
X177833333Y-53797619D01*
X177785714Y-53892857D01*
X177738095Y-54083333D01*
X177738095Y-54321429D01*
X177785714Y-54511905D01*
X177833333Y-54607143D01*
X177880952Y-54654762D01*
X177976190Y-54702381D01*
X178071429Y-54702381D01*
X178166667Y-54654762D01*
X178214286Y-54607143D01*
X178261905Y-54511905D01*
X178309524Y-54321429D01*
X178309524Y-54083333D01*
X178261905Y-53892857D01*
X178214286Y-53797619D01*
X178166667Y-53750000D01*
X178071429Y-53702381D01*
X165242857Y-62957143D02*
X165290476Y-63004762D01*
X165433333Y-63052381D01*
X165528571Y-63052381D01*
X165671429Y-63004762D01*
X165766667Y-62909524D01*
X165814286Y-62814286D01*
X165861905Y-62623810D01*
X165861905Y-62480952D01*
X165814286Y-62290476D01*
X165766667Y-62195238D01*
X165671429Y-62100000D01*
X165528571Y-62052381D01*
X165433333Y-62052381D01*
X165290476Y-62100000D01*
X165242857Y-62147619D01*
X164385714Y-62385714D02*
X164385714Y-63052381D01*
X164623810Y-62004762D02*
X164861905Y-62719048D01*
X164242857Y-62719048D01*
X163338095Y-63052381D02*
X163909524Y-63052381D01*
X163623810Y-63052381D02*
X163623810Y-62052381D01*
X163719048Y-62195238D01*
X163814286Y-62290476D01*
X163909524Y-62338095D01*
X173442857Y-53157143D02*
X173490476Y-53204762D01*
X173633333Y-53252381D01*
X173728571Y-53252381D01*
X173871429Y-53204762D01*
X173966667Y-53109524D01*
X174014286Y-53014286D01*
X174061905Y-52823810D01*
X174061905Y-52680952D01*
X174014286Y-52490476D01*
X173966667Y-52395238D01*
X173871429Y-52300000D01*
X173728571Y-52252381D01*
X173633333Y-52252381D01*
X173490476Y-52300000D01*
X173442857Y-52347619D01*
X172585714Y-52585714D02*
X172585714Y-53252381D01*
X172823810Y-52204762D02*
X173061905Y-52919048D01*
X172442857Y-52919048D01*
X172109524Y-52347619D02*
X172061905Y-52300000D01*
X171966667Y-52252381D01*
X171728571Y-52252381D01*
X171633333Y-52300000D01*
X171585714Y-52347619D01*
X171538095Y-52442857D01*
X171538095Y-52538095D01*
X171585714Y-52680952D01*
X172157143Y-53252381D01*
X171538095Y-53252381D01*
X172142857Y-60157143D02*
X172190476Y-60204762D01*
X172333333Y-60252381D01*
X172428571Y-60252381D01*
X172571429Y-60204762D01*
X172666667Y-60109524D01*
X172714286Y-60014286D01*
X172761905Y-59823810D01*
X172761905Y-59680952D01*
X172714286Y-59490476D01*
X172666667Y-59395238D01*
X172571429Y-59300000D01*
X172428571Y-59252381D01*
X172333333Y-59252381D01*
X172190476Y-59300000D01*
X172142857Y-59347619D01*
X171285714Y-59585714D02*
X171285714Y-60252381D01*
X171523810Y-59204762D02*
X171761905Y-59919048D01*
X171142857Y-59919048D01*
X170857143Y-59252381D02*
X170238095Y-59252381D01*
X170571429Y-59633333D01*
X170428571Y-59633333D01*
X170333333Y-59680952D01*
X170285714Y-59728571D01*
X170238095Y-59823810D01*
X170238095Y-60061905D01*
X170285714Y-60157143D01*
X170333333Y-60204762D01*
X170428571Y-60252381D01*
X170714286Y-60252381D01*
X170809524Y-60204762D01*
X170857143Y-60157143D01*
X176342857Y-61657143D02*
X176390476Y-61704762D01*
X176533333Y-61752381D01*
X176628571Y-61752381D01*
X176771429Y-61704762D01*
X176866667Y-61609524D01*
X176914286Y-61514286D01*
X176961905Y-61323810D01*
X176961905Y-61180952D01*
X176914286Y-60990476D01*
X176866667Y-60895238D01*
X176771429Y-60800000D01*
X176628571Y-60752381D01*
X176533333Y-60752381D01*
X176390476Y-60800000D01*
X176342857Y-60847619D01*
X175485714Y-61085714D02*
X175485714Y-61752381D01*
X175723810Y-60704762D02*
X175961905Y-61419048D01*
X175342857Y-61419048D01*
X174533333Y-61085714D02*
X174533333Y-61752381D01*
X174771429Y-60704762D02*
X175009524Y-61419048D01*
X174390476Y-61419048D01*
X169042857Y-53157143D02*
X169090476Y-53204762D01*
X169233333Y-53252381D01*
X169328571Y-53252381D01*
X169471429Y-53204762D01*
X169566667Y-53109524D01*
X169614286Y-53014286D01*
X169661905Y-52823810D01*
X169661905Y-52680952D01*
X169614286Y-52490476D01*
X169566667Y-52395238D01*
X169471429Y-52300000D01*
X169328571Y-52252381D01*
X169233333Y-52252381D01*
X169090476Y-52300000D01*
X169042857Y-52347619D01*
X168185714Y-52585714D02*
X168185714Y-53252381D01*
X168423810Y-52204762D02*
X168661905Y-52919048D01*
X168042857Y-52919048D01*
X167185714Y-52252381D02*
X167661905Y-52252381D01*
X167709524Y-52728571D01*
X167661905Y-52680952D01*
X167566667Y-52633333D01*
X167328571Y-52633333D01*
X167233333Y-52680952D01*
X167185714Y-52728571D01*
X167138095Y-52823810D01*
X167138095Y-53061905D01*
X167185714Y-53157143D01*
X167233333Y-53204762D01*
X167328571Y-53252381D01*
X167566667Y-53252381D01*
X167661905Y-53204762D01*
X167709524Y-53157143D01*
X183252381Y-48683334D02*
X182776190Y-48350000D01*
X183252381Y-48111905D02*
X182252381Y-48111905D01*
X182252381Y-48492858D01*
X182300000Y-48588096D01*
X182347619Y-48635715D01*
X182442857Y-48683334D01*
X182585714Y-48683334D01*
X182680952Y-48635715D01*
X182728571Y-48588096D01*
X182776190Y-48492858D01*
X182776190Y-48111905D01*
X183252381Y-49159524D02*
X183252381Y-49350000D01*
X183204762Y-49445239D01*
X183157143Y-49492858D01*
X183014286Y-49588096D01*
X182823810Y-49635715D01*
X182442857Y-49635715D01*
X182347619Y-49588096D01*
X182300000Y-49540477D01*
X182252381Y-49445239D01*
X182252381Y-49254762D01*
X182300000Y-49159524D01*
X182347619Y-49111905D01*
X182442857Y-49064286D01*
X182680952Y-49064286D01*
X182776190Y-49111905D01*
X182823810Y-49159524D01*
X182871429Y-49254762D01*
X182871429Y-49445239D01*
X182823810Y-49540477D01*
X182776190Y-49588096D01*
X182680952Y-49635715D01*
X179892857Y-48752381D02*
X180226191Y-48276190D01*
X180464286Y-48752381D02*
X180464286Y-47752381D01*
X180083333Y-47752381D01*
X179988095Y-47800000D01*
X179940476Y-47847619D01*
X179892857Y-47942857D01*
X179892857Y-48085714D01*
X179940476Y-48180952D01*
X179988095Y-48228571D01*
X180083333Y-48276190D01*
X180464286Y-48276190D01*
X178940476Y-48752381D02*
X179511905Y-48752381D01*
X179226191Y-48752381D02*
X179226191Y-47752381D01*
X179321429Y-47895238D01*
X179416667Y-47990476D01*
X179511905Y-48038095D01*
X178321429Y-47752381D02*
X178226190Y-47752381D01*
X178130952Y-47800000D01*
X178083333Y-47847619D01*
X178035714Y-47942857D01*
X177988095Y-48133333D01*
X177988095Y-48371429D01*
X178035714Y-48561905D01*
X178083333Y-48657143D01*
X178130952Y-48704762D01*
X178226190Y-48752381D01*
X178321429Y-48752381D01*
X178416667Y-48704762D01*
X178464286Y-48657143D01*
X178511905Y-48561905D01*
X178559524Y-48371429D01*
X178559524Y-48133333D01*
X178511905Y-47942857D01*
X178464286Y-47847619D01*
X178416667Y-47800000D01*
X178321429Y-47752381D01*
X138392857Y-67052381D02*
X138726191Y-66576190D01*
X138964286Y-67052381D02*
X138964286Y-66052381D01*
X138583333Y-66052381D01*
X138488095Y-66100000D01*
X138440476Y-66147619D01*
X138392857Y-66242857D01*
X138392857Y-66385714D01*
X138440476Y-66480952D01*
X138488095Y-66528571D01*
X138583333Y-66576190D01*
X138964286Y-66576190D01*
X138011905Y-66147619D02*
X137964286Y-66100000D01*
X137869048Y-66052381D01*
X137630952Y-66052381D01*
X137535714Y-66100000D01*
X137488095Y-66147619D01*
X137440476Y-66242857D01*
X137440476Y-66338095D01*
X137488095Y-66480952D01*
X138059524Y-67052381D01*
X137440476Y-67052381D01*
X137059524Y-66147619D02*
X137011905Y-66100000D01*
X136916667Y-66052381D01*
X136678571Y-66052381D01*
X136583333Y-66100000D01*
X136535714Y-66147619D01*
X136488095Y-66242857D01*
X136488095Y-66338095D01*
X136535714Y-66480952D01*
X137107143Y-67052381D01*
X136488095Y-67052381D01*
X179642857Y-56107143D02*
X179690476Y-56154762D01*
X179833333Y-56202381D01*
X179928571Y-56202381D01*
X180071429Y-56154762D01*
X180166667Y-56059524D01*
X180214286Y-55964286D01*
X180261905Y-55773810D01*
X180261905Y-55630952D01*
X180214286Y-55440476D01*
X180166667Y-55345238D01*
X180071429Y-55250000D01*
X179928571Y-55202381D01*
X179833333Y-55202381D01*
X179690476Y-55250000D01*
X179642857Y-55297619D01*
X179309524Y-55202381D02*
X178690476Y-55202381D01*
X179023810Y-55583333D01*
X178880952Y-55583333D01*
X178785714Y-55630952D01*
X178738095Y-55678571D01*
X178690476Y-55773810D01*
X178690476Y-56011905D01*
X178738095Y-56107143D01*
X178785714Y-56154762D01*
X178880952Y-56202381D01*
X179166667Y-56202381D01*
X179261905Y-56154762D01*
X179309524Y-56107143D01*
X177833333Y-55535714D02*
X177833333Y-56202381D01*
X178071429Y-55154762D02*
X178309524Y-55869048D01*
X177690476Y-55869048D01*
X166442857Y-57057143D02*
X166490476Y-57104762D01*
X166633333Y-57152381D01*
X166728571Y-57152381D01*
X166871429Y-57104762D01*
X166966667Y-57009524D01*
X167014286Y-56914286D01*
X167061905Y-56723810D01*
X167061905Y-56580952D01*
X167014286Y-56390476D01*
X166966667Y-56295238D01*
X166871429Y-56200000D01*
X166728571Y-56152381D01*
X166633333Y-56152381D01*
X166490476Y-56200000D01*
X166442857Y-56247619D01*
X166109524Y-56152381D02*
X165490476Y-56152381D01*
X165823810Y-56533333D01*
X165680952Y-56533333D01*
X165585714Y-56580952D01*
X165538095Y-56628571D01*
X165490476Y-56723810D01*
X165490476Y-56961905D01*
X165538095Y-57057143D01*
X165585714Y-57104762D01*
X165680952Y-57152381D01*
X165966667Y-57152381D01*
X166061905Y-57104762D01*
X166109524Y-57057143D01*
X164585714Y-56152381D02*
X165061905Y-56152381D01*
X165109524Y-56628571D01*
X165061905Y-56580952D01*
X164966667Y-56533333D01*
X164728571Y-56533333D01*
X164633333Y-56580952D01*
X164585714Y-56628571D01*
X164538095Y-56723810D01*
X164538095Y-56961905D01*
X164585714Y-57057143D01*
X164633333Y-57104762D01*
X164728571Y-57152381D01*
X164966667Y-57152381D01*
X165061905Y-57104762D01*
X165109524Y-57057143D01*
X179642857Y-58357143D02*
X179690476Y-58404762D01*
X179833333Y-58452381D01*
X179928571Y-58452381D01*
X180071429Y-58404762D01*
X180166667Y-58309524D01*
X180214286Y-58214286D01*
X180261905Y-58023810D01*
X180261905Y-57880952D01*
X180214286Y-57690476D01*
X180166667Y-57595238D01*
X180071429Y-57500000D01*
X179928571Y-57452381D01*
X179833333Y-57452381D01*
X179690476Y-57500000D01*
X179642857Y-57547619D01*
X179309524Y-57452381D02*
X178690476Y-57452381D01*
X179023810Y-57833333D01*
X178880952Y-57833333D01*
X178785714Y-57880952D01*
X178738095Y-57928571D01*
X178690476Y-58023810D01*
X178690476Y-58261905D01*
X178738095Y-58357143D01*
X178785714Y-58404762D01*
X178880952Y-58452381D01*
X179166667Y-58452381D01*
X179261905Y-58404762D01*
X179309524Y-58357143D01*
X177833333Y-57452381D02*
X178023810Y-57452381D01*
X178119048Y-57500000D01*
X178166667Y-57547619D01*
X178261905Y-57690476D01*
X178309524Y-57880952D01*
X178309524Y-58261905D01*
X178261905Y-58357143D01*
X178214286Y-58404762D01*
X178119048Y-58452381D01*
X177928571Y-58452381D01*
X177833333Y-58404762D01*
X177785714Y-58357143D01*
X177738095Y-58261905D01*
X177738095Y-58023810D01*
X177785714Y-57928571D01*
X177833333Y-57880952D01*
X177928571Y-57833333D01*
X178119048Y-57833333D01*
X178214286Y-57880952D01*
X178261905Y-57928571D01*
X178309524Y-58023810D01*
X173342857Y-64557143D02*
X173390476Y-64604762D01*
X173533333Y-64652381D01*
X173628571Y-64652381D01*
X173771429Y-64604762D01*
X173866667Y-64509524D01*
X173914286Y-64414286D01*
X173961905Y-64223810D01*
X173961905Y-64080952D01*
X173914286Y-63890476D01*
X173866667Y-63795238D01*
X173771429Y-63700000D01*
X173628571Y-63652381D01*
X173533333Y-63652381D01*
X173390476Y-63700000D01*
X173342857Y-63747619D01*
X173009524Y-63652381D02*
X172390476Y-63652381D01*
X172723810Y-64033333D01*
X172580952Y-64033333D01*
X172485714Y-64080952D01*
X172438095Y-64128571D01*
X172390476Y-64223810D01*
X172390476Y-64461905D01*
X172438095Y-64557143D01*
X172485714Y-64604762D01*
X172580952Y-64652381D01*
X172866667Y-64652381D01*
X172961905Y-64604762D01*
X173009524Y-64557143D01*
X172057143Y-63652381D02*
X171390476Y-63652381D01*
X171819048Y-64652381D01*
X150242857Y-77357143D02*
X150290476Y-77404762D01*
X150433333Y-77452381D01*
X150528571Y-77452381D01*
X150671429Y-77404762D01*
X150766667Y-77309524D01*
X150814286Y-77214286D01*
X150861905Y-77023810D01*
X150861905Y-76880952D01*
X150814286Y-76690476D01*
X150766667Y-76595238D01*
X150671429Y-76500000D01*
X150528571Y-76452381D01*
X150433333Y-76452381D01*
X150290476Y-76500000D01*
X150242857Y-76547619D01*
X149909524Y-76452381D02*
X149242857Y-76452381D01*
X149671429Y-77452381D01*
X148957143Y-76452381D02*
X148338095Y-76452381D01*
X148671429Y-76833333D01*
X148528571Y-76833333D01*
X148433333Y-76880952D01*
X148385714Y-76928571D01*
X148338095Y-77023810D01*
X148338095Y-77261905D01*
X148385714Y-77357143D01*
X148433333Y-77404762D01*
X148528571Y-77452381D01*
X148814286Y-77452381D01*
X148909524Y-77404762D01*
X148957143Y-77357143D01*
X150242857Y-82157143D02*
X150290476Y-82204762D01*
X150433333Y-82252381D01*
X150528571Y-82252381D01*
X150671429Y-82204762D01*
X150766667Y-82109524D01*
X150814286Y-82014286D01*
X150861905Y-81823810D01*
X150861905Y-81680952D01*
X150814286Y-81490476D01*
X150766667Y-81395238D01*
X150671429Y-81300000D01*
X150528571Y-81252381D01*
X150433333Y-81252381D01*
X150290476Y-81300000D01*
X150242857Y-81347619D01*
X149909524Y-81252381D02*
X149242857Y-81252381D01*
X149671429Y-82252381D01*
X148719048Y-81680952D02*
X148814286Y-81633333D01*
X148861905Y-81585714D01*
X148909524Y-81490476D01*
X148909524Y-81442857D01*
X148861905Y-81347619D01*
X148814286Y-81300000D01*
X148719048Y-81252381D01*
X148528571Y-81252381D01*
X148433333Y-81300000D01*
X148385714Y-81347619D01*
X148338095Y-81442857D01*
X148338095Y-81490476D01*
X148385714Y-81585714D01*
X148433333Y-81633333D01*
X148528571Y-81680952D01*
X148719048Y-81680952D01*
X148814286Y-81728571D01*
X148861905Y-81776190D01*
X148909524Y-81871429D01*
X148909524Y-82061905D01*
X148861905Y-82157143D01*
X148814286Y-82204762D01*
X148719048Y-82252381D01*
X148528571Y-82252381D01*
X148433333Y-82204762D01*
X148385714Y-82157143D01*
X148338095Y-82061905D01*
X148338095Y-81871429D01*
X148385714Y-81776190D01*
X148433333Y-81728571D01*
X148528571Y-81680952D01*
X165442857Y-92007143D02*
X165490476Y-92054762D01*
X165633333Y-92102381D01*
X165728571Y-92102381D01*
X165871429Y-92054762D01*
X165966667Y-91959524D01*
X166014286Y-91864286D01*
X166061905Y-91673810D01*
X166061905Y-91530952D01*
X166014286Y-91340476D01*
X165966667Y-91245238D01*
X165871429Y-91150000D01*
X165728571Y-91102381D01*
X165633333Y-91102381D01*
X165490476Y-91150000D01*
X165442857Y-91197619D01*
X164490476Y-92102381D02*
X165061905Y-92102381D01*
X164776191Y-92102381D02*
X164776191Y-91102381D01*
X164871429Y-91245238D01*
X164966667Y-91340476D01*
X165061905Y-91388095D01*
X164109524Y-91197619D02*
X164061905Y-91150000D01*
X163966667Y-91102381D01*
X163728571Y-91102381D01*
X163633333Y-91150000D01*
X163585714Y-91197619D01*
X163538095Y-91292857D01*
X163538095Y-91388095D01*
X163585714Y-91530952D01*
X164157143Y-92102381D01*
X163538095Y-92102381D01*
X174357143Y-55457143D02*
X174404762Y-55409524D01*
X174452381Y-55266667D01*
X174452381Y-55171429D01*
X174404762Y-55028571D01*
X174309524Y-54933333D01*
X174214286Y-54885714D01*
X174023810Y-54838095D01*
X173880952Y-54838095D01*
X173690476Y-54885714D01*
X173595238Y-54933333D01*
X173500000Y-55028571D01*
X173452381Y-55171429D01*
X173452381Y-55266667D01*
X173500000Y-55409524D01*
X173547619Y-55457143D01*
X173452381Y-55790476D02*
X173452381Y-56409524D01*
X173833333Y-56076190D01*
X173833333Y-56219048D01*
X173880952Y-56314286D01*
X173928571Y-56361905D01*
X174023810Y-56409524D01*
X174261905Y-56409524D01*
X174357143Y-56361905D01*
X174404762Y-56314286D01*
X174452381Y-56219048D01*
X174452381Y-55933333D01*
X174404762Y-55838095D01*
X174357143Y-55790476D01*
X173547619Y-56790476D02*
X173500000Y-56838095D01*
X173452381Y-56933333D01*
X173452381Y-57171429D01*
X173500000Y-57266667D01*
X173547619Y-57314286D01*
X173642857Y-57361905D01*
X173738095Y-57361905D01*
X173880952Y-57314286D01*
X174452381Y-56742857D01*
X174452381Y-57361905D01*
X168857143Y-55557143D02*
X168904762Y-55509524D01*
X168952381Y-55366667D01*
X168952381Y-55271429D01*
X168904762Y-55128571D01*
X168809524Y-55033333D01*
X168714286Y-54985714D01*
X168523810Y-54938095D01*
X168380952Y-54938095D01*
X168190476Y-54985714D01*
X168095238Y-55033333D01*
X168000000Y-55128571D01*
X167952381Y-55271429D01*
X167952381Y-55366667D01*
X168000000Y-55509524D01*
X168047619Y-55557143D01*
X167952381Y-55890476D02*
X167952381Y-56509524D01*
X168333333Y-56176190D01*
X168333333Y-56319048D01*
X168380952Y-56414286D01*
X168428571Y-56461905D01*
X168523810Y-56509524D01*
X168761905Y-56509524D01*
X168857143Y-56461905D01*
X168904762Y-56414286D01*
X168952381Y-56319048D01*
X168952381Y-56033333D01*
X168904762Y-55938095D01*
X168857143Y-55890476D01*
X167952381Y-56842857D02*
X167952381Y-57461905D01*
X168333333Y-57128571D01*
X168333333Y-57271429D01*
X168380952Y-57366667D01*
X168428571Y-57414286D01*
X168523810Y-57461905D01*
X168761905Y-57461905D01*
X168857143Y-57414286D01*
X168904762Y-57366667D01*
X168952381Y-57271429D01*
X168952381Y-56985714D01*
X168904762Y-56890476D01*
X168857143Y-56842857D01*
X168892857Y-92007143D02*
X168940476Y-92054762D01*
X169083333Y-92102381D01*
X169178571Y-92102381D01*
X169321429Y-92054762D01*
X169416667Y-91959524D01*
X169464286Y-91864286D01*
X169511905Y-91673810D01*
X169511905Y-91530952D01*
X169464286Y-91340476D01*
X169416667Y-91245238D01*
X169321429Y-91150000D01*
X169178571Y-91102381D01*
X169083333Y-91102381D01*
X168940476Y-91150000D01*
X168892857Y-91197619D01*
X167940476Y-92102381D02*
X168511905Y-92102381D01*
X168226191Y-92102381D02*
X168226191Y-91102381D01*
X168321429Y-91245238D01*
X168416667Y-91340476D01*
X168511905Y-91388095D01*
X167321429Y-91102381D02*
X167226190Y-91102381D01*
X167130952Y-91150000D01*
X167083333Y-91197619D01*
X167035714Y-91292857D01*
X166988095Y-91483333D01*
X166988095Y-91721429D01*
X167035714Y-91911905D01*
X167083333Y-92007143D01*
X167130952Y-92054762D01*
X167226190Y-92102381D01*
X167321429Y-92102381D01*
X167416667Y-92054762D01*
X167464286Y-92007143D01*
X167511905Y-91911905D01*
X167559524Y-91721429D01*
X167559524Y-91483333D01*
X167511905Y-91292857D01*
X167464286Y-91197619D01*
X167416667Y-91150000D01*
X167321429Y-91102381D01*
X88611238Y-37115619D02*
X88706476Y-37068000D01*
X88801714Y-36972762D01*
X88944571Y-36829905D01*
X89039810Y-36782286D01*
X89135048Y-36782286D01*
X89087429Y-37020381D02*
X89182667Y-36972762D01*
X89277905Y-36877524D01*
X89325524Y-36687048D01*
X89325524Y-36353714D01*
X89277905Y-36163238D01*
X89182667Y-36068000D01*
X89087429Y-36020381D01*
X88896952Y-36020381D01*
X88801714Y-36068000D01*
X88706476Y-36163238D01*
X88658857Y-36353714D01*
X88658857Y-36687048D01*
X88706476Y-36877524D01*
X88801714Y-36972762D01*
X88896952Y-37020381D01*
X89087429Y-37020381D01*
X88087429Y-36448952D02*
X88182667Y-36401333D01*
X88230286Y-36353714D01*
X88277905Y-36258476D01*
X88277905Y-36210857D01*
X88230286Y-36115619D01*
X88182667Y-36068000D01*
X88087429Y-36020381D01*
X87896952Y-36020381D01*
X87801714Y-36068000D01*
X87754095Y-36115619D01*
X87706476Y-36210857D01*
X87706476Y-36258476D01*
X87754095Y-36353714D01*
X87801714Y-36401333D01*
X87896952Y-36448952D01*
X88087429Y-36448952D01*
X88182667Y-36496571D01*
X88230286Y-36544190D01*
X88277905Y-36639429D01*
X88277905Y-36829905D01*
X88230286Y-36925143D01*
X88182667Y-36972762D01*
X88087429Y-37020381D01*
X87896952Y-37020381D01*
X87801714Y-36972762D01*
X87754095Y-36925143D01*
X87706476Y-36829905D01*
X87706476Y-36639429D01*
X87754095Y-36544190D01*
X87801714Y-36496571D01*
X87896952Y-36448952D01*
X58111238Y-37115619D02*
X58206476Y-37068000D01*
X58301714Y-36972762D01*
X58444571Y-36829905D01*
X58539810Y-36782286D01*
X58635048Y-36782286D01*
X58587429Y-37020381D02*
X58682667Y-36972762D01*
X58777905Y-36877524D01*
X58825524Y-36687048D01*
X58825524Y-36353714D01*
X58777905Y-36163238D01*
X58682667Y-36068000D01*
X58587429Y-36020381D01*
X58396952Y-36020381D01*
X58301714Y-36068000D01*
X58206476Y-36163238D01*
X58158857Y-36353714D01*
X58158857Y-36687048D01*
X58206476Y-36877524D01*
X58301714Y-36972762D01*
X58396952Y-37020381D01*
X58587429Y-37020381D01*
X57825524Y-36020381D02*
X57206476Y-36020381D01*
X57539810Y-36401333D01*
X57396952Y-36401333D01*
X57301714Y-36448952D01*
X57254095Y-36496571D01*
X57206476Y-36591810D01*
X57206476Y-36829905D01*
X57254095Y-36925143D01*
X57301714Y-36972762D01*
X57396952Y-37020381D01*
X57682667Y-37020381D01*
X57777905Y-36972762D01*
X57825524Y-36925143D01*
X119111238Y-37115619D02*
X119206476Y-37068000D01*
X119301714Y-36972762D01*
X119444571Y-36829905D01*
X119539810Y-36782286D01*
X119635048Y-36782286D01*
X119587429Y-37020381D02*
X119682667Y-36972762D01*
X119777905Y-36877524D01*
X119825524Y-36687048D01*
X119825524Y-36353714D01*
X119777905Y-36163238D01*
X119682667Y-36068000D01*
X119587429Y-36020381D01*
X119396952Y-36020381D01*
X119301714Y-36068000D01*
X119206476Y-36163238D01*
X119158857Y-36353714D01*
X119158857Y-36687048D01*
X119206476Y-36877524D01*
X119301714Y-36972762D01*
X119396952Y-37020381D01*
X119587429Y-37020381D01*
X118301714Y-36020381D02*
X118492191Y-36020381D01*
X118587429Y-36068000D01*
X118635048Y-36115619D01*
X118730286Y-36258476D01*
X118777905Y-36448952D01*
X118777905Y-36829905D01*
X118730286Y-36925143D01*
X118682667Y-36972762D01*
X118587429Y-37020381D01*
X118396952Y-37020381D01*
X118301714Y-36972762D01*
X118254095Y-36925143D01*
X118206476Y-36829905D01*
X118206476Y-36591810D01*
X118254095Y-36496571D01*
X118301714Y-36448952D01*
X118396952Y-36401333D01*
X118587429Y-36401333D01*
X118682667Y-36448952D01*
X118730286Y-36496571D01*
X118777905Y-36591810D01*
X117079238Y-101979619D02*
X117174476Y-101932000D01*
X117269714Y-101836762D01*
X117412571Y-101693905D01*
X117507810Y-101646286D01*
X117603048Y-101646286D01*
X117555429Y-101884381D02*
X117650667Y-101836762D01*
X117745905Y-101741524D01*
X117793524Y-101551048D01*
X117793524Y-101217714D01*
X117745905Y-101027238D01*
X117650667Y-100932000D01*
X117555429Y-100884381D01*
X117364952Y-100884381D01*
X117269714Y-100932000D01*
X117174476Y-101027238D01*
X117126857Y-101217714D01*
X117126857Y-101551048D01*
X117174476Y-101741524D01*
X117269714Y-101836762D01*
X117364952Y-101884381D01*
X117555429Y-101884381D01*
X116793524Y-100884381D02*
X116126857Y-100884381D01*
X116555429Y-101884381D01*
X86579238Y-101979619D02*
X86674476Y-101932000D01*
X86769714Y-101836762D01*
X86912571Y-101693905D01*
X87007810Y-101646286D01*
X87103048Y-101646286D01*
X87055429Y-101884381D02*
X87150667Y-101836762D01*
X87245905Y-101741524D01*
X87293524Y-101551048D01*
X87293524Y-101217714D01*
X87245905Y-101027238D01*
X87150667Y-100932000D01*
X87055429Y-100884381D01*
X86864952Y-100884381D01*
X86769714Y-100932000D01*
X86674476Y-101027238D01*
X86626857Y-101217714D01*
X86626857Y-101551048D01*
X86674476Y-101741524D01*
X86769714Y-101836762D01*
X86864952Y-101884381D01*
X87055429Y-101884381D01*
X86150667Y-101884381D02*
X85960191Y-101884381D01*
X85864952Y-101836762D01*
X85817333Y-101789143D01*
X85722095Y-101646286D01*
X85674476Y-101455810D01*
X85674476Y-101074857D01*
X85722095Y-100979619D01*
X85769714Y-100932000D01*
X85864952Y-100884381D01*
X86055429Y-100884381D01*
X86150667Y-100932000D01*
X86198286Y-100979619D01*
X86245905Y-101074857D01*
X86245905Y-101312952D01*
X86198286Y-101408190D01*
X86150667Y-101455810D01*
X86055429Y-101503429D01*
X85864952Y-101503429D01*
X85769714Y-101455810D01*
X85722095Y-101408190D01*
X85674476Y-101312952D01*
X56079238Y-101979619D02*
X56174476Y-101932000D01*
X56269714Y-101836762D01*
X56412571Y-101693905D01*
X56507810Y-101646286D01*
X56603048Y-101646286D01*
X56555429Y-101884381D02*
X56650667Y-101836762D01*
X56745905Y-101741524D01*
X56793524Y-101551048D01*
X56793524Y-101217714D01*
X56745905Y-101027238D01*
X56650667Y-100932000D01*
X56555429Y-100884381D01*
X56364952Y-100884381D01*
X56269714Y-100932000D01*
X56174476Y-101027238D01*
X56126857Y-101217714D01*
X56126857Y-101551048D01*
X56174476Y-101741524D01*
X56269714Y-101836762D01*
X56364952Y-101884381D01*
X56555429Y-101884381D01*
X55222095Y-100884381D02*
X55698286Y-100884381D01*
X55745905Y-101360571D01*
X55698286Y-101312952D01*
X55603048Y-101265333D01*
X55364952Y-101265333D01*
X55269714Y-101312952D01*
X55222095Y-101360571D01*
X55174476Y-101455810D01*
X55174476Y-101693905D01*
X55222095Y-101789143D01*
X55269714Y-101836762D01*
X55364952Y-101884381D01*
X55603048Y-101884381D01*
X55698286Y-101836762D01*
X55745905Y-101789143D01*
M02*
